ISO-10303-21;
HEADER;
FILE_DESCRIPTION (( 'STEP AP214' ),
    '1' );
FILE_NAME ('WagonPlane_60ft_LessDetailed.STEP',
    '2026-02-24T13:10:21',
    ( '' ),
    ( '' ),
    'SwSTEP 2.0',
    'SolidWorks 2022',
    '' );
FILE_SCHEMA (( 'AUTOMOTIVE_DESIGN' ));
ENDSEC;

DATA;
#1 = FACE_OUTER_BOUND ( 'NONE', #420, .T. ) ;
#2 = CARTESIAN_POINT ( 'NONE',  ( 0.000000000000000000, -1.189999999999997282, -0.9600000000000001865 ) ) ;
#3 = ORIENTED_EDGE ( 'NONE', *, *, #770, .F. ) ;
#4 = ORIENTED_EDGE ( 'NONE', *, *, #617, .F. ) ;
#5 = SURFACE_STYLE_FILL_AREA ( #375 ) ;
#6 = EDGE_CURVE ( 'NONE', #515, #291, #474, .T. ) ;
#7 = LINE ( 'NONE', #554, #396 ) ;
#8 = VERTEX_POINT ( 'NONE', #357 ) ;
#9 = AXIS2_PLACEMENT_3D ( 'NONE', #566, #513, #690 ) ;
#10 = EDGE_CURVE ( 'NONE', #182, #8, #286, .T. ) ;
#11 = ORIENTED_EDGE ( 'NONE', *, *, #6, .T. ) ;
#12 = VECTOR ( 'NONE', #113, 1.000000000000000000 ) ;
#13 = ORIENTED_EDGE ( 'NONE', *, *, #518, .F. ) ;
#14 = SURFACE_SIDE_STYLE ('',( #517 ) ) ;
#15 = DIRECTION ( 'NONE',  ( -1.000000000000000000, -2.520506326176030958E-16, 0.000000000000000000 ) ) ;
#16 = CARTESIAN_POINT ( 'NONE',  ( -16.55000000000000071, -1.190000000000001501, -0.9600000000000001865 ) ) ;
#17 = DIRECTION ( 'NONE',  ( 1.200241107702872002E-17, -1.000000000000000000, 0.000000000000000000 ) ) ;
#18 = VERTEX_POINT ( 'NONE', #534 ) ;
#19 = EDGE_CURVE ( 'NONE', #261, #182, #768, .T. ) ;
#20 = LINE ( 'NONE', #213, #362 ) ;
#21 = LINE ( 'NONE', #630, #683 ) ;
#22 = AXIS2_PLACEMENT_3D ( 'NONE', #147, #210, #140 ) ;
#23 = DIRECTION ( 'NONE',  ( 0.000000000000000000, -1.000000000000000000, 0.000000000000000000 ) ) ;
#24 = FACE_OUTER_BOUND ( 'NONE', #502, .T. ) ;
#25 = ORIENTED_EDGE ( 'NONE', *, *, #726, .F. ) ;
#26 = FACE_OUTER_BOUND ( 'NONE', #447, .T. ) ;
#27 = EDGE_CURVE ( 'NONE', #673, #108, #337, .T. ) ;
#28 = LINE ( 'NONE', #414, #125 ) ;
#29 = DIRECTION ( 'NONE',  ( -0.000000000000000000, 1.000000000000000000, -0.000000000000000000 ) ) ;
#30 = ORIENTED_EDGE ( 'NONE', *, *, #518, .T. ) ;
#31 = PLANE ( 'NONE',  #34 ) ;
#32 = CARTESIAN_POINT ( 'NONE',  ( -16.55000000000000071, -0.8000000000000000444, -0.9100000000000001421 ) ) ;
#33 = EDGE_CURVE ( 'NONE', #663, #354, #276, .T. ) ;
#34 = AXIS2_PLACEMENT_3D ( 'NONE', #536, #42, #777 ) ;
#35 = CARTESIAN_POINT ( 'NONE',  ( -2.350000000000000089, 0.8999999999999999112, -0.9100000000000001421 ) ) ;
#36 = ORIENTED_EDGE ( 'NONE', *, *, #197, .F. ) ;
#37 = DIRECTION ( 'NONE',  ( 1.000000000000000000, 0.000000000000000000, -0.000000000000000000 ) ) ;
#38 = VECTOR ( 'NONE', #701, 1.000000000000000222 ) ;
#39 = CARTESIAN_POINT ( 'NONE',  ( -1.950000000000000178, -1.189999999999998392, -0.9600000000000001865 ) ) ;
#40 = EDGE_LOOP ( 'NONE', ( #52, #44, #660, #748 ) ) ;
#41 = VERTEX_POINT ( 'NONE', #35 ) ;
#42 = DIRECTION ( 'NONE',  ( -0.000000000000000000, 0.000000000000000000, 1.000000000000000000 ) ) ;
#43 = PLANE ( 'NONE',  #544 ) ;
#44 = ORIENTED_EDGE ( 'NONE', *, *, #679, .T. ) ;
#45 = EDGE_CURVE ( 'NONE', #354, #182, #281, .T. ) ;
#46 = ORIENTED_EDGE ( 'NONE', *, *, #340, .T. ) ;
#47 = CARTESIAN_POINT ( 'NONE',  ( -16.55000000000000071, -1.189999999999998392, -0.9600000000000001865 ) ) ;
#48 = DIRECTION ( 'NONE',  ( -0.000000000000000000, -0.9854601157443477755, -0.1699069165076472210 ) ) ;
#49 = VECTOR ( 'NONE', #562, 1.000000000000000000 ) ;
#50 = VERTEX_POINT ( 'NONE', #302 ) ;
#51 = VECTOR ( 'NONE', #757, 1.000000000000000000 ) ;
#52 = ORIENTED_EDGE ( 'NONE', *, *, #149, .T. ) ;
#53 = CARTESIAN_POINT ( 'NONE',  ( -2.350000000000000089, -1.189999999999998392, -0.9600000000000001865 ) ) ;
#54 = DIRECTION ( 'NONE',  ( -0.000000000000000000, -1.000000000000000000, -0.000000000000000000 ) ) ;
#55 = ORIENTED_EDGE ( 'NONE', *, *, #161, .F. ) ;
#56 = CARTESIAN_POINT ( 'NONE',  ( -18.50000000000000000, 1.189999999999997504, -1.160000000000000142 ) ) ;
#57 = EDGE_LOOP ( 'NONE', ( #178, #154, #589, #216 ) ) ;
#58 = LINE ( 'NONE', #305, #87 ) ;
#59 = CARTESIAN_POINT ( 'NONE',  ( -16.55000000000000071, -0.2000000000000000111, -0.8250000000000000666 ) ) ;
#60 = ADVANCED_FACE ( 'NONE', ( #504 ), #567, .F. ) ;
#61 = ORIENTED_EDGE ( 'NONE', *, *, #280, .T. ) ;
#62 = VECTOR ( 'NONE', #782, 1.000000000000000000 ) ;
#63 = DIRECTION ( 'NONE',  ( 1.000000000000000000, 2.520506326176030958E-16, 0.000000000000000000 ) ) ;
#64 = AXIS2_PLACEMENT_3D ( 'NONE', #489, #367, #179 ) ;
#65 = CARTESIAN_POINT ( 'NONE',  ( -2.350000000000000089, 0.000000000000000000, 0.000000000000000000 ) ) ;
#66 = ORIENTED_EDGE ( 'NONE', *, *, #71, .T. ) ;
#67 = EDGE_CURVE ( 'NONE', #618, #261, #754, .T. ) ;
#68 = LINE ( 'NONE', #722, #540 ) ;
#69 = LINE ( 'NONE', #612, #773 ) ;
#70 = ORIENTED_EDGE ( 'NONE', *, *, #67, .F. ) ;
#71 = EDGE_CURVE ( 'NONE', #378, #103, #442, .T. ) ;
#72 = CARTESIAN_POINT ( 'NONE',  ( 0.000000000000000000, -1.189999999999997282, -0.9600000000000001865 ) ) ;
#73 = ORIENTED_EDGE ( 'NONE', *, *, #303, .F. ) ;
#74 = VECTOR ( 'NONE', #497, 1.000000000000000000 ) ;
#75 = PLANE ( 'NONE',  #9 ) ;
#76 = AXIS2_PLACEMENT_3D ( 'NONE', #549, #493, #664 ) ;
#77 = FACE_OUTER_BOUND ( 'NONE', #211, .T. ) ;
#78 = VECTOR ( 'NONE', #755, 1.000000000000000000 ) ;
#79 = LINE ( 'NONE', #751, #294 ) ;
#80 = PLANE ( 'NONE',  #724 ) ;
#81 = EDGE_CURVE ( 'NONE', #453, #111, #578, .T. ) ;
#82 = LINE ( 'NONE', #584, #151 ) ;
#83 = ORIENTED_EDGE ( 'NONE', *, *, #81, .F. ) ;
#84 = CARTESIAN_POINT ( 'NONE',  ( -18.50000000000000000, 1.189999999999997504, -0.9600000000000001865 ) ) ;
#85 = PRESENTATION_LAYER_ASSIGNMENT (  '', '', ( #265 ) ) ;
#86 = CARTESIAN_POINT ( 'NONE',  ( -16.15000000000000213, 1.189999999999997504, -0.9600000000000001865 ) ) ;
#87 = VECTOR ( 'NONE', #63, 1.000000000000000000 ) ;
#88 = DIRECTION ( 'NONE',  ( -1.000000000000000000, -0.000000000000000000, -0.000000000000000000 ) ) ;
#89 = AXIS2_PLACEMENT_3D ( 'NONE', #478, #279, #527 ) ;
#90 = CARTESIAN_POINT ( 'NONE',  ( -16.15000000000000213, 1.189999999999998392, -0.9600000000000001865 ) ) ;
#91 = LINE ( 'NONE', #395, #595 ) ;
#92 = EDGE_LOOP ( 'NONE', ( #556, #603, #25, #712, #756, #252, #70, #200 ) ) ;
#93 = EDGE_CURVE ( 'NONE', #401, #728, #82, .T. ) ;
#94 = CARTESIAN_POINT ( 'NONE',  ( 0.000000000000000000, 0.000000000000000000, -1.160000000000000142 ) ) ;
#95 = CARTESIAN_POINT ( 'NONE',  ( -16.55000000000000071, 0.8000000000000000444, -0.9100000000000001421 ) ) ;
#96 = ORIENTED_EDGE ( 'NONE', *, *, #27, .F. ) ;
#97 = ORIENTED_EDGE ( 'NONE', *, *, #529, .F. ) ;
#98 = LINE ( 'NONE', #90, #746 ) ;
#99 = CARTESIAN_POINT ( 'NONE',  ( -1.950000000000000178, 0.000000000000000000, 0.000000000000000000 ) ) ;
#100 = ADVANCED_FACE ( 'NONE', ( #741 ), #80, .F. ) ;
#101 =( GEOMETRIC_REPRESENTATION_CONTEXT ( 3 ) GLOBAL_UNCERTAINTY_ASSIGNED_CONTEXT ( ( #708 ) ) GLOBAL_UNIT_ASSIGNED_CONTEXT ( ( #259, #624, #198 ) ) REPRESENTATION_CONTEXT ( 'NONE', 'WORKASPACE' ) );
#102 = VERTEX_POINT ( 'NONE', #691 ) ;
#103 = VERTEX_POINT ( 'NONE', #398 ) ;
#104 = LINE ( 'NONE', #339, #308 ) ;
#105 = VECTOR ( 'NONE', #48, 1.000000000000000222 ) ;
#106 = CARTESIAN_POINT ( 'NONE',  ( -1.950000000000000178, -0.8000000000000000444, -0.9100000000000001421 ) ) ;
#107 = ADVANCED_FACE ( 'NONE', ( #450 ), #627, .F. ) ;
#108 = VERTEX_POINT ( 'NONE', #688 ) ;
#109 = PLANE ( 'NONE',  #436 ) ;
#110 = DIRECTION ( 'NONE',  ( 0.000000000000000000, -0.9854601157443477755, 0.1699069165076472210 ) ) ;
#111 = VERTEX_POINT ( 'NONE', #214 ) ;
#112 = PRESENTATION_STYLE_ASSIGNMENT (( #254 ) ) ;
#113 = DIRECTION ( 'NONE',  ( 1.000000000000000000, -0.000000000000000000, -0.000000000000000000 ) ) ;
#114 = MECHANICAL_DESIGN_GEOMETRIC_PRESENTATION_REPRESENTATION (  '', ( #266 ), #386 ) ;
#115 = ORIENTED_EDGE ( 'NONE', *, *, #659, .F. ) ;
#116 = CARTESIAN_POINT ( 'NONE',  ( -1.950000000000000178, 0.8999999999999999112, -0.9100000000000001421 ) ) ;
#117 = DIRECTION ( 'NONE',  ( 0.000000000000000000, -0.9854601157443477755, 0.1699069165076472210 ) ) ;
#118 = ORIENTED_EDGE ( 'NONE', *, *, #523, .F. ) ;
#119 = PLANE ( 'NONE',  #76 ) ;
#120 = DIRECTION ( 'NONE',  ( 0.000000000000000000, 0.1699069165076472487, 0.9854601157443478865 ) ) ;
#121 = ORIENTED_EDGE ( 'NONE', *, *, #10, .T. ) ;
#122 = LINE ( 'NONE', #785, #49 ) ;
#123 = EDGE_CURVE ( 'NONE', #8, #640, #501, .T. ) ;
#124 = ORIENTED_EDGE ( 'NONE', *, *, #656, .F. ) ;
#125 = VECTOR ( 'NONE', #655, 1.000000000000000000 ) ;
#126 = DIRECTION ( 'NONE',  ( 1.000000000000000000, -0.000000000000000000, -0.000000000000000000 ) ) ;
#127 = EDGE_CURVE ( 'NONE', #492, #50, #444, .T. ) ;
#128 = VECTOR ( 'NONE', #633, 1.000000000000000000 ) ;
#129 = ORIENTED_EDGE ( 'NONE', *, *, #482, .T. ) ;
#130 = LINE ( 'NONE', #239, #331 ) ;
#131 =( NAMED_UNIT ( * ) PLANE_ANGLE_UNIT ( ) SI_UNIT ( $, .RADIAN. ) );
#132 = LINE ( 'NONE', #142, #445 ) ;
#133 = CARTESIAN_POINT ( 'NONE',  ( -1.950000000000000178, -1.189999999999998392, -0.9600000000000001865 ) ) ;
#134 = VERTEX_POINT ( 'NONE', #639 ) ;
#135 = VECTOR ( 'NONE', #431, 1.000000000000000000 ) ;
#136 = CARTESIAN_POINT ( 'NONE',  ( -16.55000000000000071, 1.189999999999998392, -0.9600000000000001865 ) ) ;
#137 = VECTOR ( 'NONE', #173, 1.000000000000000000 ) ;
#138 = PLANE ( 'NONE',  #234 ) ;
#139 = DIRECTION ( 'NONE',  ( 1.000000000000000000, 2.520506326176030958E-16, 0.000000000000000000 ) ) ;
#140 = DIRECTION ( 'NONE',  ( 0.000000000000000000, 0.9854601157443477755, -0.1699069165076472210 ) ) ;
#141 = ORIENTED_EDGE ( 'NONE', *, *, #123, .T. ) ;
#142 = CARTESIAN_POINT ( 'NONE',  ( -18.50000000000000000, -1.190000000000001945, -0.9600000000000001865 ) ) ;
#143 = DIRECTION ( 'NONE',  ( -0.000000000000000000, -0.000000000000000000, -1.000000000000000000 ) ) ;
#144 = EDGE_CURVE ( 'NONE', #730, #607, #452, .T. ) ;
#145 = LINE ( 'NONE', #344, #51 ) ;
#146 = VECTOR ( 'NONE', #255, 1.000000000000000000 ) ;
#147 = CARTESIAN_POINT ( 'NONE',  ( -1.950000000000000178, 1.189999999999998392, -0.9600000000000001865 ) ) ;
#148 = PRODUCT_DEFINITION_FORMATION_WITH_SPECIFIED_SOURCE ( 'TUTTO', '', #563, .NOT_KNOWN. ) ;
#149 = EDGE_CURVE ( 'NONE', #730, #530, #681, .T. ) ;
#150 = EDGE_LOOP ( 'NONE', ( #55, #682, #790, #232 ) ) ;
#151 = VECTOR ( 'NONE', #260, 1.000000000000000000 ) ;
#152 = DIRECTION ( 'NONE',  ( -0.000000000000000000, 0.000000000000000000, -1.000000000000000000 ) ) ;
#153 = LINE ( 'NONE', #404, #400 ) ;
#154 = ORIENTED_EDGE ( 'NONE', *, *, #322, .F. ) ;
#155 = EDGE_LOOP ( 'NONE', ( #121, #359, #568, #520 ) ) ;
#156 = PLANE ( 'NONE',  #385 ) ;
#157 = CARTESIAN_POINT ( 'NONE',  ( -16.55000000000000071, 0.8000000000000000444, -0.9100000000000001421 ) ) ;
#158 = CARTESIAN_POINT ( 'NONE',  ( -2.350000000000000089, -0.8000000000000000444, -0.9100000000000001421 ) ) ;
#159 = EDGE_LOOP ( 'NONE', ( #610, #248, #11, #202 ) ) ;
#160 = PLANE ( 'NONE',  #555 ) ;
#161 = EDGE_CURVE ( 'NONE', #102, #363, #91, .T. ) ;
#162 = DIRECTION ( 'NONE',  ( -9.329605248950915154E-17, 1.000000000000000000, -0.000000000000000000 ) ) ;
#163 = AXIS2_PLACEMENT_3D ( 'NONE', #99, #537, #229 ) ;
#164 = AXIS2_PLACEMENT_3D ( 'NONE', #592, #37, #152 ) ;
#165 = ORIENTED_EDGE ( 'NONE', *, *, #340, .F. ) ;
#166 = ORIENTED_EDGE ( 'NONE', *, *, #427, .F. ) ;
#167 = CARTESIAN_POINT ( 'NONE',  ( -1.950000000000000178, -0.8000000000000000444, -0.9100000000000001421 ) ) ;
#168 = CLOSED_SHELL ( 'NONE', ( #270, #594, #676, #60, #711, #177, #716, #576, #107, #494, #689, #471, #297, #201, #100, #317, #466, #392, #669, #572, #560, #379, #307, #535, #698, #369 ) ) ;
#169 = DIRECTION ( 'NONE',  ( 0.000000000000000000, -0.9901138386947149206, -0.1402661271484180461 ) ) ;
#170 = ORIENTED_EDGE ( 'NONE', *, *, #197, .T. ) ;
#171 =( NAMED_UNIT ( * ) SI_UNIT ( $, .STERADIAN. ) SOLID_ANGLE_UNIT ( ) );
#172 = FACE_OUTER_BOUND ( 'NONE', #564, .T. ) ;
#173 = DIRECTION ( 'NONE',  ( 0.000000000000000000, -1.000000000000000000, -0.000000000000000000 ) ) ;
#174 = PLANE ( 'NONE',  #204 ) ;
#175 = VECTOR ( 'NONE', #565, 1.000000000000000000 ) ;
#176 = CARTESIAN_POINT ( 'NONE',  ( -1.950000000000000178, -0.2000000000000000111, -0.8250000000000000666 ) ) ;
#177 = ADVANCED_FACE ( 'NONE', ( #77 ), #138, .F. ) ;
#178 = ORIENTED_EDGE ( 'NONE', *, *, #726, .T. ) ;
#179 = DIRECTION ( 'NONE',  ( 0.000000000000000000, 0.000000000000000000, 1.000000000000000000 ) ) ;
#180 = LINE ( 'NONE', #368, #74 ) ;
#181 = VECTOR ( 'NONE', #88, 1.000000000000000000 ) ;
#182 = VERTEX_POINT ( 'NONE', #514 ) ;
#183 =( LENGTH_UNIT ( ) NAMED_UNIT ( * ) SI_UNIT ( $, .METRE. ) );
#184 = FACE_OUTER_BOUND ( 'NONE', #92, .T. ) ;
#185 = VERTEX_POINT ( 'NONE', #86 ) ;
#186 = PLANE ( 'NONE',  #604 ) ;
#187 = EDGE_CURVE ( 'NONE', #103, #530, #678, .T. ) ;
#188 = EDGE_LOOP ( 'NONE', ( #304, #326, #66, #46 ) ) ;
#189 = VECTOR ( 'NONE', #714, 1.000000000000000000 ) ;
#190 =( LENGTH_UNIT ( ) NAMED_UNIT ( * ) SI_UNIT ( $, .METRE. ) );
#191 = LINE ( 'NONE', #672, #671 ) ;
#192 = VECTOR ( 'NONE', #323, 1.000000000000000000 ) ;
#193 = ORIENTED_EDGE ( 'NONE', *, *, #388, .T. ) ;
#194 = LINE ( 'NONE', #441, #457 ) ;
#195 = DIRECTION ( 'NONE',  ( 0.000000000000000000, 0.9854601157443477755, 0.1699069165076472210 ) ) ;
#196 = ORIENTED_EDGE ( 'NONE', *, *, #440, .F. ) ;
#197 = EDGE_CURVE ( 'NONE', #453, #108, #21, .T. ) ;
#198 =( NAMED_UNIT ( * ) SI_UNIT ( $, .STERADIAN. ) SOLID_ANGLE_UNIT ( ) );
#199 = DIRECTION ( 'NONE',  ( 0.000000000000000000, 0.1699069165076472487, -0.9854601157443478865 ) ) ;
#200 = ORIENTED_EDGE ( 'NONE', *, *, #388, .F. ) ;
#201 = ADVANCED_FACE ( 'NONE', ( #24 ), #519, .F. ) ;
#202 = ORIENTED_EDGE ( 'NONE', *, *, #358, .T. ) ;
#203 = UNCERTAINTY_MEASURE_WITH_UNIT (LENGTH_MEASURE( 1.000000000000000082E-05 ), #190, 'distance_accuracy_value', 'NONE');
#204 = AXIS2_PLACEMENT_3D ( 'NONE', #481, #485, #550 ) ;
#205 = PRESENTATION_STYLE_ASSIGNMENT (( #267 ) ) ;
#206 = CARTESIAN_POINT ( 'NONE',  ( -16.55000000000000071, -1.189999999999998392, -0.9600000000000001865 ) ) ;
#207 = VERTEX_POINT ( 'NONE', #157 ) ;
#208 = VECTOR ( 'NONE', #685, 1.000000000000000222 ) ;
#209 = CARTESIAN_POINT ( 'NONE',  ( -2.350000000000000089, 1.189999999999998392, -0.9600000000000001865 ) ) ;
#210 = DIRECTION ( 'NONE',  ( 0.000000000000000000, -0.1699069165076472487, -0.9854601157443478865 ) ) ;
#211 = EDGE_LOOP ( 'NONE', ( #733, #124, #196, #295, #717, #600, #36, #666 ) ) ;
#212 = ORIENTED_EDGE ( 'NONE', *, *, #45, .F. ) ;
#213 = CARTESIAN_POINT ( 'NONE',  ( -1.950000000000000178, 1.189999999999998392, -0.9600000000000001865 ) ) ;
#214 = CARTESIAN_POINT ( 'NONE',  ( -2.220446049250313081E-16, 1.189999999999997726, -1.160000000000000142 ) ) ;
#215 = EDGE_CURVE ( 'NONE', #515, #185, #341, .T. ) ;
#216 = ORIENTED_EDGE ( 'NONE', *, *, #352, .T. ) ;
#217 = FACE_OUTER_BOUND ( 'NONE', #739, .T. ) ;
#218 = DIRECTION ( 'NONE',  ( 0.000000000000000000, 0.1402661271484180461, -0.9901138386947149206 ) ) ;
#219 = EDGE_CURVE ( 'NONE', #354, #637, #695, .T. ) ;
#220 = ORIENTED_EDGE ( 'NONE', *, *, #427, .T. ) ;
#221 = DIRECTION ( 'NONE',  ( 0.000000000000000000, -0.1402661271484180461, 0.9901138386947149206 ) ) ;
#222 = CARTESIAN_POINT ( 'NONE',  ( -2.350000000000000089, 0.2000000000000000111, -0.8250000000000000666 ) ) ;
#223 = DIRECTION ( 'NONE',  ( -0.000000000000000000, -1.000000000000000000, -0.000000000000000000 ) ) ;
#224 = EDGE_CURVE ( 'NONE', #479, #453, #533, .T. ) ;
#225 = EDGE_LOOP ( 'NONE', ( #426, #83, #516, #499 ) ) ;
#226 = DIRECTION ( 'NONE',  ( 0.000000000000000000, -0.1402661271484180461, -0.9901138386947149206 ) ) ;
#227 = CARTESIAN_POINT ( 'NONE',  ( -18.50000000000000000, 1.189999999999997504, -1.160000000000000142 ) ) ;
#228 = CARTESIAN_POINT ( 'NONE',  ( -16.55000000000000071, -0.8999999999999999112, -0.9100000000000001421 ) ) ;
#229 = DIRECTION ( 'NONE',  ( 0.000000000000000000, 0.000000000000000000, 1.000000000000000000 ) ) ;
#230 = VECTOR ( 'NONE', #428, 1.000000000000000000 ) ;
#231 = ORIENTED_EDGE ( 'NONE', *, *, #617, .T. ) ;
#232 = ORIENTED_EDGE ( 'NONE', *, *, #721, .T. ) ;
#233 = DIRECTION ( 'NONE',  ( 0.000000000000000000, -0.9854601157443477755, -0.1699069165076472210 ) ) ;
#234 = AXIS2_PLACEMENT_3D ( 'NONE', #325, #17, #625 ) ;
#235 = PLANE ( 'NONE',  #89 ) ;
#236 = EDGE_CURVE ( 'NONE', #707, #673, #346, .T. ) ;
#237 = VERTEX_POINT ( 'NONE', #772 ) ;
#238 = DIRECTION ( 'NONE',  ( 1.000000000000000000, -0.000000000000000000, -0.000000000000000000 ) ) ;
#239 = CARTESIAN_POINT ( 'NONE',  ( -16.55000000000000071, 0.8000000000000000444, -0.9100000000000001421 ) ) ;
#240 = EDGE_CURVE ( 'NONE', #111, #469, #705, .T. ) ;
#241 = ORIENTED_EDGE ( 'NONE', *, *, #487, .F. ) ;
#242 = LINE ( 'NONE', #484, #775 ) ;
#243 = CARTESIAN_POINT ( 'NONE',  ( 0.000000000000000000, -1.189999999999997282, -1.160000000000000142 ) ) ;
#244 = ORIENTED_EDGE ( 'NONE', *, *, #770, .T. ) ;
#245 = EDGE_CURVE ( 'NONE', #590, #41, #408, .T. ) ;
#246 = CARTESIAN_POINT ( 'NONE',  ( -16.15000000000000213, -0.8999999999999999112, -0.9100000000000001421 ) ) ;
#247 = CARTESIAN_POINT ( 'NONE',  ( -1.950000000000000178, -0.8999999999999999112, -0.9100000000000001421 ) ) ;
#248 = ORIENTED_EDGE ( 'NONE', *, *, #215, .F. ) ;
#249 = EDGE_CURVE ( 'NONE', #18, #663, #153, .T. ) ;
#250 = FACE_OUTER_BOUND ( 'NONE', #409, .T. ) ;
#251 = LINE ( 'NONE', #298, #345 ) ;
#252 = ORIENTED_EDGE ( 'NONE', *, *, #19, .F. ) ;
#253 = ORIENTED_EDGE ( 'NONE', *, *, #498, .F. ) ;
#254 = SURFACE_STYLE_USAGE ( .BOTH. , #360 ) ;
#255 = DIRECTION ( 'NONE',  ( -0.000000000000000000, -0.000000000000000000, -1.000000000000000000 ) ) ;
#256 = ORIENTED_EDGE ( 'NONE', *, *, #382, .F. ) ;
#257 = AXIS2_PLACEMENT_3D ( 'NONE', #629, #744, #394 ) ;
#258 = DIRECTION ( 'NONE',  ( -2.520506326176030958E-16, 1.000000000000000000, 0.000000000000000000 ) ) ;
#259 =( LENGTH_UNIT ( ) NAMED_UNIT ( * ) SI_UNIT ( $, .METRE. ) );
#260 = DIRECTION ( 'NONE',  ( 1.000000000000000000, -0.000000000000000000, -0.000000000000000000 ) ) ;
#261 = VERTEX_POINT ( 'NONE', #222 ) ;
#262 = FACE_OUTER_BOUND ( 'NONE', #437, .T. ) ;
#263 = CARTESIAN_POINT ( 'NONE',  ( -18.50000000000000000, -1.190000000000001945, -0.9600000000000001865 ) ) ;
#264 = ORIENTED_EDGE ( 'NONE', *, *, #330, .F. ) ;
#265 = STYLED_ITEM ( 'NONE', ( #205 ), #491 ) ;
#266 = STYLED_ITEM ( 'NONE', ( #112 ), #687 ) ;
#267 = SURFACE_STYLE_USAGE ( .BOTH. , #14 ) ;
#268 = DIRECTION ( 'NONE',  ( -1.000000000000000000, -1.200241107702872002E-17, -0.000000000000000000 ) ) ;
#269 = AXIS2_PLACEMENT_3D ( 'NONE', #745, #258, #15 ) ;
#270 = ADVANCED_FACE ( 'NONE', ( #710 ), #599, .T. ) ;
#271 = CARTESIAN_POINT ( 'NONE',  ( -1.950000000000000178, 1.189999999999998392, -0.9600000000000001865 ) ) ;
#272 = CARTESIAN_POINT ( 'NONE',  ( -18.50000000000000000, -1.190000000000001945, -0.9600000000000001865 ) ) ;
#273 = ORIENTED_EDGE ( 'NONE', *, *, #187, .F. ) ;
#274 = CARTESIAN_POINT ( 'NONE',  ( -2.350000000000001421, 1.189999999999997726, -0.9600000000000001865 ) ) ;
#275 = LINE ( 'NONE', #620, #731 ) ;
#276 = LINE ( 'NONE', #405, #542 ) ;
#277 = LINE ( 'NONE', #288, #509 ) ;
#278 = VECTOR ( 'NONE', #526, 1.000000000000000222 ) ;
#279 = DIRECTION ( 'NONE',  ( 0.000000000000000000, 0.1402661271484180461, 0.9901138386947149206 ) ) ;
#280 = EDGE_CURVE ( 'NONE', #207, #312, #459, .T. ) ;
#281 = LINE ( 'NONE', #176, #181 ) ;
#282 = ORIENTED_EDGE ( 'NONE', *, *, #434, .F. ) ;
#283 = VECTOR ( 'NONE', #384, 1.000000000000000000 ) ;
#284 = CARTESIAN_POINT ( 'NONE',  ( -16.55000000000000071, 1.189999999999998392, -0.9600000000000001865 ) ) ;
#285 = DIRECTION ( 'NONE',  ( -1.000000000000000000, 0.000000000000000000, -0.000000000000000000 ) ) ;
#286 = LINE ( 'NONE', #158, #78 ) ;
#287 = ORIENTED_EDGE ( 'NONE', *, *, #582, .T. ) ;
#288 = CARTESIAN_POINT ( 'NONE',  ( -18.50000000000000000, 1.189999999999997504, -0.9600000000000001865 ) ) ;
#289 = CARTESIAN_POINT ( 'NONE',  ( -1.950000000000000178, -0.8000000000000000444, -0.9100000000000001421 ) ) ;
#290 = EDGE_LOOP ( 'NONE', ( #531, #118, #786, #780 ) ) ;
#291 = VERTEX_POINT ( 'NONE', #588 ) ;
#292 = DIRECTION ( 'NONE',  ( 0.000000000000000000, -0.9901138386947148096, -0.1402661271484180183 ) ) ;
#293 = DIRECTION ( 'NONE',  ( -1.000000000000000000, -1.200241107702872002E-17, -0.000000000000000000 ) ) ;
#294 = VECTOR ( 'NONE', #324, 1.000000000000000000 ) ;
#295 = ORIENTED_EDGE ( 'NONE', *, *, #215, .T. ) ;
#296 = PLANE ( 'NONE',  #472 ) ;
#297 = ADVANCED_FACE ( 'NONE', ( #356 ), #43, .F. ) ;
#298 = CARTESIAN_POINT ( 'NONE',  ( -16.15000000000000213, 1.189999999999998392, -0.9600000000000001865 ) ) ;
#299 = ORIENTED_EDGE ( 'NONE', *, *, #418, .T. ) ;
#300 = FILL_AREA_STYLE_COLOUR ( '', #747 ) ;
#301 = FACE_OUTER_BOUND ( 'NONE', #159, .T. ) ;
#302 = CARTESIAN_POINT ( 'NONE',  ( -2.350000000000001421, -1.189999999999997948, -0.9600000000000001865 ) ) ;
#303 = EDGE_CURVE ( 'NONE', #237, #378, #715, .T. ) ;
#304 = ORIENTED_EDGE ( 'NONE', *, *, #703, .F. ) ;
#305 = CARTESIAN_POINT ( 'NONE',  ( -18.50000000000000000, -1.190000000000001945, -1.160000000000000142 ) ) ;
#306 = LINE ( 'NONE', #376, #135 ) ;
#307 = ADVANCED_FACE ( 'NONE', ( #172 ), #235, .T. ) ;
#308 = VECTOR ( 'NONE', #350, 1.000000000000000000 ) ;
#309 = VECTOR ( 'NONE', #605, 1.000000000000000222 ) ;
#310 = ORIENTED_EDGE ( 'NONE', *, *, #33, .T. ) ;
#311 = DIRECTION ( 'NONE',  ( 0.000000000000000000, -0.9854601157443477755, 0.1699069165076472210 ) ) ;
#312 = VERTEX_POINT ( 'NONE', #464 ) ;
#313 = DIRECTION ( 'NONE',  ( -1.000000000000000000, -9.329605248950916386E-17, 0.000000000000000000 ) ) ;
#314 = CARTESIAN_POINT ( 'NONE',  ( -16.55000000000000071, 1.189999999999998392, -0.9600000000000001865 ) ) ;
#315 = ORIENTED_EDGE ( 'NONE', *, *, #529, .T. ) ;
#316 = PRODUCT_CONTEXT ( 'NONE', #371, 'mechanical' ) ;
#317 = ADVANCED_FACE ( 'NONE', ( #700 ), #650, .F. ) ;
#318 = FILL_AREA_STYLE ('',( #381 ) ) ;
#319 = EDGE_LOOP ( 'NONE', ( #244, #347, #13, #370, #596, #115, #764, #769 ) ) ;
#320 = VECTOR ( 'NONE', #677, 1.000000000000000000 ) ;
#321 = LINE ( 'NONE', #740, #320 ) ;
#322 = EDGE_CURVE ( 'NONE', #673, #50, #422, .T. ) ;
#323 = DIRECTION ( 'NONE',  ( -0.000000000000000000, -0.000000000000000000, -1.000000000000000000 ) ) ;
#324 = DIRECTION ( 'NONE',  ( -1.000000000000000000, -0.000000000000000000, -0.000000000000000000 ) ) ;
#325 = CARTESIAN_POINT ( 'NONE',  ( -18.50000000000000000, 1.189999999999997504, -0.9600000000000001865 ) ) ;
#326 = ORIENTED_EDGE ( 'NONE', *, *, #721, .F. ) ;
#327 = EDGE_LOOP ( 'NONE', ( #315, #465, #415, #310, #456, #623, #580, #393 ) ) ;
#328 = DIRECTION ( 'NONE',  ( 1.000000000000000000, 2.520506326176030958E-16, 0.000000000000000000 ) ) ;
#329 = ORIENTED_EDGE ( 'NONE', *, *, #224, .T. ) ;
#330 = EDGE_CURVE ( 'NONE', #432, #111, #767, .T. ) ;
#331 = VECTOR ( 'NONE', #606, 1.000000000000000000 ) ;
#332 = LINE ( 'NONE', #577, #278 ) ;
#333 = CARTESIAN_POINT ( 'NONE',  ( -16.55000000000000071, -0.8999999999999999112, -0.9100000000000001421 ) ) ;
#334 = ORIENTED_EDGE ( 'NONE', *, *, #240, .F. ) ;
#335 = DIRECTION ( 'NONE',  ( 0.000000000000000000, 1.000000000000000000, 0.000000000000000000 ) ) ;
#336 = DIRECTION ( 'NONE',  ( 0.000000000000000000, -0.9901138386947149206, -0.1402661271484180461 ) ) ;
#337 = LINE ( 'NONE', #585, #528 ) ;
#338 = ORIENTED_EDGE ( 'NONE', *, *, #127, .T. ) ;
#339 = CARTESIAN_POINT ( 'NONE',  ( -16.55000000000000071, -0.2000000000000000111, -0.8250000000000000666 ) ) ;
#340 = EDGE_CURVE ( 'NONE', #103, #374, #28, .T. ) ;
#341 = LINE ( 'NONE', #541, #579 ) ;
#342 = ORIENTED_EDGE ( 'NONE', *, *, #679, .F. ) ;
#343 = ORIENTED_EDGE ( 'NONE', *, *, #280, .F. ) ;
#344 = CARTESIAN_POINT ( 'NONE',  ( -16.55000000000000071, -1.189999999999998392, -0.9600000000000001865 ) ) ;
#345 = VECTOR ( 'NONE', #311, 1.000000000000000222 ) ;
#346 = LINE ( 'NONE', #522, #105 ) ;
#347 = ORIENTED_EDGE ( 'NONE', *, *, #402, .F. ) ;
#348 = ORIENTED_EDGE ( 'NONE', *, *, #636, .T. ) ;
#349 = VECTOR ( 'NONE', #646, 1.000000000000000000 ) ;
#350 = DIRECTION ( 'NONE',  ( 0.000000000000000000, -1.000000000000000000, -0.000000000000000000 ) ) ;
#351 = DIRECTION ( 'NONE',  ( 0.000000000000000000, -0.9901138386947149206, 0.1402661271484180461 ) ) ;
#352 = EDGE_CURVE ( 'NONE', #707, #640, #275, .T. ) ;
#353 = ORIENTED_EDGE ( 'NONE', *, *, #506, .F. ) ;
#354 = VERTEX_POINT ( 'NONE', #433 ) ;
#355 = DIRECTION ( 'NONE',  ( 0.000000000000000000, -0.1699069165076472487, 0.9854601157443478865 ) ) ;
#356 = FACE_OUTER_BOUND ( 'NONE', #155, .T. ) ;
#357 = CARTESIAN_POINT ( 'NONE',  ( -2.350000000000000089, -0.8000000000000000444, -0.9100000000000001421 ) ) ;
#358 = EDGE_CURVE ( 'NONE', #291, #483, #191, .T. ) ;
#359 = ORIENTED_EDGE ( 'NONE', *, *, #636, .F. ) ;
#360 = SURFACE_SIDE_STYLE ('',( #5 ) ) ;
#361 = CARTESIAN_POINT ( 'NONE',  ( -2.220446049250313081E-16, 1.189999999999997726, -1.160000000000000142 ) ) ;
#362 = VECTOR ( 'NONE', #570, 1.000000000000000222 ) ;
#363 = VERTEX_POINT ( 'NONE', #732 ) ;
#364 = LINE ( 'NONE', #53, #309 ) ;
#365 = CARTESIAN_POINT ( 'NONE',  ( -16.55000000000000071, 0.2000000000000000111, -0.8250000000000000666 ) ) ;
#366 = ORIENTED_EDGE ( 'NONE', *, *, #19, .T. ) ;
#367 = DIRECTION ( 'NONE',  ( 1.000000000000000000, 0.000000000000000000, -0.000000000000000000 ) ) ;
#368 = CARTESIAN_POINT ( 'NONE',  ( -18.50000000000000000, 1.189999999999997504, -0.9600000000000001865 ) ) ;
#369 = ADVANCED_FACE ( 'NONE', ( #546 ), #174, .T. ) ;
#370 = ORIENTED_EDGE ( 'NONE', *, *, #322, .T. ) ;
#371 = APPLICATION_CONTEXT ( 'automotive_design' ) ;
#372 = DIRECTION ( 'NONE',  ( 0.000000000000000000, 0.000000000000000000, 1.000000000000000000 ) ) ;
#373 = PRESENTATION_LAYER_ASSIGNMENT (  '', '', ( #266 ) ) ;
#374 = VERTEX_POINT ( 'NONE', #609 ) ;
#375 = FILL_AREA_STYLE ('',( #300 ) ) ;
#376 = CARTESIAN_POINT ( 'NONE',  ( -2.350000000000000089, 0.8999999999999999112, -0.9100000000000001421 ) ) ;
#377 = VECTOR ( 'NONE', #575, 1.000000000000000000 ) ;
#378 = VERTEX_POINT ( 'NONE', #668 ) ;
#379 = ADVANCED_FACE ( 'NONE', ( #424 ), #615, .T. ) ;
#380 =( NAMED_UNIT ( * ) SI_UNIT ( $, .STERADIAN. ) SOLID_ANGLE_UNIT ( ) );
#381 = FILL_AREA_STYLE_COLOUR ( '', #759 ) ;
#382 = EDGE_CURVE ( 'NONE', #469, #607, #662, .T. ) ;
#383 = PLANE ( 'NONE',  #538 ) ;
#384 = DIRECTION ( 'NONE',  ( 0.000000000000000000, -0.9901138386947149206, 0.1402661271484180461 ) ) ;
#385 = AXIS2_PLACEMENT_3D ( 'NONE', #94, #654, #477 ) ;
#386 =( GEOMETRIC_REPRESENTATION_CONTEXT ( 3 ) GLOBAL_UNCERTAINTY_ASSIGNED_CONTEXT ( ( #203 ) ) GLOBAL_UNIT_ASSIGNED_CONTEXT ( ( #190, #131, #380 ) ) REPRESENTATION_CONTEXT ( 'NONE', 'WORKASPACE' ) );
#387 = CARTESIAN_POINT ( 'NONE',  ( -16.15000000000000213, -1.190000000000001279, -0.9600000000000001865 ) ) ;
#388 = EDGE_CURVE ( 'NONE', #41, #618, #306, .T. ) ;
#389 = VECTOR ( 'NONE', #752, 1.000000000000000000 ) ;
#390 = PLANE ( 'NONE',  #257 ) ;
#391 = CARTESIAN_POINT ( 'NONE',  ( -2.350000000000000089, -0.8999999999999999112, -0.9100000000000001421 ) ) ;
#392 = ADVANCED_FACE ( 'NONE', ( #301 ), #558, .T. ) ;
#393 = ORIENTED_EDGE ( 'NONE', *, *, #27, .T. ) ;
#394 = DIRECTION ( 'NONE',  ( 1.000000000000000000, 0.000000000000000000, -0.000000000000000000 ) ) ;
#395 = CARTESIAN_POINT ( 'NONE',  ( -16.15000000000000213, -0.8000000000000000444, -0.9100000000000001421 ) ) ;
#396 = VECTOR ( 'NONE', #723, 1.000000000000000000 ) ;
#397 = CARTESIAN_POINT ( 'NONE',  ( -1.949999999999999289, -1.189999999999997726, -0.9600000000000001865 ) ) ;
#398 = CARTESIAN_POINT ( 'NONE',  ( -16.55000000000000071, -0.8999999999999999112, -0.9100000000000001421 ) ) ;
#399 = VECTOR ( 'NONE', #328, 1.000000000000000000 ) ;
#400 = VECTOR ( 'NONE', #351, 1.000000000000000000 ) ;
#401 = VERTEX_POINT ( 'NONE', #365 ) ;
#402 = EDGE_CURVE ( 'NONE', #479, #432, #675, .T. ) ;
#403 = FACE_OUTER_BOUND ( 'NONE', #188, .T. ) ;
#404 = CARTESIAN_POINT ( 'NONE',  ( -1.950000000000000178, 0.8000000000000000444, -0.9100000000000001421 ) ) ;
#405 = CARTESIAN_POINT ( 'NONE',  ( -1.950000000000000178, -0.2000000000000000111, -0.8250000000000000666 ) ) ;
#406 = EDGE_CURVE ( 'NONE', #590, #185, #122, .T. ) ;
#407 = CARTESIAN_POINT ( 'NONE',  ( -16.55000000000000071, -0.8000000000000000444, -0.9100000000000001421 ) ) ;
#408 = LINE ( 'NONE', #417, #439 ) ;
#409 = EDGE_LOOP ( 'NONE', ( #96, #30, #329, #170 ) ) ;
#410 = VECTOR ( 'NONE', #162, 1.000000000000000000 ) ;
#411 = DIRECTION ( 'NONE',  ( 0.000000000000000000, 0.9901138386947148096, -0.1402661271484180183 ) ) ;
#412 = APPLICATION_CONTEXT ( 'automotive_design' ) ;
#413 = VECTOR ( 'NONE', #771, 1.000000000000000000 ) ;
#414 = CARTESIAN_POINT ( 'NONE',  ( -16.55000000000000071, -0.8999999999999999112, -0.9100000000000001421 ) ) ;
#415 = ORIENTED_EDGE ( 'NONE', *, *, #249, .T. ) ;
#416 = PLANE ( 'NONE',  #486 ) ;
#417 = CARTESIAN_POINT ( 'NONE',  ( -2.350000000000000089, 1.189999999999998392, -0.9600000000000001865 ) ) ;
#418 = EDGE_CURVE ( 'NONE', #185, #483, #251, .T. ) ;
#419 = CARTESIAN_POINT ( 'NONE',  ( -16.55000000000000071, 1.189999999999998392, -0.9600000000000001865 ) ) ;
#420 = EDGE_LOOP ( 'NONE', ( #697, #342, #273, #496, #73, #4, #166, #475 ) ) ;
#421 = CARTESIAN_POINT ( 'NONE',  ( -1.950000000000000178, -0.8999999999999999112, -0.9100000000000001421 ) ) ;
#422 = LINE ( 'NONE', #39, #614 ) ;
#423 = DIRECTION ( 'NONE',  ( 1.000000000000000000, -0.000000000000000000, -0.000000000000000000 ) ) ;
#424 = FACE_OUTER_BOUND ( 'NONE', #652, .T. ) ;
#425 = AXIS2_PLACEMENT_3D ( 'NONE', #314, #120, #117 ) ;
#426 = ORIENTED_EDGE ( 'NONE', *, *, #330, .T. ) ;
#427 = EDGE_CURVE ( 'NONE', #207, #401, #130, .T. ) ;
#428 = DIRECTION ( 'NONE',  ( 0.000000000000000000, -1.000000000000000000, -0.000000000000000000 ) ) ;
#429 = DIRECTION ( 'NONE',  ( -1.000000000000000000, -0.000000000000000000, -0.000000000000000000 ) ) ;
#430 = ORIENTED_EDGE ( 'NONE', *, *, #161, .T. ) ;
#431 = DIRECTION ( 'NONE',  ( 0.000000000000000000, -1.000000000000000000, 0.000000000000000000 ) ) ;
#432 = VERTEX_POINT ( 'NONE', #243 ) ;
#433 = CARTESIAN_POINT ( 'NONE',  ( -1.950000000000000178, -0.2000000000000000111, -0.8250000000000000666 ) ) ;
#434 = EDGE_CURVE ( 'NONE', #548, #730, #7, .T. ) ;
#435 = VECTOR ( 'NONE', #54, 1.000000000000000000 ) ;
#436 = AXIS2_PLACEMENT_3D ( 'NONE', #47, #355, #233 ) ;
#437 = EDGE_LOOP ( 'NONE', ( #241, #635, #287, #61 ) ) ;
#438 = DIRECTION ( 'NONE',  ( 1.000000000000000000, 0.000000000000000000, -0.000000000000000000 ) ) ;
#439 = VECTOR ( 'NONE', #110, 1.000000000000000222 ) ;
#440 = EDGE_CURVE ( 'NONE', #515, #548, #180, .T. ) ;
#441 = CARTESIAN_POINT ( 'NONE',  ( -16.15000000000000213, 0.8999999999999999112, -0.9100000000000001421 ) ) ;
#442 = LINE ( 'NONE', #333, #377 ) ;
#443 = DIRECTION ( 'NONE',  ( -1.000000000000000000, 0.000000000000000000, -0.000000000000000000 ) ) ;
#444 = LINE ( 'NONE', #272, #128 ) ;
#445 = VECTOR ( 'NONE', #139, 1.000000000000000000 ) ;
#446 = AXIS2_PLACEMENT_3D ( 'NONE', #569, #631, #674 ) ;
#447 = EDGE_LOOP ( 'NONE', ( #774, #338, #713, #621 ) ) ;
#448 = EDGE_CURVE ( 'NONE', #18, #618, #69, .T. ) ;
#449 = LINE ( 'NONE', #271, #175 ) ;
#450 = FACE_OUTER_BOUND ( 'NONE', #720, .T. ) ;
#451 = EDGE_LOOP ( 'NONE', ( #765, #165, #725, #552 ) ) ;
#452 = LINE ( 'NONE', #737, #651 ) ;
#453 = VERTEX_POINT ( 'NONE', #495 ) ;
#454 = LINE ( 'NONE', #209, #692 ) ;
#455 = CARTESIAN_POINT ( 'NONE',  ( -1.950000000000000178, -0.8999999999999999112, -0.9100000000000001421 ) ) ;
#456 = ORIENTED_EDGE ( 'NONE', *, *, #219, .T. ) ;
#457 = VECTOR ( 'NONE', #23, 1.000000000000000000 ) ;
#458 = LINE ( 'NONE', #167, #413 ) ;
#459 = LINE ( 'NONE', #95, #12 ) ;
#460 = EDGE_CURVE ( 'NONE', #637, #707, #788, .T. ) ;
#461 = VECTOR ( 'NONE', #169, 1.000000000000000000 ) ;
#462 = ORIENTED_EDGE ( 'NONE', *, *, #656, .T. ) ;
#463 = PLANE ( 'NONE',  #164 ) ;
#464 = CARTESIAN_POINT ( 'NONE',  ( -16.15000000000000213, 0.8000000000000000444, -0.9100000000000001421 ) ) ;
#465 = ORIENTED_EDGE ( 'NONE', *, *, #778, .T. ) ;
#466 = ADVANCED_FACE ( 'NONE', ( #184 ), #186, .T. ) ;
#467 = FACE_OUTER_BOUND ( 'NONE', #451, .T. ) ;
#468 = DIRECTION ( 'NONE',  ( 0.000000000000000000, 0.000000000000000000, -1.000000000000000000 ) ) ;
#469 = VERTEX_POINT ( 'NONE', #727 ) ;
#470 = DIRECTION ( 'NONE',  ( 0.000000000000000000, 1.000000000000000000, 0.000000000000000000 ) ) ;
#471 = ADVANCED_FACE ( 'NONE', ( #729 ), #75, .F. ) ;
#472 = AXIS2_PLACEMENT_3D ( 'NONE', #611, #313, #619 ) ;
#473 = CARTESIAN_POINT ( 'NONE',  ( 0.000000000000000000, 0.000000000000000000, -0.9600000000000001865 ) ) ;
#474 = LINE ( 'NONE', #419, #38 ) ;
#475 = ORIENTED_EDGE ( 'NONE', *, *, #582, .F. ) ;
#476 = AXIS2_PLACEMENT_3D ( 'NONE', #455, #468, #285 ) ;
#477 = DIRECTION ( 'NONE',  ( 1.000000000000000000, 0.000000000000000000, 0.000000000000000000 ) ) ;
#478 = CARTESIAN_POINT ( 'NONE',  ( -16.55000000000000071, 0.8000000000000000444, -0.9100000000000001421 ) ) ;
#479 = VERTEX_POINT ( 'NONE', #72 ) ;
#480 = CARTESIAN_POINT ( 'NONE',  ( -18.50000000000000000, -1.190000000000001945, -0.9600000000000001865 ) ) ;
#481 = CARTESIAN_POINT ( 'NONE',  ( -16.15000000000000213, 0.000000000000000000, 0.000000000000000000 ) ) ;
#482 = EDGE_CURVE ( 'NONE', #108, #590, #449, .T. ) ;
#483 = VERTEX_POINT ( 'NONE', #684 ) ;
#484 = CARTESIAN_POINT ( 'NONE',  ( -16.55000000000000071, -0.2000000000000000111, -0.8250000000000000666 ) ) ;
#485 = DIRECTION ( 'NONE',  ( 1.000000000000000000, 0.000000000000000000, -0.000000000000000000 ) ) ;
#486 = AXIS2_PLACEMENT_3D ( 'NONE', #228, #598, #699 ) ;
#487 = EDGE_CURVE ( 'NONE', #483, #312, #194, .T. ) ;
#488 = ORIENTED_EDGE ( 'NONE', *, *, #460, .F. ) ;
#489 = CARTESIAN_POINT ( 'NONE',  ( -16.55000000000000071, 0.000000000000000000, 0.000000000000000000 ) ) ;
#490 = DIRECTION ( 'NONE',  ( -1.000000000000000000, 0.000000000000000000, 0.000000000000000000 ) ) ;
#491 = MANIFOLD_SOLID_BREP ( 'Specchia1', #168 ) ;
#492 = VERTEX_POINT ( 'NONE', #387 ) ;
#493 = DIRECTION ( 'NONE',  ( -0.000000000000000000, 0.000000000000000000, 1.000000000000000000 ) ) ;
#494 = ADVANCED_FACE ( 'NONE', ( #500 ), #383, .F. ) ;
#495 = CARTESIAN_POINT ( 'NONE',  ( -2.220446049250313081E-16, 1.189999999999997726, -0.9600000000000001865 ) ) ;
#496 = ORIENTED_EDGE ( 'NONE', *, *, #71, .F. ) ;
#497 = DIRECTION ( 'NONE',  ( -1.000000000000000000, -1.200241107702872002E-17, -0.000000000000000000 ) ) ;
#498 = EDGE_CURVE ( 'NONE', #134, #41, #321, .T. ) ;
#499 = ORIENTED_EDGE ( 'NONE', *, *, #402, .T. ) ;
#500 = FACE_OUTER_BOUND ( 'NONE', #761, .T. ) ;
#501 = LINE ( 'NONE', #391, #389 ) ;
#502 = EDGE_LOOP ( 'NONE', ( #141, #543, #488, #348 ) ) ;
#503 = DIRECTION ( 'NONE',  ( 0.000000000000000000, 0.000000000000000000, -1.000000000000000000 ) ) ;
#504 = FACE_OUTER_BOUND ( 'NONE', #319, .T. ) ;
#505 = ORIENTED_EDGE ( 'NONE', *, *, #743, .T. ) ;
#506 = EDGE_CURVE ( 'NONE', #312, #728, #626, .T. ) ;
#507 = PRODUCT_DEFINITION_CONTEXT ( 'detailed design', #412, 'design' ) ;
#508 = CARTESIAN_POINT ( 'NONE',  ( -2.350000000000000089, 0.8000000000000000444, -0.9100000000000001421 ) ) ;
#509 = VECTOR ( 'NONE', #762, 1.000000000000000000 ) ;
#510 = EDGE_LOOP ( 'NONE', ( #366, #212, #783, #760 ) ) ;
#511 =( GEOMETRIC_REPRESENTATION_CONTEXT ( 3 ) GLOBAL_UNCERTAINTY_ASSIGNED_CONTEXT ( ( #581 ) ) GLOBAL_UNIT_ASSIGNED_CONTEXT ( ( #183, #667, #171 ) ) REPRESENTATION_CONTEXT ( 'NONE', 'WORKASPACE' ) );
#512 = APPLICATION_PROTOCOL_DEFINITION ( 'draft international standard', 'automotive_design', 1998, #412 ) ;
#513 = DIRECTION ( 'NONE',  ( 0.000000000000000000, 0.000000000000000000, -1.000000000000000000 ) ) ;
#514 = CARTESIAN_POINT ( 'NONE',  ( -2.350000000000000089, -0.2000000000000000111, -0.8250000000000000666 ) ) ;
#515 = VERTEX_POINT ( 'NONE', #136 ) ;
#516 = ORIENTED_EDGE ( 'NONE', *, *, #224, .F. ) ;
#517 = SURFACE_STYLE_FILL_AREA ( #318 ) ;
#518 = EDGE_CURVE ( 'NONE', #673, #479, #132, .T. ) ;
#519 = PLANE ( 'NONE',  #476 ) ;
#520 = ORIENTED_EDGE ( 'NONE', *, *, #45, .T. ) ;
#521 = FACE_OUTER_BOUND ( 'NONE', #150, .T. ) ;
#522 = CARTESIAN_POINT ( 'NONE',  ( -1.950000000000000178, -1.189999999999998392, -0.9600000000000001865 ) ) ;
#523 = EDGE_CURVE ( 'NONE', #663, #261, #79, .T. ) ;
#524 = ORIENTED_EDGE ( 'NONE', *, *, #551, .T. ) ;
#525 = MECHANICAL_DESIGN_GEOMETRIC_PRESENTATION_REPRESENTATION (  '', ( #265 ), #101 ) ;
#526 = DIRECTION ( 'NONE',  ( 0.000000000000000000, -0.9854601157443477755, -0.1699069165076472210 ) ) ;
#527 = DIRECTION ( 'NONE',  ( 0.000000000000000000, -0.9901138386947148096, 0.1402661271484180183 ) ) ;
#528 = VECTOR ( 'NONE', #29, 1.000000000000000000 ) ;
#529 = EDGE_CURVE ( 'NONE', #108, #134, #20, .T. ) ;
#530 = VERTEX_POINT ( 'NONE', #16 ) ;
#531 = ORIENTED_EDGE ( 'NONE', *, *, #67, .T. ) ;
#532 = CARTESIAN_POINT ( 'NONE',  ( -1.950000000000000178, 0.8000000000000000444, -0.9100000000000001421 ) ) ;
#533 = LINE ( 'NONE', #642, #349 ) ;
#534 = CARTESIAN_POINT ( 'NONE',  ( -1.950000000000000178, 0.8000000000000000444, -0.9100000000000001421 ) ) ;
#535 = ADVANCED_FACE ( 'NONE', ( #262 ), #390, .T. ) ;
#536 = CARTESIAN_POINT ( 'NONE',  ( 0.000000000000000000, 0.000000000000000000, -0.9600000000000001865 ) ) ;
#537 = DIRECTION ( 'NONE',  ( -1.000000000000000000, 0.000000000000000000, 0.000000000000000000 ) ) ;
#538 = AXIS2_PLACEMENT_3D ( 'NONE', #736, #503, #443 ) ;
#539 = DIRECTION ( 'NONE',  ( 0.000000000000000000, -1.000000000000000000, 0.000000000000000000 ) ) ;
#540 = VECTOR ( 'NONE', #238, 1.000000000000000000 ) ;
#541 = CARTESIAN_POINT ( 'NONE',  ( -16.55000000000000071, 1.189999999999998392, -0.9600000000000001865 ) ) ;
#542 = VECTOR ( 'NONE', #643, 1.000000000000000000 ) ;
#543 = ORIENTED_EDGE ( 'NONE', *, *, #352, .F. ) ;
#544 = AXIS2_PLACEMENT_3D ( 'NONE', #289, #218, #779 ) ;
#545 = LINE ( 'NONE', #661, #230 ) ;
#546 = FACE_OUTER_BOUND ( 'NONE', #742, .T. ) ;
#547 = EDGE_CURVE ( 'NONE', #50, #590, #454, .T. ) ;
#548 = VERTEX_POINT ( 'NONE', #84 ) ;
#549 = CARTESIAN_POINT ( 'NONE',  ( 0.000000000000000000, 0.000000000000000000, -0.9600000000000001865 ) ) ;
#550 = DIRECTION ( 'NONE',  ( 0.000000000000000000, 0.000000000000000000, 1.000000000000000000 ) ) ;
#551 = EDGE_CURVE ( 'NONE', #374, #492, #332, .T. ) ;
#552 = ORIENTED_EDGE ( 'NONE', *, *, #659, .T. ) ;
#553 = LINE ( 'NONE', #116, #189 ) ;
#554 = CARTESIAN_POINT ( 'NONE',  ( -18.50000000000000000, 1.189999999999997504, -0.9600000000000001865 ) ) ;
#555 = AXIS2_PLACEMENT_3D ( 'NONE', #407, #221, #292 ) ;
#556 = ORIENTED_EDGE ( 'NONE', *, *, #245, .F. ) ;
#557 = PLANE ( 'NONE',  #64 ) ;
#558 = PLANE ( 'NONE',  #425 ) ;
#559 = ORIENTED_EDGE ( 'NONE', *, *, #93, .F. ) ;
#560 = ADVANCED_FACE ( 'NONE', ( #521 ), #160, .T. ) ;
#561 = APPLICATION_PROTOCOL_DEFINITION ( 'draft international standard', 'automotive_design', 1998, #371 ) ;
#562 = DIRECTION ( 'NONE',  ( -1.000000000000000000, -1.200241107702872002E-17, -0.000000000000000000 ) ) ;
#563 = PRODUCT ( 'WagonPlane_60ft_LessDetailed', 'WagonPlane_60ft_LessDetailed', '', ( #316 ) ) ;
#564 = EDGE_LOOP ( 'NONE', ( #353, #343, #220, #686 ) ) ;
#565 = DIRECTION ( 'NONE',  ( -1.000000000000000000, -0.000000000000000000, -0.000000000000000000 ) ) ;
#566 = CARTESIAN_POINT ( 'NONE',  ( -1.950000000000000178, -0.2000000000000000111, -0.8250000000000000666 ) ) ;
#567 = PLANE ( 'NONE',  #269 ) ;
#568 = ORIENTED_EDGE ( 'NONE', *, *, #219, .F. ) ;
#569 = CARTESIAN_POINT ( 'NONE',  ( 0.000000000000000000, 0.000000000000000000, 0.000000000000000000 ) ) ;
#570 = DIRECTION ( 'NONE',  ( 0.000000000000000000, -0.9854601157443477755, 0.1699069165076472210 ) ) ;
#571 = CARTESIAN_POINT ( 'NONE',  ( -2.220446049250313081E-16, 1.189999999999997726, -0.9600000000000001865 ) ) ;
#572 = ADVANCED_FACE ( 'NONE', ( #403 ), #416, .T. ) ;
#573 = ORIENTED_EDGE ( 'NONE', *, *, #382, .T. ) ;
#574 = ORIENTED_EDGE ( 'NONE', *, *, #703, .T. ) ;
#575 = DIRECTION ( 'NONE',  ( 0.000000000000000000, -1.000000000000000000, -0.000000000000000000 ) ) ;
#576 = ADVANCED_FACE ( 'NONE', ( #217 ), #156, .F. ) ;
#577 = CARTESIAN_POINT ( 'NONE',  ( -16.15000000000000213, -1.189999999999998392, -0.9600000000000001865 ) ) ;
#578 = LINE ( 'NONE', #571, #192 ) ;
#579 = VECTOR ( 'NONE', #758, 1.000000000000000000 ) ;
#580 = ORIENTED_EDGE ( 'NONE', *, *, #236, .T. ) ;
#581 = UNCERTAINTY_MEASURE_WITH_UNIT (LENGTH_MEASURE( 1.000000000000000082E-05 ), #183, 'distance_accuracy_value', 'NONE');
#582 = EDGE_CURVE ( 'NONE', #291, #207, #649, .T. ) ;
#583 = FACE_OUTER_BOUND ( 'NONE', #290, .T. ) ;
#584 = CARTESIAN_POINT ( 'NONE',  ( -16.55000000000000071, 0.2000000000000000111, -0.8250000000000000666 ) ) ;
#585 = CARTESIAN_POINT ( 'NONE',  ( -1.950000000000000178, 1.189999999999998392, -0.9600000000000001865 ) ) ;
#586 = ORIENTED_EDGE ( 'NONE', *, *, #749, .F. ) ;
#587 = CARTESIAN_POINT ( 'NONE',  ( -2.350000000000000089, 0.8000000000000000444, -0.9100000000000001421 ) ) ;
#588 = CARTESIAN_POINT ( 'NONE',  ( -16.55000000000000071, 0.8999999999999999112, -0.9100000000000001421 ) ) ;
#589 = ORIENTED_EDGE ( 'NONE', *, *, #236, .F. ) ;
#590 = VERTEX_POINT ( 'NONE', #274 ) ;
#591 = VECTOR ( 'NONE', #335, 1.000000000000000000 ) ;
#592 = CARTESIAN_POINT ( 'NONE',  ( -18.50000000000000000, 1.189999999999997504, -0.9600000000000001865 ) ) ;
#593 = DIRECTION ( 'NONE',  ( 1.000000000000000000, 0.000000000000000000, 0.000000000000000000 ) ) ;
#594 = ADVANCED_FACE ( 'NONE', ( #26 ), #31, .T. ) ;
#595 = VECTOR ( 'NONE', #336, 1.000000000000000000 ) ;
#596 = ORIENTED_EDGE ( 'NONE', *, *, #127, .F. ) ;
#597 = ORIENTED_EDGE ( 'NONE', *, *, #506, .T. ) ;
#598 = DIRECTION ( 'NONE',  ( 0.000000000000000000, 0.000000000000000000, 1.000000000000000000 ) ) ;
#599 = PLANE ( 'NONE',  #696 ) ;
#600 = ORIENTED_EDGE ( 'NONE', *, *, #482, .F. ) ;
#601 = CARTESIAN_POINT ( 'NONE',  ( -1.950000000000000178, -0.8000000000000000444, -0.9100000000000001421 ) ) ;
#602 = DIRECTION ( 'NONE',  ( -0.000000000000000000, 0.000000000000000000, 1.000000000000000000 ) ) ;
#603 = ORIENTED_EDGE ( 'NONE', *, *, #547, .F. ) ;
#604 = AXIS2_PLACEMENT_3D ( 'NONE', #65, #490, #372 ) ;
#605 = DIRECTION ( 'NONE',  ( -0.000000000000000000, -0.9854601157443477755, -0.1699069165076472210 ) ) ;
#606 = DIRECTION ( 'NONE',  ( 0.000000000000000000, -0.9901138386947149206, 0.1402661271484180461 ) ) ;
#607 = VERTEX_POINT ( 'NONE', #641 ) ;
#608 = PRODUCT_RELATED_PRODUCT_CATEGORY ( 'part', '', ( #563 ) ) ;
#609 = CARTESIAN_POINT ( 'NONE',  ( -16.15000000000000213, -0.8999999999999999112, -0.9100000000000001421 ) ) ;
#610 = ORIENTED_EDGE ( 'NONE', *, *, #418, .F. ) ;
#611 = CARTESIAN_POINT ( 'NONE',  ( -2.220446049250313081E-16, 1.189999999999997726, -0.9600000000000001865 ) ) ;
#612 = CARTESIAN_POINT ( 'NONE',  ( -1.950000000000000178, 0.8000000000000000444, -0.9100000000000001421 ) ) ;
#613 = ORIENTED_EDGE ( 'NONE', *, *, #245, .T. ) ;
#614 = VECTOR ( 'NONE', #658, 1.000000000000000000 ) ;
#615 = PLANE ( 'NONE',  #787 ) ;
#616 = AXIS2_PLACEMENT_3D ( 'NONE', #532, #226, #411 ) ;
#617 = EDGE_CURVE ( 'NONE', #401, #237, #104, .T. ) ;
#618 = VERTEX_POINT ( 'NONE', #587 ) ;
#619 = DIRECTION ( 'NONE',  ( 9.329605248950916386E-17, -1.000000000000000000, 0.000000000000000000 ) ) ;
#620 = CARTESIAN_POINT ( 'NONE',  ( -1.950000000000000178, -0.8999999999999999112, -0.9100000000000001421 ) ) ;
#621 = ORIENTED_EDGE ( 'NONE', *, *, #406, .T. ) ;
#622 = PRODUCT_DEFINITION_SHAPE ( 'NONE', 'NONE',  #738 ) ;
#623 = ORIENTED_EDGE ( 'NONE', *, *, #460, .T. ) ;
#624 =( NAMED_UNIT ( * ) PLANE_ANGLE_UNIT ( ) SI_UNIT ( $, .RADIAN. ) );
#625 = DIRECTION ( 'NONE',  ( 1.000000000000000000, 1.200241107702872002E-17, 0.000000000000000000 ) ) ;
#626 = LINE ( 'NONE', #680, #634 ) ;
#627 = PLANE ( 'NONE',  #22 ) ;
#628 = ORIENTED_EDGE ( 'NONE', *, *, #448, .F. ) ;
#629 = CARTESIAN_POINT ( 'NONE',  ( -16.55000000000000071, 0.8999999999999999112, -0.9100000000000001421 ) ) ;
#630 = CARTESIAN_POINT ( 'NONE',  ( -18.50000000000000000, 1.189999999999997504, -0.9600000000000001865 ) ) ;
#631 = DIRECTION ( 'NONE',  ( 0.000000000000000000, 0.000000000000000000, 1.000000000000000000 ) ) ;
#632 = DIRECTION ( 'NONE',  ( -0.000000000000000000, 1.000000000000000000, -0.000000000000000000 ) ) ;
#633 = DIRECTION ( 'NONE',  ( 1.000000000000000000, 2.520506326176030958E-16, 0.000000000000000000 ) ) ;
#634 = VECTOR ( 'NONE', #753, 1.000000000000000000 ) ;
#635 = ORIENTED_EDGE ( 'NONE', *, *, #358, .F. ) ;
#636 = EDGE_CURVE ( 'NONE', #637, #8, #458, .T. ) ;
#637 = VERTEX_POINT ( 'NONE', #601 ) ;
#638 = CARTESIAN_POINT ( 'NONE',  ( -16.55000000000000071, 0.8999999999999999112, -0.9100000000000001421 ) ) ;
#639 = CARTESIAN_POINT ( 'NONE',  ( -1.950000000000000178, 0.8999999999999999112, -0.9100000000000001421 ) ) ;
#640 = VERTEX_POINT ( 'NONE', #644 ) ;
#641 = CARTESIAN_POINT ( 'NONE',  ( -18.50000000000000000, -1.190000000000001945, -1.160000000000000142 ) ) ;
#642 = CARTESIAN_POINT ( 'NONE',  ( -2.220446049250313081E-16, 1.189999999999997726, -0.9600000000000001865 ) ) ;
#643 = DIRECTION ( 'NONE',  ( -0.000000000000000000, -1.000000000000000000, -0.000000000000000000 ) ) ;
#644 = CARTESIAN_POINT ( 'NONE',  ( -2.350000000000000089, -0.8999999999999999112, -0.9100000000000001421 ) ) ;
#645 = EDGE_CURVE ( 'NONE', #492, #185, #98, .T. ) ;
#646 = DIRECTION ( 'NONE',  ( -9.329605248950915154E-17, 1.000000000000000000, -0.000000000000000000 ) ) ;
#647 = ORIENTED_EDGE ( 'NONE', *, *, #778, .F. ) ;
#648 = VECTOR ( 'NONE', #539, 1.000000000000000000 ) ;
#649 = LINE ( 'NONE', #638, #648 ) ;
#650 = PLANE ( 'NONE',  #163 ) ;
#651 = VECTOR ( 'NONE', #143, 1.000000000000000000 ) ;
#652 = EDGE_LOOP ( 'NONE', ( #586, #559, #231, #505 ) ) ;
#653 = ORIENTED_EDGE ( 'NONE', *, *, #498, .T. ) ;
#654 = DIRECTION ( 'NONE',  ( -0.000000000000000000, 0.000000000000000000, 1.000000000000000000 ) ) ;
#655 = DIRECTION ( 'NONE',  ( 1.000000000000000000, -0.000000000000000000, -0.000000000000000000 ) ) ;
#656 = EDGE_CURVE ( 'NONE', #548, #469, #277, .T. ) ;
#657 = ORIENTED_EDGE ( 'NONE', *, *, #645, .T. ) ;
#658 = DIRECTION ( 'NONE',  ( -1.000000000000000000, -0.000000000000000000, -0.000000000000000000 ) ) ;
#659 = EDGE_CURVE ( 'NONE', #530, #492, #145, .T. ) ;
#660 = ORIENTED_EDGE ( 'NONE', *, *, #440, .T. ) ;
#661 = CARTESIAN_POINT ( 'NONE',  ( -16.15000000000000213, -0.2000000000000000111, -0.8250000000000000666 ) ) ;
#662 = LINE ( 'NONE', #56, #62 ) ;
#663 = VERTEX_POINT ( 'NONE', #709 ) ;
#664 = DIRECTION ( 'NONE',  ( 1.000000000000000000, 0.000000000000000000, 0.000000000000000000 ) ) ;
#665 = DIRECTION ( 'NONE',  ( 0.000000000000000000, 0.000000000000000000, 1.000000000000000000 ) ) ;
#666 = ORIENTED_EDGE ( 'NONE', *, *, #81, .T. ) ;
#667 =( NAMED_UNIT ( * ) PLANE_ANGLE_UNIT ( ) SI_UNIT ( $, .RADIAN. ) );
#668 = CARTESIAN_POINT ( 'NONE',  ( -16.55000000000000071, -0.8000000000000000444, -0.9100000000000001421 ) ) ;
#669 = ADVANCED_FACE ( 'NONE', ( #467 ), #109, .T. ) ;
#670 = ORIENTED_EDGE ( 'NONE', *, *, #144, .F. ) ;
#671 = VECTOR ( 'NONE', #126, 1.000000000000000000 ) ;
#672 = CARTESIAN_POINT ( 'NONE',  ( -16.55000000000000071, 0.8999999999999999112, -0.9100000000000001421 ) ) ;
#673 = VERTEX_POINT ( 'NONE', #397 ) ;
#674 = DIRECTION ( 'NONE',  ( 1.000000000000000000, 0.000000000000000000, 0.000000000000000000 ) ) ;
#675 = LINE ( 'NONE', #2, #146 ) ;
#676 = ADVANCED_FACE ( 'NONE', ( #766 ), #463, .F. ) ;
#677 = DIRECTION ( 'NONE',  ( -1.000000000000000000, -0.000000000000000000, -0.000000000000000000 ) ) ;
#678 = LINE ( 'NONE', #206, #208 ) ;
#679 = EDGE_CURVE ( 'NONE', #530, #515, #704, .T. ) ;
#680 = CARTESIAN_POINT ( 'NONE',  ( -16.15000000000000213, 0.8000000000000000444, -0.9100000000000001421 ) ) ;
#681 = LINE ( 'NONE', #263, #399 ) ;
#682 = ORIENTED_EDGE ( 'NONE', *, *, #743, .F. ) ;
#683 = VECTOR ( 'NONE', #268, 1.000000000000000000 ) ;
#684 = CARTESIAN_POINT ( 'NONE',  ( -16.15000000000000213, 0.8999999999999999112, -0.9100000000000001421 ) ) ;
#685 = DIRECTION ( 'NONE',  ( 0.000000000000000000, -0.9854601157443477755, -0.1699069165076472210 ) ) ;
#686 = ORIENTED_EDGE ( 'NONE', *, *, #93, .T. ) ;
#687 = ADVANCED_BREP_SHAPE_REPRESENTATION ( 'WagonPlane_60ft_LessDetailed', ( #491, #446 ), #511 ) ;
#688 = CARTESIAN_POINT ( 'NONE',  ( -1.950000000000000178, 1.189999999999998392, -0.9600000000000001865 ) ) ;
#689 = ADVANCED_FACE ( 'NONE', ( #583 ), #694, .F. ) ;
#690 = DIRECTION ( 'NONE',  ( -1.000000000000000000, 0.000000000000000000, -0.000000000000000000 ) ) ;
#691 = CARTESIAN_POINT ( 'NONE',  ( -16.15000000000000213, -0.2000000000000000111, -0.8250000000000000666 ) ) ;
#692 = VECTOR ( 'NONE', #632, 1.000000000000000000 ) ;
#693 = CARTESIAN_POINT ( 'NONE',  ( -2.350000000000000089, -0.2000000000000000111, -0.8250000000000000666 ) ) ;
#694 = PLANE ( 'NONE',  #616 ) ;
#695 = LINE ( 'NONE', #106, #789 ) ;
#696 = AXIS2_PLACEMENT_3D ( 'NONE', #473, #602, #593 ) ;
#697 = ORIENTED_EDGE ( 'NONE', *, *, #6, .F. ) ;
#698 = ADVANCED_FACE ( 'NONE', ( #1 ), #557, .F. ) ;
#699 = DIRECTION ( 'NONE',  ( 1.000000000000000000, 0.000000000000000000, -0.000000000000000000 ) ) ;
#700 = FACE_OUTER_BOUND ( 'NONE', #327, .T. ) ;
#701 = DIRECTION ( 'NONE',  ( 0.000000000000000000, -0.9854601157443477755, 0.1699069165076472210 ) ) ;
#702 = ORIENTED_EDGE ( 'NONE', *, *, #487, .T. ) ;
#703 = EDGE_CURVE ( 'NONE', #363, #374, #781, .T. ) ;
#704 = LINE ( 'NONE', #284, #591 ) ;
#705 = LINE ( 'NONE', #227, #750 ) ;
#706 = EDGE_LOOP ( 'NONE', ( #573, #670, #282, #462 ) ) ;
#707 = VERTEX_POINT ( 'NONE', #421 ) ;
#708 = UNCERTAINTY_MEASURE_WITH_UNIT (LENGTH_MEASURE( 1.000000000000000082E-05 ), #259, 'distance_accuracy_value', 'NONE');
#709 = CARTESIAN_POINT ( 'NONE',  ( -1.950000000000000178, 0.2000000000000000111, -0.8250000000000000666 ) ) ;
#710 = FACE_OUTER_BOUND ( 'NONE', #40, .T. ) ;
#711 = ADVANCED_FACE ( 'NONE', ( #718 ), #296, .F. ) ;
#712 = ORIENTED_EDGE ( 'NONE', *, *, #123, .F. ) ;
#713 = ORIENTED_EDGE ( 'NONE', *, *, #547, .T. ) ;
#714 = DIRECTION ( 'NONE',  ( 0.000000000000000000, -1.000000000000000000, 0.000000000000000000 ) ) ;
#715 = LINE ( 'NONE', #32, #461 ) ;
#716 = ADVANCED_FACE ( 'NONE', ( #250 ), #119, .T. ) ;
#717 = ORIENTED_EDGE ( 'NONE', *, *, #406, .F. ) ;
#718 = FACE_OUTER_BOUND ( 'NONE', #225, .T. ) ;
#719 = DIRECTION ( 'NONE',  ( -1.000000000000000000, -0.000000000000000000, -0.000000000000000000 ) ) ;
#720 = EDGE_LOOP ( 'NONE', ( #613, #253, #97, #129 ) ) ;
#721 = EDGE_CURVE ( 'NONE', #378, #363, #68, .T. ) ;
#722 = CARTESIAN_POINT ( 'NONE',  ( -16.55000000000000071, -0.8000000000000000444, -0.9100000000000001421 ) ) ;
#723 = DIRECTION ( 'NONE',  ( 0.000000000000000000, -1.000000000000000000, 0.000000000000000000 ) ) ;
#724 = AXIS2_PLACEMENT_3D ( 'NONE', #133, #199, #195 ) ;
#725 = ORIENTED_EDGE ( 'NONE', *, *, #187, .T. ) ;
#726 = EDGE_CURVE ( 'NONE', #640, #50, #364, .T. ) ;
#727 = CARTESIAN_POINT ( 'NONE',  ( -18.50000000000000000, 1.189999999999997504, -1.160000000000000142 ) ) ;
#728 = VERTEX_POINT ( 'NONE', #784 ) ;
#729 = FACE_OUTER_BOUND ( 'NONE', #510, .T. ) ;
#730 = VERTEX_POINT ( 'NONE', #480 ) ;
#731 = VECTOR ( 'NONE', #719, 1.000000000000000000 ) ;
#732 = CARTESIAN_POINT ( 'NONE',  ( -16.15000000000000213, -0.8000000000000000444, -0.9100000000000001421 ) ) ;
#733 = ORIENTED_EDGE ( 'NONE', *, *, #240, .T. ) ;
#734 = VECTOR ( 'NONE', #223, 1.000000000000000000 ) ;
#735 = SHAPE_DEFINITION_REPRESENTATION ( #622, #687 ) ;
#736 = CARTESIAN_POINT ( 'NONE',  ( -1.950000000000000178, 0.8999999999999999112, -0.9100000000000001421 ) ) ;
#737 = CARTESIAN_POINT ( 'NONE',  ( -18.50000000000000000, -1.190000000000001945, -0.9600000000000001865 ) ) ;
#738 = PRODUCT_DEFINITION ( 'NON CONOSCIUTO', '', #148, #507 ) ;
#739 = EDGE_LOOP ( 'NONE', ( #256, #334, #264, #3 ) ) ;
#740 = CARTESIAN_POINT ( 'NONE',  ( -1.950000000000000178, 0.8999999999999999112, -0.9100000000000001421 ) ) ;
#741 = FACE_OUTER_BOUND ( 'NONE', #57, .T. ) ;
#742 = EDGE_LOOP ( 'NONE', ( #299, #702, #597, #776, #430, #574, #524, #657 ) ) ;
#743 = EDGE_CURVE ( 'NONE', #237, #102, #242, .T. ) ;
#744 = DIRECTION ( 'NONE',  ( 0.000000000000000000, 0.000000000000000000, 1.000000000000000000 ) ) ;
#745 = CARTESIAN_POINT ( 'NONE',  ( -18.50000000000000000, -1.190000000000001945, -0.9600000000000001865 ) ) ;
#746 = VECTOR ( 'NONE', #470, 1.000000000000000000 ) ;
#747 = COLOUR_RGB ( '',0.7921568627450980005, 0.8196078431372548767, 0.9333333333333333481 ) ;
#748 = ORIENTED_EDGE ( 'NONE', *, *, #434, .T. ) ;
#749 = EDGE_CURVE ( 'NONE', #728, #102, #545, .T. ) ;
#750 = VECTOR ( 'NONE', #293, 1.000000000000000000 ) ;
#751 = CARTESIAN_POINT ( 'NONE',  ( -1.950000000000000178, 0.2000000000000000111, -0.8250000000000000666 ) ) ;
#752 = DIRECTION ( 'NONE',  ( -0.000000000000000000, -1.000000000000000000, -0.000000000000000000 ) ) ;
#753 = DIRECTION ( 'NONE',  ( 0.000000000000000000, -0.9901138386947149206, 0.1402661271484180461 ) ) ;
#754 = LINE ( 'NONE', #508, #283 ) ;
#755 = DIRECTION ( 'NONE',  ( -0.000000000000000000, -0.9901138386947149206, -0.1402661271484180461 ) ) ;
#756 = ORIENTED_EDGE ( 'NONE', *, *, #10, .F. ) ;
#757 = DIRECTION ( 'NONE',  ( 1.000000000000000000, -0.000000000000000000, -0.000000000000000000 ) ) ;
#758 = DIRECTION ( 'NONE',  ( 1.000000000000000000, -0.000000000000000000, -0.000000000000000000 ) ) ;
#759 = COLOUR_RGB ( '',0.7921568627450980005, 0.8196078431372548767, 0.9333333333333333481 ) ;
#760 = ORIENTED_EDGE ( 'NONE', *, *, #523, .T. ) ;
#761 = EDGE_LOOP ( 'NONE', ( #193, #628, #647, #653 ) ) ;
#762 = DIRECTION ( 'NONE',  ( -0.000000000000000000, -0.000000000000000000, -1.000000000000000000 ) ) ;
#763 = DIRECTION ( 'NONE',  ( -0.000000000000000000, -0.9901138386947149206, -0.1402661271484180461 ) ) ;
#764 = ORIENTED_EDGE ( 'NONE', *, *, #149, .F. ) ;
#765 = ORIENTED_EDGE ( 'NONE', *, *, #551, .F. ) ;
#766 = FACE_OUTER_BOUND ( 'NONE', #706, .T. ) ;
#767 = LINE ( 'NONE', #361, #410 ) ;
#768 = LINE ( 'NONE', #693, #734 ) ;
#769 = ORIENTED_EDGE ( 'NONE', *, *, #144, .T. ) ;
#770 = EDGE_CURVE ( 'NONE', #607, #432, #58, .T. ) ;
#771 = DIRECTION ( 'NONE',  ( -1.000000000000000000, -0.000000000000000000, -0.000000000000000000 ) ) ;
#772 = CARTESIAN_POINT ( 'NONE',  ( -16.55000000000000071, -0.2000000000000000111, -0.8250000000000000666 ) ) ;
#773 = VECTOR ( 'NONE', #429, 1.000000000000000000 ) ;
#774 = ORIENTED_EDGE ( 'NONE', *, *, #645, .F. ) ;
#775 = VECTOR ( 'NONE', #423, 1.000000000000000000 ) ;
#776 = ORIENTED_EDGE ( 'NONE', *, *, #749, .T. ) ;
#777 = DIRECTION ( 'NONE',  ( 1.000000000000000000, 0.000000000000000000, 0.000000000000000000 ) ) ;
#778 = EDGE_CURVE ( 'NONE', #134, #18, #553, .T. ) ;
#779 = DIRECTION ( 'NONE',  ( 0.000000000000000000, 0.9901138386947148096, 0.1402661271484180183 ) ) ;
#780 = ORIENTED_EDGE ( 'NONE', *, *, #448, .T. ) ;
#781 = LINE ( 'NONE', #246, #137 ) ;
#782 = DIRECTION ( 'NONE',  ( 0.000000000000000000, -1.000000000000000000, 0.000000000000000000 ) ) ;
#783 = ORIENTED_EDGE ( 'NONE', *, *, #33, .F. ) ;
#784 = CARTESIAN_POINT ( 'NONE',  ( -16.15000000000000213, 0.2000000000000000111, -0.8250000000000000666 ) ) ;
#785 = CARTESIAN_POINT ( 'NONE',  ( -18.50000000000000000, 1.189999999999997504, -0.9600000000000001865 ) ) ;
#786 = ORIENTED_EDGE ( 'NONE', *, *, #249, .F. ) ;
#787 = AXIS2_PLACEMENT_3D ( 'NONE', #59, #665, #438 ) ;
#788 = LINE ( 'NONE', #247, #435 ) ;
#789 = VECTOR ( 'NONE', #763, 1.000000000000000000 ) ;
#790 = ORIENTED_EDGE ( 'NONE', *, *, #303, .T. ) ;
ENDSEC;
END-ISO-10303-21;
