ISO-10303-21;
HEADER;
FILE_DESCRIPTION (( 'STEP AP214' ),
    '1' );
FILE_NAME ('WagonPlane_40ft_LessDetailed.STEP',
    '2026-02-24T13:08:49',
    ( '' ),
    ( '' ),
    'SwSTEP 2.0',
    'SolidWorks 2022',
    '' );
FILE_SCHEMA (( 'AUTOMOTIVE_DESIGN' ));
ENDSEC;

DATA;
#1 = LINE ( 'NONE', #608, #452 ) ;
#2 = ORIENTED_EDGE ( 'NONE', *, *, #3, .T. ) ;
#3 = EDGE_CURVE ( 'NONE', #20, #737, #635, .T. ) ;
#4 = DIRECTION ( 'NONE',  ( 1.000000000000000000, -0.000000000000000000, -0.000000000000000000 ) ) ;
#5 = CARTESIAN_POINT ( 'NONE',  ( -12.22500000000000142, 0.8999999999999999112, -0.9100000000000001421 ) ) ;
#6 = LINE ( 'NONE', #252, #750 ) ;
#7 = ORIENTED_EDGE ( 'NONE', *, *, #91, .F. ) ;
#8 = VECTOR ( 'NONE', #240, 1.000000000000000000 ) ;
#9 = EDGE_CURVE ( 'NONE', #89, #388, #277, .T. ) ;
#10 = PLANE ( 'NONE',  #255 ) ;
#11 = AXIS2_PLACEMENT_3D ( 'NONE', #5, #130, #250 ) ;
#12 = CARTESIAN_POINT ( 'NONE',  ( -1.950000000000000178, -0.2000000000000000111, -0.8250000000000000666 ) ) ;
#13 = ORIENTED_EDGE ( 'NONE', *, *, #115, .F. ) ;
#14 = AXIS2_PLACEMENT_3D ( 'NONE', #467, #231, #628 ) ;
#15 = SURFACE_STYLE_FILL_AREA ( #596 ) ;
#16 = CARTESIAN_POINT ( 'NONE',  ( -11.82500000000000107, 0.8999999999999999112, -0.9100000000000001421 ) ) ;
#17 = ORIENTED_EDGE ( 'NONE', *, *, #604, .F. ) ;
#18 = EDGE_CURVE ( 'NONE', #267, #43, #592, .T. ) ;
#19 = DIRECTION ( 'NONE',  ( 0.000000000000000000, -0.1402661271484180461, -0.9901138386947149206 ) ) ;
#20 = VERTEX_POINT ( 'NONE', #101 ) ;
#21 = EDGE_CURVE ( 'NONE', #370, #164, #344, .T. ) ;
#22 = AXIS2_PLACEMENT_3D ( 'NONE', #173, #790, #362 ) ;
#23 = PLANE ( 'NONE',  #653 ) ;
#24 = ORIENTED_EDGE ( 'NONE', *, *, #448, .T. ) ;
#25 = VECTOR ( 'NONE', #747, 1.000000000000000000 ) ;
#26 = DIRECTION ( 'NONE',  ( 0.000000000000000000, 0.1402661271484180461, 0.9901138386947149206 ) ) ;
#27 = ORIENTED_EDGE ( 'NONE', *, *, #396, .T. ) ;
#28 = EDGE_CURVE ( 'NONE', #578, #603, #468, .T. ) ;
#29 = DIRECTION ( 'NONE',  ( 1.000000000000000000, -0.000000000000000000, -0.000000000000000000 ) ) ;
#30 = EDGE_CURVE ( 'NONE', #77, #721, #778, .T. ) ;
#31 = VECTOR ( 'NONE', #34, 1.000000000000000000 ) ;
#32 = DIRECTION ( 'NONE',  ( 0.000000000000000000, 0.1699069165076472487, -0.9854601157443478865 ) ) ;
#33 = APPLICATION_PROTOCOL_DEFINITION ( 'draft international standard', 'automotive_design', 1998, #685 ) ;
#34 = DIRECTION ( 'NONE',  ( -0.000000000000000000, -0.9901138386947149206, -0.1402661271484180461 ) ) ;
#35 = CARTESIAN_POINT ( 'NONE',  ( -1.950000000000000178, 1.189999999999998392, -0.9600000000000001865 ) ) ;
#36 =( NAMED_UNIT ( * ) PLANE_ANGLE_UNIT ( ) SI_UNIT ( $, .RADIAN. ) );
#37 = CARTESIAN_POINT ( 'NONE',  ( -2.350000000000000089, -0.8000000000000000444, -0.9100000000000001421 ) ) ;
#38 = PLANE ( 'NONE',  #384 ) ;
#39 = ORIENTED_EDGE ( 'NONE', *, *, #517, .F. ) ;
#40 = EDGE_CURVE ( 'NONE', #53, #415, #630, .T. ) ;
#41 = DIRECTION ( 'NONE',  ( -1.000000000000000000, -1.566452239330026778E-17, -0.000000000000000000 ) ) ;
#42 = DIRECTION ( 'NONE',  ( 0.000000000000000000, -0.9854601157443477755, -0.1699069165076472210 ) ) ;
#43 = VERTEX_POINT ( 'NONE', #649 ) ;
#44 = VECTOR ( 'NONE', #66, 1.000000000000000000 ) ;
#45 = FILL_AREA_STYLE ('',( #773 ) ) ;
#46 = VECTOR ( 'NONE', #59, 1.000000000000000000 ) ;
#47 = EDGE_LOOP ( 'NONE', ( #2, #679, #598, #403 ) ) ;
#48 = AXIS2_PLACEMENT_3D ( 'NONE', #446, #205, #392 ) ;
#49 = EDGE_LOOP ( 'NONE', ( #426, #263, #780, #724 ) ) ;
#50 = CARTESIAN_POINT ( 'NONE',  ( -1.950000000000000178, -0.8999999999999999112, -0.9100000000000001421 ) ) ;
#51 = EDGE_CURVE ( 'NONE', #624, #752, #290, .T. ) ;
#52 = DIRECTION ( 'NONE',  ( 0.000000000000000000, 1.000000000000000000, 0.000000000000000000 ) ) ;
#53 = VERTEX_POINT ( 'NONE', #50 ) ;
#54 = CARTESIAN_POINT ( 'NONE',  ( -14.17500000000000071, 1.189999999999997504, -0.9600000000000001865 ) ) ;
#55 = ORIENTED_EDGE ( 'NONE', *, *, #261, .F. ) ;
#56 = DIRECTION ( 'NONE',  ( 0.000000000000000000, -0.9901138386947149206, 0.1402661271484180461 ) ) ;
#57 = DIRECTION ( 'NONE',  ( 1.000000000000000000, -0.000000000000000000, -0.000000000000000000 ) ) ;
#58 = ORIENTED_EDGE ( 'NONE', *, *, #375, .T. ) ;
#59 = DIRECTION ( 'NONE',  ( -1.000000000000000000, -1.566452239330026778E-17, -0.000000000000000000 ) ) ;
#60 = CARTESIAN_POINT ( 'NONE',  ( -2.350000000000000089, 1.189999999999998392, -0.9600000000000001865 ) ) ;
#61 = AXIS2_PLACEMENT_3D ( 'NONE', #293, #376, #311 ) ;
#62 = LINE ( 'NONE', #712, #416 ) ;
#63 = ORIENTED_EDGE ( 'NONE', *, *, #333, .F. ) ;
#64 = AXIS2_PLACEMENT_3D ( 'NONE', #571, #141, #618 ) ;
#65 = CARTESIAN_POINT ( 'NONE',  ( -11.82500000000000107, -0.8999999999999999112, -0.9100000000000001421 ) ) ;
#66 = DIRECTION ( 'NONE',  ( 0.000000000000000000, -1.000000000000000000, 0.000000000000000000 ) ) ;
#67 = DIRECTION ( 'NONE',  ( 0.000000000000000000, 0.000000000000000000, 1.000000000000000000 ) ) ;
#68 = DIRECTION ( 'NONE',  ( 0.000000000000000000, -0.9901138386947149206, 0.1402661271484180461 ) ) ;
#69 = EDGE_LOOP ( 'NONE', ( #408, #774, #393, #472, #715, #487, #13, #564 ) ) ;
#70 = PRESENTATION_STYLE_ASSIGNMENT (( #539 ) ) ;
#71 = CARTESIAN_POINT ( 'NONE',  ( -1.950000000000000178, 0.8999999999999999112, -0.9100000000000001421 ) ) ;
#72 = CARTESIAN_POINT ( 'NONE',  ( -12.22500000000000142, 0.000000000000000000, 0.000000000000000000 ) ) ;
#73 = ORIENTED_EDGE ( 'NONE', *, *, #562, .T. ) ;
#74 = AXIS2_PLACEMENT_3D ( 'NONE', #212, #694, #282 ) ;
#75 = DIRECTION ( 'NONE',  ( -0.000000000000000000, -0.9854601157443477755, -0.1699069165076472210 ) ) ;
#76 = CARTESIAN_POINT ( 'NONE',  ( -2.350000000000000089, 0.000000000000000000, 0.000000000000000000 ) ) ;
#77 = VERTEX_POINT ( 'NONE', #96 ) ;
#78 = ADVANCED_FACE ( 'NONE', ( #711 ), #214, .F. ) ;
#79 = EDGE_CURVE ( 'NONE', #752, #767, #92, .T. ) ;
#80 = LINE ( 'NONE', #87, #25 ) ;
#81 = EDGE_LOOP ( 'NONE', ( #460, #324, #466, #58 ) ) ;
#82 = PRODUCT_DEFINITION_SHAPE ( 'NONE', 'NONE',  #213 ) ;
#83 = DIRECTION ( 'NONE',  ( -9.329605248950915154E-17, 1.000000000000000000, -0.000000000000000000 ) ) ;
#84 = EDGE_LOOP ( 'NONE', ( #682, #470, #595, #421 ) ) ;
#85 = VECTOR ( 'NONE', #576, 1.000000000000000000 ) ;
#86 = VECTOR ( 'NONE', #381, 1.000000000000000000 ) ;
#87 = CARTESIAN_POINT ( 'NONE',  ( -12.22500000000000142, -0.2000000000000000111, -0.8250000000000000666 ) ) ;
#88 = EDGE_CURVE ( 'NONE', #617, #267, #413, .T. ) ;
#89 = VERTEX_POINT ( 'NONE', #518 ) ;
#90 = DIRECTION ( 'NONE',  ( 0.000000000000000000, -0.9854601157443477755, 0.1699069165076472210 ) ) ;
#91 = EDGE_CURVE ( 'NONE', #43, #788, #515, .T. ) ;
#92 = LINE ( 'NONE', #37, #31 ) ;
#93 = VECTOR ( 'NONE', #700, 1.000000000000000000 ) ;
#94 = DIRECTION ( 'NONE',  ( 0.000000000000000000, -1.000000000000000000, -0.000000000000000000 ) ) ;
#95 =( LENGTH_UNIT ( ) NAMED_UNIT ( * ) SI_UNIT ( $, .METRE. ) );
#96 = CARTESIAN_POINT ( 'NONE',  ( -2.349999999999999645, 1.189999999999997726, -0.9600000000000001865 ) ) ;
#97 = CARTESIAN_POINT ( 'NONE',  ( -1.950000000000000178, 1.189999999999998392, -0.9600000000000001865 ) ) ;
#98 = EDGE_CURVE ( 'NONE', #718, #578, #224, .T. ) ;
#99 = EDGE_LOOP ( 'NONE', ( #656, #145, #122, #135 ) ) ;
#100 = SURFACE_STYLE_FILL_AREA ( #45 ) ;
#101 = CARTESIAN_POINT ( 'NONE',  ( -14.17500000000000071, 1.189999999999997504, -1.160000000000000142 ) ) ;
#102 = CARTESIAN_POINT ( 'NONE',  ( -11.82500000000000107, -0.2000000000000000111, -0.8250000000000000666 ) ) ;
#103 = ADVANCED_FACE ( 'NONE', ( #162 ), #716, .F. ) ;
#104 = ORIENTED_EDGE ( 'NONE', *, *, #111, .T. ) ;
#105 = SHAPE_DEFINITION_REPRESENTATION ( #82, #412 ) ;
#106 = DIRECTION ( 'NONE',  ( -1.000000000000000000, 0.000000000000000000, 0.000000000000000000 ) ) ;
#107 = LINE ( 'NONE', #766, #525 ) ;
#108 = ORIENTED_EDGE ( 'NONE', *, *, #375, .F. ) ;
#109 = VECTOR ( 'NONE', #640, 1.000000000000000222 ) ;
#110 =( NAMED_UNIT ( * ) SI_UNIT ( $, .STERADIAN. ) SOLID_ANGLE_UNIT ( ) );
#111 = EDGE_CURVE ( 'NONE', #124, #363, #676, .T. ) ;
#112 = ORIENTED_EDGE ( 'NONE', *, *, #633, .T. ) ;
#113 = PLANE ( 'NONE',  #11 ) ;
#114 = ORIENTED_EDGE ( 'NONE', *, *, #137, .T. ) ;
#115 = EDGE_CURVE ( 'NONE', #363, #788, #309, .T. ) ;
#116 = DIRECTION ( 'NONE',  ( 0.000000000000000000, 0.1402661271484180461, -0.9901138386947149206 ) ) ;
#117 = CARTESIAN_POINT ( 'NONE',  ( -1.950000000000000178, 0.8999999999999999112, -0.9100000000000001421 ) ) ;
#118 = ORIENTED_EDGE ( 'NONE', *, *, #781, .T. ) ;
#119 = DIRECTION ( 'NONE',  ( -1.000000000000000000, 0.000000000000000000, -0.000000000000000000 ) ) ;
#120 = DIRECTION ( 'NONE',  ( 1.000000000000000000, 1.566452239330026778E-17, 0.000000000000000000 ) ) ;
#121 = CARTESIAN_POINT ( 'NONE',  ( -2.220446049250313081E-16, 1.189999999999997726, -0.9600000000000001865 ) ) ;
#122 = ORIENTED_EDGE ( 'NONE', *, *, #276, .F. ) ;
#123 = CARTESIAN_POINT ( 'NONE',  ( -1.950000000000000178, 0.8000000000000000444, -0.9100000000000001421 ) ) ;
#124 = VERTEX_POINT ( 'NONE', #195 ) ;
#125 = DIRECTION ( 'NONE',  ( -9.329605248950915154E-17, 1.000000000000000000, -0.000000000000000000 ) ) ;
#126 = FACE_OUTER_BOUND ( 'NONE', #352, .T. ) ;
#127 = LINE ( 'NONE', #54, #355 ) ;
#128 = ORIENTED_EDGE ( 'NONE', *, *, #667, .T. ) ;
#129 = CARTESIAN_POINT ( 'NONE',  ( -2.350000000000000089, -0.8999999999999999112, -0.9100000000000001421 ) ) ;
#130 = DIRECTION ( 'NONE',  ( 0.000000000000000000, 0.000000000000000000, 1.000000000000000000 ) ) ;
#131 = LINE ( 'NONE', #719, #301 ) ;
#132 = ORIENTED_EDGE ( 'NONE', *, *, #399, .F. ) ;
#133 = CARTESIAN_POINT ( 'NONE',  ( -11.82500000000000107, -0.8000000000000000444, -0.9100000000000001421 ) ) ;
#134 = LINE ( 'NONE', #495, #431 ) ;
#135 = ORIENTED_EDGE ( 'NONE', *, *, #459, .T. ) ;
#136 = VECTOR ( 'NONE', #722, 1.000000000000000000 ) ;
#137 = EDGE_CURVE ( 'NONE', #573, #500, #373, .T. ) ;
#138 = CARTESIAN_POINT ( 'NONE',  ( -11.82500000000000107, 0.000000000000000000, 0.000000000000000000 ) ) ;
#139 = ORIENTED_EDGE ( 'NONE', *, *, #18, .T. ) ;
#140 = ADVANCED_FACE ( 'NONE', ( #314 ), #360, .T. ) ;
#141 = DIRECTION ( 'NONE',  ( -0.000000000000000000, 0.000000000000000000, 1.000000000000000000 ) ) ;
#142 = ORIENTED_EDGE ( 'NONE', *, *, #3, .F. ) ;
#143 = EDGE_CURVE ( 'NONE', #267, #164, #419, .T. ) ;
#144 = PLANE ( 'NONE',  #343 ) ;
#145 = ORIENTED_EDGE ( 'NONE', *, *, #51, .F. ) ;
#146 = AXIS2_PLACEMENT_3D ( 'NONE', #582, #32, #406 ) ;
#147 = VECTOR ( 'NONE', #482, 1.000000000000000000 ) ;
#148 = CARTESIAN_POINT ( 'NONE',  ( -11.82500000000000107, 1.189999999999998392, -0.9600000000000001865 ) ) ;
#149 = LINE ( 'NONE', #342, #93 ) ;
#150 = PLANE ( 'NONE',  #322 ) ;
#151 =( NAMED_UNIT ( * ) SI_UNIT ( $, .STERADIAN. ) SOLID_ANGLE_UNIT ( ) );
#152 = SURFACE_SIDE_STYLE ('',( #100 ) ) ;
#153 = EDGE_CURVE ( 'NONE', #415, #411, #666, .T. ) ;
#154 = CARTESIAN_POINT ( 'NONE',  ( 0.000000000000000000, -1.189999999999997282, -0.9600000000000001865 ) ) ;
#155 = LINE ( 'NONE', #400, #731 ) ;
#156 = ORIENTED_EDGE ( 'NONE', *, *, #368, .F. ) ;
#157 = VECTOR ( 'NONE', #645, 1.000000000000000000 ) ;
#158 = EDGE_CURVE ( 'NONE', #578, #442, #424, .T. ) ;
#159 = CARTESIAN_POINT ( 'NONE',  ( -12.22500000000000142, -0.8999999999999999112, -0.9100000000000001421 ) ) ;
#160 = DIRECTION ( 'NONE',  ( 0.000000000000000000, -0.9901138386947149206, 0.1402661271484180461 ) ) ;
#161 = ORIENTED_EDGE ( 'NONE', *, *, #368, .T. ) ;
#162 = FACE_OUTER_BOUND ( 'NONE', #269, .T. ) ;
#163 = DIRECTION ( 'NONE',  ( 0.000000000000000000, -0.9854601157443477755, -0.1699069165076472210 ) ) ;
#164 = VERTEX_POINT ( 'NONE', #133 ) ;
#165 = EDGE_CURVE ( 'NONE', #767, #415, #660, .T. ) ;
#166 = DIRECTION ( 'NONE',  ( -1.000000000000000000, -0.000000000000000000, -0.000000000000000000 ) ) ;
#167 = LINE ( 'NONE', #296, #274 ) ;
#168 = EDGE_LOOP ( 'NONE', ( #331, #391, #283, #73 ) ) ;
#169 = VECTOR ( 'NONE', #75, 1.000000000000000222 ) ;
#170 = ORIENTED_EDGE ( 'NONE', *, *, #346, .F. ) ;
#171 = VECTOR ( 'NONE', #57, 1.000000000000000000 ) ;
#172 = CARTESIAN_POINT ( 'NONE',  ( -1.950000000000000178, -0.8999999999999999112, -0.9100000000000001421 ) ) ;
#173 = CARTESIAN_POINT ( 'NONE',  ( -1.950000000000000178, -0.8999999999999999112, -0.9100000000000001421 ) ) ;
#174 = ORIENTED_EDGE ( 'NONE', *, *, #79, .F. ) ;
#175 = PRODUCT_DEFINITION_CONTEXT ( 'detailed design', #337, 'design' ) ;
#176 = FACE_OUTER_BOUND ( 'NONE', #621, .T. ) ;
#177 = EDGE_LOOP ( 'NONE', ( #776, #550, #670, #24 ) ) ;
#178 = CARTESIAN_POINT ( 'NONE',  ( -2.220446049250313081E-16, 1.189999999999997726, -0.9600000000000001865 ) ) ;
#179 = PLANE ( 'NONE',  #462 ) ;
#180 = ORIENTED_EDGE ( 'NONE', *, *, #257, .F. ) ;
#181 = CARTESIAN_POINT ( 'NONE',  ( -2.350000000000000089, 0.8999999999999999112, -0.9100000000000001421 ) ) ;
#182 = CARTESIAN_POINT ( 'NONE',  ( -2.350000000000000089, 0.8000000000000000444, -0.9100000000000001421 ) ) ;
#183 = ADVANCED_FACE ( 'NONE', ( #367 ), #383, .T. ) ;
#184 = LINE ( 'NONE', #668, #171 ) ;
#185 = VECTOR ( 'NONE', #303, 1.000000000000000000 ) ;
#186 = CARTESIAN_POINT ( 'NONE',  ( -1.950000000000000178, -0.8999999999999999112, -0.9100000000000001421 ) ) ;
#187 = EDGE_LOOP ( 'NONE', ( #128, #327, #507, #308 ) ) ;
#188 = SURFACE_SIDE_STYLE ('',( #15 ) ) ;
#189 = ADVANCED_FACE ( 'NONE', ( #249 ), #613, .F. ) ;
#190 = VECTOR ( 'NONE', #435, 1.000000000000000000 ) ;
#191 = DIRECTION ( 'NONE',  ( 1.000000000000000000, 0.000000000000000000, -0.000000000000000000 ) ) ;
#192 = AXIS2_PLACEMENT_3D ( 'NONE', #444, #19, #563 ) ;
#193 = DIRECTION ( 'NONE',  ( 0.000000000000000000, 0.000000000000000000, -1.000000000000000000 ) ) ;
#194 = ORIENTED_EDGE ( 'NONE', *, *, #674, .T. ) ;
#195 = CARTESIAN_POINT ( 'NONE',  ( -14.17500000000000071, 1.189999999999997504, -0.9600000000000001865 ) ) ;
#196 = EDGE_CURVE ( 'NONE', #411, #77, #601, .T. ) ;
#197 = LINE ( 'NONE', #605, #86 ) ;
#198 = ORIENTED_EDGE ( 'NONE', *, *, #471, .T. ) ;
#199 = FACE_OUTER_BOUND ( 'NONE', #297, .T. ) ;
#200 = ORIENTED_EDGE ( 'NONE', *, *, #399, .T. ) ;
#201 = VECTOR ( 'NONE', #519, 1.000000000000000000 ) ;
#202 = VECTOR ( 'NONE', #52, 1.000000000000000000 ) ;
#203 = PLANE ( 'NONE',  #64 ) ;
#204 = ORIENTED_EDGE ( 'NONE', *, *, #517, .T. ) ;
#205 = DIRECTION ( 'NONE',  ( -0.000000000000000000, 0.000000000000000000, 1.000000000000000000 ) ) ;
#206 = ORIENTED_EDGE ( 'NONE', *, *, #196, .T. ) ;
#207 = CARTESIAN_POINT ( 'NONE',  ( -1.950000000000000178, 0.8000000000000000444, -0.9100000000000001421 ) ) ;
#208 = ORIENTED_EDGE ( 'NONE', *, *, #542, .F. ) ;
#209 = VECTOR ( 'NONE', #4, 1.000000000000000000 ) ;
#210 = CARTESIAN_POINT ( 'NONE',  ( -14.17500000000000071, 1.189999999999997504, -0.9600000000000001865 ) ) ;
#211 = CARTESIAN_POINT ( 'NONE',  ( -2.220446049250313081E-16, 1.189999999999997726, -1.160000000000000142 ) ) ;
#212 = CARTESIAN_POINT ( 'NONE',  ( 0.000000000000000000, 0.000000000000000000, -0.9600000000000001865 ) ) ;
#213 = PRODUCT_DEFINITION ( 'NON CONOSCIUTO', '', #433, #175 ) ;
#214 = PLANE ( 'NONE',  #768 ) ;
#215 = CARTESIAN_POINT ( 'NONE',  ( -2.220446049250313081E-16, 1.189999999999997726, -0.9600000000000001865 ) ) ;
#216 = PRESENTATION_STYLE_ASSIGNMENT (( #639 ) ) ;
#217 = EDGE_CURVE ( 'NONE', #363, #737, #743, .T. ) ;
#218 = AXIS2_PLACEMENT_3D ( 'NONE', #644, #106, #587 ) ;
#219 = ORIENTED_EDGE ( 'NONE', *, *, #642, .F. ) ;
#220 = FACE_OUTER_BOUND ( 'NONE', #646, .T. ) ;
#221 = ORIENTED_EDGE ( 'NONE', *, *, #18, .F. ) ;
#222 =( NAMED_UNIT ( * ) SI_UNIT ( $, .STERADIAN. ) SOLID_ANGLE_UNIT ( ) );
#223 = VECTOR ( 'NONE', #567, 1.000000000000000000 ) ;
#224 = LINE ( 'NONE', #474, #557 ) ;
#225 = ADVANCED_FACE ( 'NONE', ( #609 ), #479, .F. ) ;
#226 = CARTESIAN_POINT ( 'NONE',  ( -11.82500000000000107, 0.8000000000000000444, -0.9100000000000001421 ) ) ;
#227 = VERTEX_POINT ( 'NONE', #182 ) ;
#228 = VERTEX_POINT ( 'NONE', #320 ) ;
#229 = DIRECTION ( 'NONE',  ( 9.329605248950916386E-17, -1.000000000000000000, 0.000000000000000000 ) ) ;
#230 = ORIENTED_EDGE ( 'NONE', *, *, #661, .F. ) ;
#231 = DIRECTION ( 'NONE',  ( 0.000000000000000000, 0.000000000000000000, 1.000000000000000000 ) ) ;
#232 = EDGE_LOOP ( 'NONE', ( #580, #583, #17, #478 ) ) ;
#233 = DIRECTION ( 'NONE',  ( 0.000000000000000000, -0.9854601157443477755, -0.1699069165076472210 ) ) ;
#234 = CARTESIAN_POINT ( 'NONE',  ( -12.22500000000000142, 0.8999999999999999112, -0.9100000000000001421 ) ) ;
#235 = MANIFOLD_SOLID_BREP ( 'Specchia1', #538 ) ;
#236 = ORIENTED_EDGE ( 'NONE', *, *, #674, .F. ) ;
#237 = VECTOR ( 'NONE', #56, 1.000000000000000000 ) ;
#238 = LINE ( 'NONE', #599, #46 ) ;
#239 = ORIENTED_EDGE ( 'NONE', *, *, #88, .F. ) ;
#240 = DIRECTION ( 'NONE',  ( -0.000000000000000000, -1.000000000000000000, -0.000000000000000000 ) ) ;
#241 = VECTOR ( 'NONE', #90, 1.000000000000000222 ) ;
#242 = PLANE ( 'NONE',  #512 ) ;
#243 = ORIENTED_EDGE ( 'NONE', *, *, #647, .T. ) ;
#244 = LINE ( 'NONE', #385, #394 ) ;
#245 = CARTESIAN_POINT ( 'NONE',  ( -14.17500000000000071, 1.189999999999997504, -0.9600000000000001865 ) ) ;
#246 = LINE ( 'NONE', #673, #616 ) ;
#247 = DIRECTION ( 'NONE',  ( 0.000000000000000000, -1.000000000000000000, 0.000000000000000000 ) ) ;
#248 = ORIENTED_EDGE ( 'NONE', *, *, #115, .T. ) ;
#249 = FACE_OUTER_BOUND ( 'NONE', #318, .T. ) ;
#250 = DIRECTION ( 'NONE',  ( 1.000000000000000000, 0.000000000000000000, -0.000000000000000000 ) ) ;
#251 = VECTOR ( 'NONE', #458, 1.000000000000000000 ) ;
#252 = CARTESIAN_POINT ( 'NONE',  ( -12.22500000000000142, 0.8999999999999999112, -0.9100000000000001421 ) ) ;
#253 = EDGE_LOOP ( 'NONE', ( #248, #200, #161, #104 ) ) ;
#254 =( LENGTH_UNIT ( ) NAMED_UNIT ( * ) SI_UNIT ( $, .METRE. ) );
#255 = AXIS2_PLACEMENT_3D ( 'NONE', #422, #193, #119 ) ;
#256 = LINE ( 'NONE', #71, #321 ) ;
#257 = EDGE_CURVE ( 'NONE', #476, #767, #708, .T. ) ;
#258 = VECTOR ( 'NONE', #584, 1.000000000000000000 ) ;
#259 = DIRECTION ( 'NONE',  ( 1.000000000000000000, 0.000000000000000000, -0.000000000000000000 ) ) ;
#260 = EDGE_LOOP ( 'NONE', ( #600, #219, #541, #418 ) ) ;
#261 = EDGE_CURVE ( 'NONE', #228, #370, #349, .T. ) ;
#262 = LINE ( 'NONE', #506, #404 ) ;
#263 = ORIENTED_EDGE ( 'NONE', *, *, #568, .F. ) ;
#264 = CARTESIAN_POINT ( 'NONE',  ( -11.82500000000000107, 1.189999999999997504, -0.9600000000000001865 ) ) ;
#265 = ORIENTED_EDGE ( 'NONE', *, *, #667, .F. ) ;
#266 = FACE_OUTER_BOUND ( 'NONE', #168, .T. ) ;
#267 = VERTEX_POINT ( 'NONE', #636 ) ;
#268 = DIRECTION ( 'NONE',  ( 0.000000000000000000, -0.9901138386947148096, 0.1402661271484180183 ) ) ;
#269 = EDGE_LOOP ( 'NONE', ( #345, #198, #114, #409, #294, #545, #772, #493 ) ) ;
#270 = FACE_OUTER_BOUND ( 'NONE', #81, .T. ) ;
#271 = STYLED_ITEM ( 'NONE', ( #70 ), #235 ) ;
#272 = LINE ( 'NONE', #757, #316 ) ;
#273 = EDGE_CURVE ( 'NONE', #718, #354, #509, .T. ) ;
#274 = VECTOR ( 'NONE', #434, 1.000000000000000000 ) ;
#275 = ORIENTED_EDGE ( 'NONE', *, *, #21, .T. ) ;
#276 = EDGE_CURVE ( 'NONE', #500, #624, #149, .T. ) ;
#277 = LINE ( 'NONE', #527, #109 ) ;
#278 = PLANE ( 'NONE',  #146 ) ;
#279 = ORIENTED_EDGE ( 'NONE', *, *, #586, .T. ) ;
#280 = VECTOR ( 'NONE', #94, 1.000000000000000000 ) ;
#281 = CARTESIAN_POINT ( 'NONE',  ( -11.82500000000000107, -0.8000000000000000444, -0.9100000000000001421 ) ) ;
#282 = DIRECTION ( 'NONE',  ( 1.000000000000000000, 0.000000000000000000, 0.000000000000000000 ) ) ;
#283 = ORIENTED_EDGE ( 'NONE', *, *, #158, .T. ) ;
#284 = CARTESIAN_POINT ( 'NONE',  ( -12.22500000000000142, -1.190000000000000613, -0.9600000000000001865 ) ) ;
#285 = VECTOR ( 'NONE', #291, 1.000000000000000000 ) ;
#286 = ADVANCED_FACE ( 'NONE', ( #579 ), #38, .T. ) ;
#287 = DIRECTION ( 'NONE',  ( -1.000000000000000000, -0.000000000000000000, -0.000000000000000000 ) ) ;
#288 = DIRECTION ( 'NONE',  ( -0.000000000000000000, -0.9854601157443477755, -0.1699069165076472210 ) ) ;
#289 = ORIENTED_EDGE ( 'NONE', *, *, #642, .T. ) ;
#290 = LINE ( 'NONE', #348, #330 ) ;
#291 = DIRECTION ( 'NONE',  ( -0.000000000000000000, -0.9901138386947149206, -0.1402661271484180461 ) ) ;
#292 = ORIENTED_EDGE ( 'NONE', *, *, #677, .T. ) ;
#293 = CARTESIAN_POINT ( 'NONE',  ( 0.000000000000000000, 0.000000000000000000, -0.9600000000000001865 ) ) ;
#294 = ORIENTED_EDGE ( 'NONE', *, *, #505, .T. ) ;
#295 = CARTESIAN_POINT ( 'NONE',  ( -14.17500000000000071, 1.189999999999997504, -0.9600000000000001865 ) ) ;
#296 = CARTESIAN_POINT ( 'NONE',  ( -12.22500000000000142, 0.8000000000000000444, -0.9100000000000001421 ) ) ;
#297 = EDGE_LOOP ( 'NONE', ( #142, #382, #483, #496 ) ) ;
#298 = VECTOR ( 'NONE', #166, 1.000000000000000000 ) ;
#299 = ADVANCED_FACE ( 'NONE', ( #353 ), #278, .F. ) ;
#300 = DIRECTION ( 'NONE',  ( 0.000000000000000000, -0.9854601157443477755, 0.1699069165076472210 ) ) ;
#301 = VECTOR ( 'NONE', #300, 1.000000000000000222 ) ;
#302 = VERTEX_POINT ( 'NONE', #226 ) ;
#303 = DIRECTION ( 'NONE',  ( -0.000000000000000000, -0.000000000000000000, -1.000000000000000000 ) ) ;
#304 = AXIS2_PLACEMENT_3D ( 'NONE', #683, #754, #455 ) ;
#305 = CARTESIAN_POINT ( 'NONE',  ( -12.22500000000000142, -0.8999999999999999112, -0.9100000000000001421 ) ) ;
#306 = ORIENTED_EDGE ( 'NONE', *, *, #720, .F. ) ;
#307 = DIRECTION ( 'NONE',  ( -0.000000000000000000, -0.000000000000000000, -1.000000000000000000 ) ) ;
#308 = ORIENTED_EDGE ( 'NONE', *, *, #749, .T. ) ;
#309 = LINE ( 'NONE', #378, #136 ) ;
#310 = DIRECTION ( 'NONE',  ( 0.000000000000000000, -1.000000000000000000, 0.000000000000000000 ) ) ;
#311 = DIRECTION ( 'NONE',  ( 1.000000000000000000, 0.000000000000000000, 0.000000000000000000 ) ) ;
#312 = ORIENTED_EDGE ( 'NONE', *, *, #454, .F. ) ;
#313 = EDGE_CURVE ( 'NONE', #354, #445, #272, .T. ) ;
#314 = FACE_OUTER_BOUND ( 'NONE', #652, .T. ) ;
#315 = DIRECTION ( 'NONE',  ( -1.000000000000000000, -0.000000000000000000, -0.000000000000000000 ) ) ;
#316 = VECTOR ( 'NONE', #513, 1.000000000000000222 ) ;
#317 = LINE ( 'NONE', #186, #735 ) ;
#318 = EDGE_LOOP ( 'NONE', ( #243, #432, #156, #292, #530, #63, #377, #641 ) ) ;
#319 = ADVANCED_FACE ( 'NONE', ( #220 ), #760, .T. ) ;
#320 = CARTESIAN_POINT ( 'NONE',  ( -11.82500000000000107, 0.2000000000000000111, -0.8250000000000000666 ) ) ;
#321 = VECTOR ( 'NONE', #315, 1.000000000000000000 ) ;
#322 = AXIS2_PLACEMENT_3D ( 'NONE', #76, #395, #626 ) ;
#323 = LINE ( 'NONE', #16, #637 ) ;
#324 = ORIENTED_EDGE ( 'NONE', *, *, #677, .F. ) ;
#325 = PRODUCT ( 'WagonPlane_40ft_LessDetailed', 'WagonPlane_40ft_LessDetailed', '', ( #710 ) ) ;
#326 = LINE ( 'NONE', #148, #241 ) ;
#327 = ORIENTED_EDGE ( 'NONE', *, *, #459, .F. ) ;
#328 = PRODUCT_RELATED_PRODUCT_CATEGORY ( 'part', '', ( #325 ) ) ;
#329 = PLANE ( 'NONE',  #304 ) ;
#330 = VECTOR ( 'NONE', #287, 1.000000000000000000 ) ;
#331 = ORIENTED_EDGE ( 'NONE', *, *, #273, .F. ) ;
#332 = VECTOR ( 'NONE', #540, 1.000000000000000000 ) ;
#333 = EDGE_CURVE ( 'NONE', #354, #77, #456, .T. ) ;
#334 = CARTESIAN_POINT ( 'NONE',  ( -1.949999999999999289, -1.189999999999997726, -0.9600000000000001865 ) ) ;
#335 = ORIENTED_EDGE ( 'NONE', *, *, #158, .F. ) ;
#336 = LINE ( 'NONE', #759, #464 ) ;
#337 = APPLICATION_CONTEXT ( 'automotive_design' ) ;
#338 = EDGE_CURVE ( 'NONE', #701, #763, #155, .T. ) ;
#339 = DIRECTION ( 'NONE',  ( -1.000000000000000000, -0.000000000000000000, -0.000000000000000000 ) ) ;
#340 = APPLICATION_PROTOCOL_DEFINITION ( 'draft international standard', 'automotive_design', 1998, #337 ) ;
#341 = DIRECTION ( 'NONE',  ( 1.000000000000000000, 0.000000000000000000, -0.000000000000000000 ) ) ;
#342 = CARTESIAN_POINT ( 'NONE',  ( -1.950000000000000178, -0.2000000000000000111, -0.8250000000000000666 ) ) ;
#343 = AXIS2_PLACEMENT_3D ( 'NONE', #623, #26, #268 ) ;
#344 = LINE ( 'NONE', #281, #680 ) ;
#345 = ORIENTED_EDGE ( 'NONE', *, *, #313, .T. ) ;
#346 = EDGE_CURVE ( 'NONE', #520, #752, #524, .T. ) ;
#347 = CARTESIAN_POINT ( 'NONE',  ( -11.82500000000000107, -1.190000000000000391, -0.9600000000000001865 ) ) ;
#348 = CARTESIAN_POINT ( 'NONE',  ( -1.950000000000000178, -0.2000000000000000111, -0.8250000000000000666 ) ) ;
#349 = LINE ( 'NONE', #704, #280 ) ;
#350 = ORIENTED_EDGE ( 'NONE', *, *, #51, .T. ) ;
#351 = AXIS2_PLACEMENT_3D ( 'NONE', #739, #732, #551 ) ;
#352 = EDGE_LOOP ( 'NONE', ( #279, #709, #372, #502 ) ) ;
#353 = FACE_OUTER_BOUND ( 'NONE', #49, .T. ) ;
#354 = VERTEX_POINT ( 'NONE', #770 ) ;
#355 = VECTOR ( 'NONE', #307, 1.000000000000000000 ) ;
#356 = STYLED_ITEM ( 'NONE', ( #216 ), #412 ) ;
#357 = CARTESIAN_POINT ( 'NONE',  ( -14.17500000000000071, 1.189999999999997504, -0.9600000000000001865 ) ) ;
#358 = CARTESIAN_POINT ( 'NONE',  ( -12.22500000000000142, 1.189999999999998392, -0.9600000000000001865 ) ) ;
#359 = EDGE_LOOP ( 'NONE', ( #306, #108, #194, #554 ) ) ;
#360 = PLANE ( 'NONE',  #351 ) ;
#361 = EDGE_CURVE ( 'NONE', #442, #705, #764, .T. ) ;
#362 = DIRECTION ( 'NONE',  ( -1.000000000000000000, 0.000000000000000000, -0.000000000000000000 ) ) ;
#363 = VERTEX_POINT ( 'NONE', #410 ) ;
#364 = UNCERTAINTY_MEASURE_WITH_UNIT (LENGTH_MEASURE( 1.000000000000000082E-05 ), #95, 'distance_accuracy_value', 'NONE');
#365 = CARTESIAN_POINT ( 'NONE',  ( -12.22500000000000142, 0.2000000000000000111, -0.8250000000000000666 ) ) ;
#366 = EDGE_LOOP ( 'NONE', ( #742, #312, #27, #112 ) ) ;
#367 = FACE_OUTER_BOUND ( 'NONE', #260, .T. ) ;
#368 = EDGE_CURVE ( 'NONE', #89, #124, #402, .T. ) ;
#369 = CARTESIAN_POINT ( 'NONE',  ( -2.220446049250313081E-16, 1.189999999999997726, -0.9600000000000001865 ) ) ;
#370 = VERTEX_POINT ( 'NONE', #102 ) ;
#371 = CARTESIAN_POINT ( 'NONE',  ( -12.22500000000000142, -0.2000000000000000111, -0.8250000000000000666 ) ) ;
#372 = ORIENTED_EDGE ( 'NONE', *, *, #313, .F. ) ;
#373 = LINE ( 'NONE', #784, #237 ) ;
#374 = DIRECTION ( 'NONE',  ( -1.000000000000000000, -2.662968806861045522E-16, 0.000000000000000000 ) ) ;
#375 = EDGE_CURVE ( 'NONE', #388, #777, #107, .T. ) ;
#376 = DIRECTION ( 'NONE',  ( -0.000000000000000000, 0.000000000000000000, 1.000000000000000000 ) ) ;
#377 = ORIENTED_EDGE ( 'NONE', *, *, #562, .F. ) ;
#378 = CARTESIAN_POINT ( 'NONE',  ( -14.17500000000000071, -1.190000000000001057, -0.9600000000000001865 ) ) ;
#379 = LINE ( 'NONE', #414, #285 ) ;
#380 = EDGE_CURVE ( 'NONE', #302, #228, #588, .T. ) ;
#381 = DIRECTION ( 'NONE',  ( -1.000000000000000000, -0.000000000000000000, -0.000000000000000000 ) ) ;
#382 = ORIENTED_EDGE ( 'NONE', *, *, #647, .F. ) ;
#383 = PLANE ( 'NONE',  #473 ) ;
#384 = AXIS2_PLACEMENT_3D ( 'NONE', #697, #453, #42 ) ;
#385 = CARTESIAN_POINT ( 'NONE',  ( -12.22500000000000142, -0.2000000000000000111, -0.8250000000000000666 ) ) ;
#386 = ORIENTED_EDGE ( 'NONE', *, *, #79, .T. ) ;
#387 = CARTESIAN_POINT ( 'NONE',  ( -2.220446049250313081E-16, 1.189999999999997726, -1.160000000000000142 ) ) ;
#388 = VERTEX_POINT ( 'NONE', #234 ) ;
#389 = ADVANCED_FACE ( 'NONE', ( #534 ), #655, .F. ) ;
#390 = LINE ( 'NONE', #207, #223 ) ;
#391 = ORIENTED_EDGE ( 'NONE', *, *, #98, .T. ) ;
#392 = DIRECTION ( 'NONE',  ( 1.000000000000000000, 0.000000000000000000, 0.000000000000000000 ) ) ;
#393 = ORIENTED_EDGE ( 'NONE', *, *, #98, .F. ) ;
#394 = VECTOR ( 'NONE', #782, 1.000000000000000000 ) ;
#395 = DIRECTION ( 'NONE',  ( -1.000000000000000000, 0.000000000000000000, 0.000000000000000000 ) ) ;
#396 = EDGE_CURVE ( 'NONE', #688, #569, #62, .T. ) ;
#397 = CARTESIAN_POINT ( 'NONE',  ( -2.350000000000000089, -0.2000000000000000111, -0.8250000000000000666 ) ) ;
#398 =( LENGTH_UNIT ( ) NAMED_UNIT ( * ) SI_UNIT ( $, .METRE. ) );
#399 = EDGE_CURVE ( 'NONE', #788, #89, #425, .T. ) ;
#400 = CARTESIAN_POINT ( 'NONE',  ( -11.82500000000000107, -1.189999999999998392, -0.9600000000000001865 ) ) ;
#401 = DIRECTION ( 'NONE',  ( -0.000000000000000000, -0.000000000000000000, -1.000000000000000000 ) ) ;
#402 = LINE ( 'NONE', #210, #157 ) ;
#403 = ORIENTED_EDGE ( 'NONE', *, *, #612, .T. ) ;
#404 = VECTOR ( 'NONE', #29, 1.000000000000000000 ) ;
#405 = DIRECTION ( 'NONE',  ( 0.000000000000000000, -1.000000000000000000, -0.000000000000000000 ) ) ;
#406 = DIRECTION ( 'NONE',  ( 0.000000000000000000, 0.9854601157443477755, 0.1699069165076472210 ) ) ;
#407 = ADVANCED_FACE ( 'NONE', ( #733 ), #785, .F. ) ;
#408 = ORIENTED_EDGE ( 'NONE', *, *, #698, .T. ) ;
#409 = ORIENTED_EDGE ( 'NONE', *, *, #276, .T. ) ;
#410 = CARTESIAN_POINT ( 'NONE',  ( -14.17500000000000071, -1.190000000000001057, -0.9600000000000001865 ) ) ;
#411 = VERTEX_POINT ( 'NONE', #428 ) ;
#412 = ADVANCED_BREP_SHAPE_REPRESENTATION ( 'WagonPlane_40ft_LessDetailed', ( #235, #14 ), #771 ) ;
#413 = LINE ( 'NONE', #533, #783 ) ;
#414 = CARTESIAN_POINT ( 'NONE',  ( -1.950000000000000178, -0.8000000000000000444, -0.9100000000000001421 ) ) ;
#415 = VERTEX_POINT ( 'NONE', #547 ) ;
#416 = VECTOR ( 'NONE', #475, 1.000000000000000000 ) ;
#417 = ADVANCED_FACE ( 'NONE', ( #126 ), #242, .F. ) ;
#418 = ORIENTED_EDGE ( 'NONE', *, *, #143, .T. ) ;
#419 = LINE ( 'NONE', #672, #209 ) ;
#420 = PLANE ( 'NONE',  #651 ) ;
#421 = ORIENTED_EDGE ( 'NONE', *, *, #521, .T. ) ;
#422 = CARTESIAN_POINT ( 'NONE',  ( -1.950000000000000178, -0.2000000000000000111, -0.8250000000000000666 ) ) ;
#423 = ADVANCED_FACE ( 'NONE', ( #723 ), #420, .F. ) ;
#424 = LINE ( 'NONE', #178, #714 ) ;
#425 = LINE ( 'NONE', #358, #332 ) ;
#426 = ORIENTED_EDGE ( 'NONE', *, *, #153, .T. ) ;
#427 = CARTESIAN_POINT ( 'NONE',  ( -2.350000000000000089, 0.8999999999999999112, -0.9100000000000001421 ) ) ;
#428 = CARTESIAN_POINT ( 'NONE',  ( -2.349999999999999645, -1.189999999999997948, -0.9600000000000001865 ) ) ;
#429 = COLOUR_RGB ( '',0.7921568627450980005, 0.8196078431372548767, 0.9333333333333333481 ) ;
#430 = DIRECTION ( 'NONE',  ( 0.000000000000000000, 0.000000000000000000, 1.000000000000000000 ) ) ;
#431 = VECTOR ( 'NONE', #787, 1.000000000000000000 ) ;
#432 = ORIENTED_EDGE ( 'NONE', *, *, #612, .F. ) ;
#433 = PRODUCT_DEFINITION_FORMATION_WITH_SPECIFIED_SOURCE ( 'TUTTO', '', #325, .NOT_KNOWN. ) ;
#434 = DIRECTION ( 'NONE',  ( 1.000000000000000000, -0.000000000000000000, -0.000000000000000000 ) ) ;
#435 = DIRECTION ( 'NONE',  ( 1.000000000000000000, -0.000000000000000000, -0.000000000000000000 ) ) ;
#436 = ORIENTED_EDGE ( 'NONE', *, *, #396, .F. ) ;
#437 = DIRECTION ( 'NONE',  ( 0.000000000000000000, -0.9901138386947148096, -0.1402661271484180183 ) ) ;
#438 = DIRECTION ( 'NONE',  ( -1.000000000000000000, 0.000000000000000000, -0.000000000000000000 ) ) ;
#439 = ORIENTED_EDGE ( 'NONE', *, *, #153, .F. ) ;
#440 = VECTOR ( 'NONE', #41, 1.000000000000000000 ) ;
#441 = CARTESIAN_POINT ( 'NONE',  ( -2.350000000000000089, -0.2000000000000000111, -0.8250000000000000666 ) ) ;
#442 = VERTEX_POINT ( 'NONE', #121 ) ;
#443 = ADVANCED_FACE ( 'NONE', ( #662 ), #179, .T. ) ;
#444 = CARTESIAN_POINT ( 'NONE',  ( -1.950000000000000178, 0.8000000000000000444, -0.9100000000000001421 ) ) ;
#445 = VERTEX_POINT ( 'NONE', #117 ) ;
#446 = CARTESIAN_POINT ( 'NONE',  ( 0.000000000000000000, 0.000000000000000000, -0.9600000000000001865 ) ) ;
#447 = EDGE_LOOP ( 'NONE', ( #566, #713, #463, #619, #275, #537, #748, #204 ) ) ;
#448 = EDGE_CURVE ( 'NONE', #788, #763, #184, .T. ) ;
#449 = DIRECTION ( 'NONE',  ( 0.000000000000000000, 0.000000000000000000, 1.000000000000000000 ) ) ;
#450 = VECTOR ( 'NONE', #339, 1.000000000000000000 ) ;
#451 = ORIENTED_EDGE ( 'NONE', *, *, #9, .F. ) ;
#452 = VECTOR ( 'NONE', #68, 1.000000000000000000 ) ;
#453 = DIRECTION ( 'NONE',  ( 0.000000000000000000, -0.1699069165076472487, 0.9854601157443478865 ) ) ;
#454 = EDGE_CURVE ( 'NONE', #688, #302, #167, .T. ) ;
#455 = DIRECTION ( 'NONE',  ( 0.000000000000000000, -0.9854601157443477755, 0.1699069165076472210 ) ) ;
#456 = LINE ( 'NONE', #35, #201 ) ;
#457 = CARTESIAN_POINT ( 'NONE',  ( -14.17500000000000071, 1.189999999999997504, -1.160000000000000142 ) ) ;
#458 = DIRECTION ( 'NONE',  ( -0.000000000000000000, -0.000000000000000000, -1.000000000000000000 ) ) ;
#459 = EDGE_CURVE ( 'NONE', #500, #520, #246, .T. ) ;
#460 = ORIENTED_EDGE ( 'NONE', *, *, #689, .F. ) ;
#461 = DIRECTION ( 'NONE',  ( 1.000000000000000000, -0.000000000000000000, -0.000000000000000000 ) ) ;
#462 = AXIS2_PLACEMENT_3D ( 'NONE', #305, #67, #191 ) ;
#463 = ORIENTED_EDGE ( 'NONE', *, *, #380, .T. ) ;
#464 = VECTOR ( 'NONE', #574, 1.000000000000000000 ) ;
#465 = DIRECTION ( 'NONE',  ( 1.000000000000000000, 2.662968806861045522E-16, 0.000000000000000000 ) ) ;
#466 = ORIENTED_EDGE ( 'NONE', *, *, #9, .T. ) ;
#467 = CARTESIAN_POINT ( 'NONE',  ( 0.000000000000000000, 0.000000000000000000, 0.000000000000000000 ) ) ;
#468 = LINE ( 'NONE', #154, #690 ) ;
#469 = DIRECTION ( 'NONE',  ( -2.662968806861045522E-16, 1.000000000000000000, 0.000000000000000000 ) ) ;
#470 = ORIENTED_EDGE ( 'NONE', *, *, #749, .F. ) ;
#471 = EDGE_CURVE ( 'NONE', #445, #573, #728, .T. ) ;
#472 = ORIENTED_EDGE ( 'NONE', *, *, #568, .T. ) ;
#473 = AXIS2_PLACEMENT_3D ( 'NONE', #561, #654, #437 ) ;
#474 = CARTESIAN_POINT ( 'NONE',  ( -14.17500000000000071, -1.190000000000001057, -0.9600000000000001865 ) ) ;
#475 = DIRECTION ( 'NONE',  ( 0.000000000000000000, -0.9901138386947149206, 0.1402661271484180461 ) ) ;
#476 = VERTEX_POINT ( 'NONE', #593 ) ;
#477 = LINE ( 'NONE', #427, #492 ) ;
#478 = ORIENTED_EDGE ( 'NONE', *, *, #257, .T. ) ;
#479 = PLANE ( 'NONE',  #622 ) ;
#480 = DIRECTION ( 'NONE',  ( -1.000000000000000000, -9.329605248950916386E-17, 0.000000000000000000 ) ) ;
#481 = EDGE_LOOP ( 'NONE', ( #230, #638, #139, #745 ) ) ;
#482 = DIRECTION ( 'NONE',  ( 0.000000000000000000, -1.000000000000000000, -0.000000000000000000 ) ) ;
#483 = ORIENTED_EDGE ( 'NONE', *, *, #703, .F. ) ;
#484 = DIRECTION ( 'NONE',  ( 1.566452239330026778E-17, -1.000000000000000000, 0.000000000000000000 ) ) ;
#485 = CARTESIAN_POINT ( 'NONE',  ( -14.17500000000000071, -1.190000000000001057, -0.9600000000000001865 ) ) ;
#486 = PLANE ( 'NONE',  #570 ) ;
#487 = ORIENTED_EDGE ( 'NONE', *, *, #448, .F. ) ;
#488 = DIRECTION ( 'NONE',  ( 0.000000000000000000, 0.9901138386947148096, 0.1402661271484180183 ) ) ;
#489 = DIRECTION ( 'NONE',  ( -1.000000000000000000, -0.000000000000000000, -0.000000000000000000 ) ) ;
#490 =( GEOMETRIC_REPRESENTATION_CONTEXT ( 3 ) GLOBAL_UNCERTAINTY_ASSIGNED_CONTEXT ( ( #543 ) ) GLOBAL_UNIT_ASSIGNED_CONTEXT ( ( #254, #497, #151 ) ) REPRESENTATION_CONTEXT ( 'NONE', 'WORKASPACE' ) );
#491 = DIRECTION ( 'NONE',  ( 0.000000000000000000, -1.000000000000000000, 0.000000000000000000 ) ) ;
#492 = VECTOR ( 'NONE', #247, 1.000000000000000000 ) ;
#493 = ORIENTED_EDGE ( 'NONE', *, *, #273, .T. ) ;
#494 = FACE_OUTER_BOUND ( 'NONE', #99, .T. ) ;
#495 = CARTESIAN_POINT ( 'NONE',  ( -14.17500000000000071, 1.189999999999997504, -0.9600000000000001865 ) ) ;
#496 = ORIENTED_EDGE ( 'NONE', *, *, #698, .F. ) ;
#497 =( NAMED_UNIT ( * ) PLANE_ANGLE_UNIT ( ) SI_UNIT ( $, .RADIAN. ) );
#498 = ADVANCED_FACE ( 'NONE', ( #552 ), #113, .T. ) ;
#499 = PLANE ( 'NONE',  #192 ) ;
#500 = VERTEX_POINT ( 'NONE', #779 ) ;
#501 = CARTESIAN_POINT ( 'NONE',  ( -11.82500000000000107, -0.8999999999999999112, -0.9100000000000001421 ) ) ;
#502 = ORIENTED_EDGE ( 'NONE', *, *, #333, .T. ) ;
#503 = VECTOR ( 'NONE', #678, 1.000000000000000000 ) ;
#504 = ORIENTED_EDGE ( 'NONE', *, *, #633, .F. ) ;
#505 = EDGE_CURVE ( 'NONE', #624, #476, #379, .T. ) ;
#506 = CARTESIAN_POINT ( 'NONE',  ( -12.22500000000000142, 1.189999999999998392, -0.9600000000000001865 ) ) ;
#507 = ORIENTED_EDGE ( 'NONE', *, *, #137, .F. ) ;
#508 = EDGE_CURVE ( 'NONE', #53, #718, #650, .T. ) ;
#509 = LINE ( 'NONE', #97, #85 ) ;
#510 = CARTESIAN_POINT ( 'NONE',  ( -14.17500000000000071, -1.190000000000001057, -1.160000000000000142 ) ) ;
#511 = VECTOR ( 'NONE', #575, 1.000000000000000000 ) ;
#512 = AXIS2_PLACEMENT_3D ( 'NONE', #717, #597, #602 ) ;
#513 = DIRECTION ( 'NONE',  ( 0.000000000000000000, -0.9854601157443477755, 0.1699069165076472210 ) ) ;
#514 = CARTESIAN_POINT ( 'NONE',  ( -11.82500000000000107, 0.8999999999999999112, -0.9100000000000001421 ) ) ;
#515 = LINE ( 'NONE', #765, #746 ) ;
#516 = CARTESIAN_POINT ( 'NONE',  ( -1.950000000000000178, -0.8000000000000000444, -0.9100000000000001421 ) ) ;
#517 = EDGE_CURVE ( 'NONE', #763, #721, #529, .T. ) ;
#518 = CARTESIAN_POINT ( 'NONE',  ( -12.22500000000000142, 1.189999999999998392, -0.9600000000000001865 ) ) ;
#519 = DIRECTION ( 'NONE',  ( -1.000000000000000000, -0.000000000000000000, -0.000000000000000000 ) ) ;
#520 = VERTEX_POINT ( 'NONE', #556 ) ;
#521 = EDGE_CURVE ( 'NONE', #445, #663, #256, .T. ) ;
#522 = VECTOR ( 'NONE', #405, 1.000000000000000000 ) ;
#523 = DIRECTION ( 'NONE',  ( 0.000000000000000000, -0.9901138386947149206, -0.1402661271484180461 ) ) ;
#524 = LINE ( 'NONE', #397, #585 ) ;
#525 = VECTOR ( 'NONE', #461, 1.000000000000000000 ) ;
#526 = COLOUR_RGB ( '',0.7921568627450980005, 0.8196078431372548767, 0.9333333333333333481 ) ;
#527 = CARTESIAN_POINT ( 'NONE',  ( -12.22500000000000142, 1.189999999999998392, -0.9600000000000001865 ) ) ;
#528 = ADVANCED_FACE ( 'NONE', ( #494 ), #10, .F. ) ;
#529 = LINE ( 'NONE', #775, #202 ) ;
#530 = ORIENTED_EDGE ( 'NONE', *, *, #30, .F. ) ;
#531 =( NAMED_UNIT ( * ) PLANE_ANGLE_UNIT ( ) SI_UNIT ( $, .RADIAN. ) );
#532 = ORIENTED_EDGE ( 'NONE', *, *, #196, .F. ) ;
#533 = CARTESIAN_POINT ( 'NONE',  ( -12.22500000000000142, -0.8000000000000000444, -0.9100000000000001421 ) ) ;
#534 = FACE_OUTER_BOUND ( 'NONE', #69, .T. ) ;
#535 = ORIENTED_EDGE ( 'NONE', *, *, #686, .T. ) ;
#536 = FACE_OUTER_BOUND ( 'NONE', #253, .T. ) ;
#537 = ORIENTED_EDGE ( 'NONE', *, *, #661, .T. ) ;
#538 = CLOSED_SHELL ( 'NONE', ( #629, #319, #78, #389, #423, #189, #707, #740, #417, #577, #696, #528, #225, #407, #299, #103, #761, #734, #286, #443, #183, #140, #758, #498, #549, #753 ) ) ;
#539 = SURFACE_STYLE_USAGE ( .BOTH. , #188 ) ;
#540 = DIRECTION ( 'NONE',  ( 0.000000000000000000, 1.000000000000000000, 0.000000000000000000 ) ) ;
#541 = ORIENTED_EDGE ( 'NONE', *, *, #88, .T. ) ;
#542 = EDGE_CURVE ( 'NONE', #663, #227, #477, .T. ) ;
#543 = UNCERTAINTY_MEASURE_WITH_UNIT (LENGTH_MEASURE( 1.000000000000000082E-05 ), #254, 'distance_accuracy_value', 'NONE');
#544 = LINE ( 'NONE', #65, #147 ) ;
#545 = ORIENTED_EDGE ( 'NONE', *, *, #604, .T. ) ;
#546 = CARTESIAN_POINT ( 'NONE',  ( -2.350000000000000089, -1.189999999999998392, -0.9600000000000001865 ) ) ;
#547 = CARTESIAN_POINT ( 'NONE',  ( -2.350000000000000089, -0.8999999999999999112, -0.9100000000000001421 ) ) ;
#548 = LINE ( 'NONE', #365, #503 ) ;
#549 = ADVANCED_FACE ( 'NONE', ( #176 ), #486, .F. ) ;
#550 = ORIENTED_EDGE ( 'NONE', *, *, #572, .F. ) ;
#551 = DIRECTION ( 'NONE',  ( 1.000000000000000000, 0.000000000000000000, -0.000000000000000000 ) ) ;
#552 = FACE_OUTER_BOUND ( 'NONE', #359, .T. ) ;
#553 = CARTESIAN_POINT ( 'NONE',  ( -12.22500000000000142, 0.2000000000000000111, -0.8250000000000000666 ) ) ;
#554 = ORIENTED_EDGE ( 'NONE', *, *, #454, .T. ) ;
#555 = FILL_AREA_STYLE_COLOUR ( '', #429 ) ;
#556 = CARTESIAN_POINT ( 'NONE',  ( -2.350000000000000089, 0.2000000000000000111, -0.8250000000000000666 ) ) ;
#557 = VECTOR ( 'NONE', #465, 1.000000000000000000 ) ;
#558 = DIRECTION ( 'NONE',  ( 0.000000000000000000, 0.000000000000000000, -1.000000000000000000 ) ) ;
#559 = AXIS2_PLACEMENT_3D ( 'NONE', #485, #469, #374 ) ;
#560 = ORIENTED_EDGE ( 'NONE', *, *, #165, .F. ) ;
#561 = CARTESIAN_POINT ( 'NONE',  ( -12.22500000000000142, -0.8000000000000000444, -0.9100000000000001421 ) ) ;
#562 = EDGE_CURVE ( 'NONE', #442, #354, #134, .T. ) ;
#563 = DIRECTION ( 'NONE',  ( 0.000000000000000000, 0.9901138386947148096, -0.1402661271484180183 ) ) ;
#564 = ORIENTED_EDGE ( 'NONE', *, *, #217, .T. ) ;
#565 = CARTESIAN_POINT ( 'NONE',  ( -12.22500000000000142, 0.8000000000000000444, -0.9100000000000001421 ) ) ;
#566 = ORIENTED_EDGE ( 'NONE', *, *, #689, .T. ) ;
#567 = DIRECTION ( 'NONE',  ( -1.000000000000000000, -0.000000000000000000, -0.000000000000000000 ) ) ;
#568 = EDGE_CURVE ( 'NONE', #718, #411, #197, .T. ) ;
#569 = VERTEX_POINT ( 'NONE', #553 ) ;
#570 = AXIS2_PLACEMENT_3D ( 'NONE', #72, #259, #430 ) ;
#571 = CARTESIAN_POINT ( 'NONE',  ( 0.000000000000000000, 0.000000000000000000, -1.160000000000000142 ) ) ;
#572 = EDGE_CURVE ( 'NONE', #43, #701, #664, .T. ) ;
#573 = VERTEX_POINT ( 'NONE', #123 ) ;
#574 = DIRECTION ( 'NONE',  ( 1.000000000000000000, 2.662968806861045522E-16, 0.000000000000000000 ) ) ;
#575 = DIRECTION ( 'NONE',  ( 0.000000000000000000, -1.000000000000000000, 0.000000000000000000 ) ) ;
#576 = DIRECTION ( 'NONE',  ( -0.000000000000000000, 1.000000000000000000, -0.000000000000000000 ) ) ;
#577 = ADVANCED_FACE ( 'NONE', ( #741 ), #729, .F. ) ;
#578 = VERTEX_POINT ( 'NONE', #736 ) ;
#579 = FACE_OUTER_BOUND ( 'NONE', #177, .T. ) ;
#580 = ORIENTED_EDGE ( 'NONE', *, *, #165, .T. ) ;
#581 = CARTESIAN_POINT ( 'NONE',  ( -14.17500000000000071, 1.189999999999997504, -0.9600000000000001865 ) ) ;
#582 = CARTESIAN_POINT ( 'NONE',  ( -1.950000000000000178, -1.189999999999998392, -0.9600000000000001865 ) ) ;
#583 = ORIENTED_EDGE ( 'NONE', *, *, #40, .F. ) ;
#584 = DIRECTION ( 'NONE',  ( 1.000000000000000000, 2.662968806861045522E-16, 0.000000000000000000 ) ) ;
#585 = VECTOR ( 'NONE', #631, 1.000000000000000000 ) ;
#586 = EDGE_CURVE ( 'NONE', #77, #663, #131, .T. ) ;
#587 = DIRECTION ( 'NONE',  ( 0.000000000000000000, 0.000000000000000000, 1.000000000000000000 ) ) ;
#588 = LINE ( 'NONE', #627, #589 ) ;
#589 = VECTOR ( 'NONE', #160, 1.000000000000000000 ) ;
#590 = EDGE_LOOP ( 'NONE', ( #702, #532, #439, #560, #174, #170, #265, #208 ) ) ;
#591 = PRESENTATION_LAYER_ASSIGNMENT (  '', '', ( #356 ) ) ;
#592 = LINE ( 'NONE', #159, #522 ) ;
#593 = CARTESIAN_POINT ( 'NONE',  ( -1.950000000000000178, -0.8000000000000000444, -0.9100000000000001421 ) ) ;
#594 = ORIENTED_EDGE ( 'NONE', *, *, #686, .F. ) ;
#595 = ORIENTED_EDGE ( 'NONE', *, *, #471, .F. ) ;
#596 = FILL_AREA_STYLE ('',( #555 ) ) ;
#597 = DIRECTION ( 'NONE',  ( 0.000000000000000000, -0.1699069165076472487, -0.9854601157443478865 ) ) ;
#598 = ORIENTED_EDGE ( 'NONE', *, *, #111, .F. ) ;
#599 = CARTESIAN_POINT ( 'NONE',  ( -14.17500000000000071, 1.189999999999997504, -1.160000000000000142 ) ) ;
#600 = ORIENTED_EDGE ( 'NONE', *, *, #21, .F. ) ;
#601 = LINE ( 'NONE', #60, #665 ) ;
#602 = DIRECTION ( 'NONE',  ( 0.000000000000000000, 0.9854601157443477755, -0.1699069165076472210 ) ) ;
#603 = VERTEX_POINT ( 'NONE', #675 ) ;
#604 = EDGE_CURVE ( 'NONE', #476, #53, #317, .T. ) ;
#605 = CARTESIAN_POINT ( 'NONE',  ( -1.950000000000000178, -1.189999999999998392, -0.9600000000000001865 ) ) ;
#606 = DIRECTION ( 'NONE',  ( -0.000000000000000000, 1.000000000000000000, -0.000000000000000000 ) ) ;
#607 = CARTESIAN_POINT ( 'NONE',  ( -1.950000000000000178, 0.8999999999999999112, -0.9100000000000001421 ) ) ;
#608 = CARTESIAN_POINT ( 'NONE',  ( -2.350000000000000089, 0.8000000000000000444, -0.9100000000000001421 ) ) ;
#609 = FACE_OUTER_BOUND ( 'NONE', #755, .T. ) ;
#610 = CARTESIAN_POINT ( 'NONE',  ( -1.950000000000000178, -1.189999999999998392, -0.9600000000000001865 ) ) ;
#611 = PLANE ( 'NONE',  #61 ) ;
#612 = EDGE_CURVE ( 'NONE', #124, #20, #127, .T. ) ;
#613 = PLANE ( 'NONE',  #648 ) ;
#614 = MECHANICAL_DESIGN_GEOMETRIC_PRESENTATION_REPRESENTATION (  '', ( #271 ), #490 ) ;
#615 = PLANE ( 'NONE',  #48 ) ;
#616 = VECTOR ( 'NONE', #489, 1.000000000000000000 ) ;
#617 = VERTEX_POINT ( 'NONE', #371 ) ;
#618 = DIRECTION ( 'NONE',  ( 1.000000000000000000, 0.000000000000000000, 0.000000000000000000 ) ) ;
#619 = ORIENTED_EDGE ( 'NONE', *, *, #261, .T. ) ;
#620 = LINE ( 'NONE', #211, #738 ) ;
#621 = EDGE_LOOP ( 'NONE', ( #451, #132, #7, #221, #239, #594, #436, #236 ) ) ;
#622 = AXIS2_PLACEMENT_3D ( 'NONE', #727, #116, #488 ) ;
#623 = CARTESIAN_POINT ( 'NONE',  ( -12.22500000000000142, 0.8000000000000000444, -0.9100000000000001421 ) ) ;
#624 = VERTEX_POINT ( 'NONE', #12 ) ;
#625 = AXIS2_PLACEMENT_3D ( 'NONE', #658, #558, #438 ) ;
#626 = DIRECTION ( 'NONE',  ( 0.000000000000000000, 0.000000000000000000, 1.000000000000000000 ) ) ;
#627 = CARTESIAN_POINT ( 'NONE',  ( -11.82500000000000107, 0.8000000000000000444, -0.9100000000000001421 ) ) ;
#628 = DIRECTION ( 'NONE',  ( 1.000000000000000000, 0.000000000000000000, 0.000000000000000000 ) ) ;
#629 = ADVANCED_FACE ( 'NONE', ( #536 ), #611, .T. ) ;
#630 = LINE ( 'NONE', #172, #298 ) ;
#631 = DIRECTION ( 'NONE',  ( -0.000000000000000000, -1.000000000000000000, -0.000000000000000000 ) ) ;
#632 = CARTESIAN_POINT ( 'NONE',  ( -2.350000000000000089, -0.8000000000000000444, -0.9100000000000001421 ) ) ;
#633 = EDGE_CURVE ( 'NONE', #569, #228, #548, .T. ) ;
#634 = VECTOR ( 'NONE', #288, 1.000000000000000222 ) ;
#635 = LINE ( 'NONE', #457, #511 ) ;
#636 = CARTESIAN_POINT ( 'NONE',  ( -12.22500000000000142, -0.8000000000000000444, -0.9100000000000001421 ) ) ;
#637 = VECTOR ( 'NONE', #744, 1.000000000000000000 ) ;
#638 = ORIENTED_EDGE ( 'NONE', *, *, #143, .F. ) ;
#639 = SURFACE_STYLE_USAGE ( .BOTH. , #152 ) ;
#640 = DIRECTION ( 'NONE',  ( 0.000000000000000000, -0.9854601157443477755, 0.1699069165076472210 ) ) ;
#641 = ORIENTED_EDGE ( 'NONE', *, *, #361, .T. ) ;
#642 = EDGE_CURVE ( 'NONE', #617, #370, #244, .T. ) ;
#643 = CARTESIAN_POINT ( 'NONE',  ( -14.17500000000000071, -1.190000000000001057, -0.9600000000000001865 ) ) ;
#644 = CARTESIAN_POINT ( 'NONE',  ( -1.950000000000000178, 0.000000000000000000, 0.000000000000000000 ) ) ;
#645 = DIRECTION ( 'NONE',  ( -1.000000000000000000, -1.566452239330026778E-17, -0.000000000000000000 ) ) ;
#646 = EDGE_LOOP ( 'NONE', ( #39, #118, #206, #699 ) ) ;
#647 = EDGE_CURVE ( 'NONE', #705, #20, #238, .T. ) ;
#648 = AXIS2_PLACEMENT_3D ( 'NONE', #295, #484, #120 ) ;
#649 = CARTESIAN_POINT ( 'NONE',  ( -12.22500000000000142, -0.8999999999999999112, -0.9100000000000001421 ) ) ;
#650 = LINE ( 'NONE', #610, #634 ) ;
#651 = AXIS2_PLACEMENT_3D ( 'NONE', #369, #480, #229 ) ;
#652 = EDGE_LOOP ( 'NONE', ( #55, #504, #535, #289 ) ) ;
#653 = AXIS2_PLACEMENT_3D ( 'NONE', #138, #751, #449 ) ;
#654 = DIRECTION ( 'NONE',  ( 0.000000000000000000, -0.1402661271484180461, 0.9901138386947149206 ) ) ;
#655 = PLANE ( 'NONE',  #559 ) ;
#656 = ORIENTED_EDGE ( 'NONE', *, *, #346, .T. ) ;
#657 = UNCERTAINTY_MEASURE_WITH_UNIT (LENGTH_MEASURE( 1.000000000000000082E-05 ), #398, 'distance_accuracy_value', 'NONE');
#658 = CARTESIAN_POINT ( 'NONE',  ( -1.950000000000000178, 0.8999999999999999112, -0.9100000000000001421 ) ) ;
#659 = EDGE_LOOP ( 'NONE', ( #786, #726, #335, #684 ) ) ;
#660 = LINE ( 'NONE', #129, #8 ) ;
#661 = EDGE_CURVE ( 'NONE', #164, #701, #544, .T. ) ;
#662 = FACE_OUTER_BOUND ( 'NONE', #481, .T. ) ;
#663 = VERTEX_POINT ( 'NONE', #181 ) ;
#664 = LINE ( 'NONE', #725, #190 ) ;
#665 = VECTOR ( 'NONE', #606, 1.000000000000000000 ) ;
#666 = LINE ( 'NONE', #546, #169 ) ;
#667 = EDGE_CURVE ( 'NONE', #227, #520, #1, .T. ) ;
#668 = CARTESIAN_POINT ( 'NONE',  ( -12.22500000000000142, -1.189999999999998392, -0.9600000000000001865 ) ) ;
#669 = DIRECTION ( 'NONE',  ( -0.000000000000000000, -1.000000000000000000, -0.000000000000000000 ) ) ;
#670 = ORIENTED_EDGE ( 'NONE', *, *, #91, .T. ) ;
#671 = MECHANICAL_DESIGN_GEOMETRIC_PRESENTATION_REPRESENTATION (  '', ( #356 ), #693 ) ;
#672 = CARTESIAN_POINT ( 'NONE',  ( -12.22500000000000142, -0.8000000000000000444, -0.9100000000000001421 ) ) ;
#673 = CARTESIAN_POINT ( 'NONE',  ( -1.950000000000000178, 0.2000000000000000111, -0.8250000000000000666 ) ) ;
#674 = EDGE_CURVE ( 'NONE', #388, #688, #6, .T. ) ;
#675 = CARTESIAN_POINT ( 'NONE',  ( 0.000000000000000000, -1.189999999999997282, -1.160000000000000142 ) ) ;
#676 = LINE ( 'NONE', #245, #44 ) ;
#677 = EDGE_CURVE ( 'NONE', #89, #721, #262, .T. ) ;
#678 = DIRECTION ( 'NONE',  ( 1.000000000000000000, -0.000000000000000000, -0.000000000000000000 ) ) ;
#679 = ORIENTED_EDGE ( 'NONE', *, *, #217, .F. ) ;
#680 = VECTOR ( 'NONE', #523, 1.000000000000000000 ) ;
#681 = FACE_OUTER_BOUND ( 'NONE', #187, .T. ) ;
#682 = ORIENTED_EDGE ( 'NONE', *, *, #542, .T. ) ;
#683 = CARTESIAN_POINT ( 'NONE',  ( -12.22500000000000142, 1.189999999999998392, -0.9600000000000001865 ) ) ;
#684 = ORIENTED_EDGE ( 'NONE', *, *, #28, .T. ) ;
#685 = APPLICATION_CONTEXT ( 'automotive_design' ) ;
#686 = EDGE_CURVE ( 'NONE', #569, #617, #80, .T. ) ;
#687 = FACE_OUTER_BOUND ( 'NONE', #447, .T. ) ;
#688 = VERTEX_POINT ( 'NONE', #565 ) ;
#689 = EDGE_CURVE ( 'NONE', #721, #777, #326, .T. ) ;
#690 = VECTOR ( 'NONE', #401, 1.000000000000000000 ) ;
#691 = FACE_OUTER_BOUND ( 'NONE', #590, .T. ) ;
#692 = VECTOR ( 'NONE', #310, 1.000000000000000000 ) ;
#693 =( GEOMETRIC_REPRESENTATION_CONTEXT ( 3 ) GLOBAL_UNCERTAINTY_ASSIGNED_CONTEXT ( ( #364 ) ) GLOBAL_UNIT_ASSIGNED_CONTEXT ( ( #95, #531, #222 ) ) REPRESENTATION_CONTEXT ( 'NONE', 'WORKASPACE' ) );
#694 = DIRECTION ( 'NONE',  ( -0.000000000000000000, 0.000000000000000000, 1.000000000000000000 ) ) ;
#695 = FACE_OUTER_BOUND ( 'NONE', #366, .T. ) ;
#696 = ADVANCED_FACE ( 'NONE', ( #681 ), #499, .F. ) ;
#697 = CARTESIAN_POINT ( 'NONE',  ( -12.22500000000000142, -1.189999999999998392, -0.9600000000000001865 ) ) ;
#698 = EDGE_CURVE ( 'NONE', #737, #603, #336, .T. ) ;
#699 = ORIENTED_EDGE ( 'NONE', *, *, #30, .T. ) ;
#700 = DIRECTION ( 'NONE',  ( -0.000000000000000000, -1.000000000000000000, -0.000000000000000000 ) ) ;
#701 = VERTEX_POINT ( 'NONE', #501 ) ;
#702 = ORIENTED_EDGE ( 'NONE', *, *, #586, .F. ) ;
#703 = EDGE_CURVE ( 'NONE', #603, #705, #620, .T. ) ;
#704 = CARTESIAN_POINT ( 'NONE',  ( -11.82500000000000107, -0.2000000000000000111, -0.8250000000000000666 ) ) ;
#705 = VERTEX_POINT ( 'NONE', #387 ) ;
#706 = DIRECTION ( 'NONE',  ( -0.000000000000000000, 0.000000000000000000, -1.000000000000000000 ) ) ;
#707 = ADVANCED_FACE ( 'NONE', ( #266 ), #615, .T. ) ;
#708 = LINE ( 'NONE', #516, #450 ) ;
#709 = ORIENTED_EDGE ( 'NONE', *, *, #521, .F. ) ;
#710 = PRODUCT_CONTEXT ( 'NONE', #685, 'mechanical' ) ;
#711 = FACE_OUTER_BOUND ( 'NONE', #47, .T. ) ;
#712 = CARTESIAN_POINT ( 'NONE',  ( -12.22500000000000142, 0.8000000000000000444, -0.9100000000000001421 ) ) ;
#713 = ORIENTED_EDGE ( 'NONE', *, *, #720, .T. ) ;
#714 = VECTOR ( 'NONE', #125, 1.000000000000000000 ) ;
#715 = ORIENTED_EDGE ( 'NONE', *, *, #781, .F. ) ;
#716 = PLANE ( 'NONE',  #218 ) ;
#717 = CARTESIAN_POINT ( 'NONE',  ( -1.950000000000000178, 1.189999999999998392, -0.9600000000000001865 ) ) ;
#718 = VERTEX_POINT ( 'NONE', #334 ) ;
#719 = CARTESIAN_POINT ( 'NONE',  ( -2.350000000000000089, 1.189999999999998392, -0.9600000000000001865 ) ) ;
#720 = EDGE_CURVE ( 'NONE', #777, #302, #323, .T. ) ;
#721 = VERTEX_POINT ( 'NONE', #264 ) ;
#722 = DIRECTION ( 'NONE',  ( 1.000000000000000000, 2.662968806861045522E-16, 0.000000000000000000 ) ) ;
#723 = FACE_OUTER_BOUND ( 'NONE', #659, .T. ) ;
#724 = ORIENTED_EDGE ( 'NONE', *, *, #40, .T. ) ;
#725 = CARTESIAN_POINT ( 'NONE',  ( -12.22500000000000142, -0.8999999999999999112, -0.9100000000000001421 ) ) ;
#726 = ORIENTED_EDGE ( 'NONE', *, *, #361, .F. ) ;
#727 = CARTESIAN_POINT ( 'NONE',  ( -1.950000000000000178, -0.8000000000000000444, -0.9100000000000001421 ) ) ;
#728 = LINE ( 'NONE', #607, #692 ) ;
#729 = PLANE ( 'NONE',  #625 ) ;
#730 = ORIENTED_EDGE ( 'NONE', *, *, #505, .F. ) ;
#731 = VECTOR ( 'NONE', #163, 1.000000000000000222 ) ;
#732 = DIRECTION ( 'NONE',  ( 0.000000000000000000, 0.000000000000000000, 1.000000000000000000 ) ) ;
#733 = FACE_OUTER_BOUND ( 'NONE', #232, .T. ) ;
#734 = ADVANCED_FACE ( 'NONE', ( #270 ), #329, .T. ) ;
#735 = VECTOR ( 'NONE', #669, 1.000000000000000000 ) ;
#736 = CARTESIAN_POINT ( 'NONE',  ( 0.000000000000000000, -1.189999999999997282, -0.9600000000000001865 ) ) ;
#737 = VERTEX_POINT ( 'NONE', #510 ) ;
#738 = VECTOR ( 'NONE', #83, 1.000000000000000000 ) ;
#739 = CARTESIAN_POINT ( 'NONE',  ( -12.22500000000000142, -0.2000000000000000111, -0.8250000000000000666 ) ) ;
#740 = ADVANCED_FACE ( 'NONE', ( #199 ), #203, .F. ) ;
#741 = FACE_OUTER_BOUND ( 'NONE', #84, .T. ) ;
#742 = ORIENTED_EDGE ( 'NONE', *, *, #380, .F. ) ;
#743 = LINE ( 'NONE', #789, #185 ) ;
#744 = DIRECTION ( 'NONE',  ( 0.000000000000000000, -1.000000000000000000, 0.000000000000000000 ) ) ;
#745 = ORIENTED_EDGE ( 'NONE', *, *, #572, .T. ) ;
#746 = VECTOR ( 'NONE', #233, 1.000000000000000222 ) ;
#747 = DIRECTION ( 'NONE',  ( 0.000000000000000000, -1.000000000000000000, -0.000000000000000000 ) ) ;
#748 = ORIENTED_EDGE ( 'NONE', *, *, #338, .T. ) ;
#749 = EDGE_CURVE ( 'NONE', #573, #227, #390, .T. ) ;
#750 = VECTOR ( 'NONE', #491, 1.000000000000000000 ) ;
#751 = DIRECTION ( 'NONE',  ( 1.000000000000000000, 0.000000000000000000, -0.000000000000000000 ) ) ;
#752 = VERTEX_POINT ( 'NONE', #441 ) ;
#753 = ADVANCED_FACE ( 'NONE', ( #687 ), #23, .T. ) ;
#754 = DIRECTION ( 'NONE',  ( 0.000000000000000000, 0.1699069165076472487, 0.9854601157443478865 ) ) ;
#755 = EDGE_LOOP ( 'NONE', ( #386, #180, #730, #350 ) ) ;
#756 = PRESENTATION_LAYER_ASSIGNMENT (  '', '', ( #271 ) ) ;
#757 = CARTESIAN_POINT ( 'NONE',  ( -1.950000000000000178, 1.189999999999998392, -0.9600000000000001865 ) ) ;
#758 = ADVANCED_FACE ( 'NONE', ( #695 ), #144, .T. ) ;
#759 = CARTESIAN_POINT ( 'NONE',  ( -14.17500000000000071, -1.190000000000001057, -1.160000000000000142 ) ) ;
#760 = PLANE ( 'NONE',  #74 ) ;
#761 = ADVANCED_FACE ( 'NONE', ( #691 ), #150, .T. ) ;
#762 = LINE ( 'NONE', #643, #258 ) ;
#763 = VERTEX_POINT ( 'NONE', #347 ) ;
#764 = LINE ( 'NONE', #215, #251 ) ;
#765 = CARTESIAN_POINT ( 'NONE',  ( -12.22500000000000142, -1.189999999999998392, -0.9600000000000001865 ) ) ;
#766 = CARTESIAN_POINT ( 'NONE',  ( -12.22500000000000142, 0.8999999999999999112, -0.9100000000000001421 ) ) ;
#767 = VERTEX_POINT ( 'NONE', #632 ) ;
#768 = AXIS2_PLACEMENT_3D ( 'NONE', #581, #341, #706 ) ;
#769 = DIRECTION ( 'NONE',  ( 0.000000000000000000, -0.9901138386947149206, -0.1402661271484180461 ) ) ;
#770 = CARTESIAN_POINT ( 'NONE',  ( -1.950000000000000178, 1.189999999999998392, -0.9600000000000001865 ) ) ;
#771 =( GEOMETRIC_REPRESENTATION_CONTEXT ( 3 ) GLOBAL_UNCERTAINTY_ASSIGNED_CONTEXT ( ( #657 ) ) GLOBAL_UNIT_ASSIGNED_CONTEXT ( ( #398, #36, #110 ) ) REPRESENTATION_CONTEXT ( 'NONE', 'WORKASPACE' ) );
#772 = ORIENTED_EDGE ( 'NONE', *, *, #508, .T. ) ;
#773 = FILL_AREA_STYLE_COLOUR ( '', #526 ) ;
#774 = ORIENTED_EDGE ( 'NONE', *, *, #28, .F. ) ;
#775 = CARTESIAN_POINT ( 'NONE',  ( -11.82500000000000107, 1.189999999999998392, -0.9600000000000001865 ) ) ;
#776 = ORIENTED_EDGE ( 'NONE', *, *, #338, .F. ) ;
#777 = VERTEX_POINT ( 'NONE', #514 ) ;
#778 = LINE ( 'NONE', #357, #440 ) ;
#779 = CARTESIAN_POINT ( 'NONE',  ( -1.950000000000000178, 0.2000000000000000111, -0.8250000000000000666 ) ) ;
#780 = ORIENTED_EDGE ( 'NONE', *, *, #508, .F. ) ;
#781 = EDGE_CURVE ( 'NONE', #763, #411, #762, .T. ) ;
#782 = DIRECTION ( 'NONE',  ( 1.000000000000000000, -0.000000000000000000, -0.000000000000000000 ) ) ;
#783 = VECTOR ( 'NONE', #769, 1.000000000000000000 ) ;
#784 = CARTESIAN_POINT ( 'NONE',  ( -1.950000000000000178, 0.8000000000000000444, -0.9100000000000001421 ) ) ;
#785 = PLANE ( 'NONE',  #22 ) ;
#786 = ORIENTED_EDGE ( 'NONE', *, *, #703, .T. ) ;
#787 = DIRECTION ( 'NONE',  ( -1.000000000000000000, -1.566452239330026778E-17, -0.000000000000000000 ) ) ;
#788 = VERTEX_POINT ( 'NONE', #284 ) ;
#789 = CARTESIAN_POINT ( 'NONE',  ( -14.17500000000000071, -1.190000000000001057, -0.9600000000000001865 ) ) ;
#790 = DIRECTION ( 'NONE',  ( 0.000000000000000000, 0.000000000000000000, -1.000000000000000000 ) ) ;
ENDSEC;
END-ISO-10303-21;
