ISO-10303-21;
HEADER;
FILE_DESCRIPTION (( 'STEP AP214' ),
    '1' );
FILE_NAME ('WagonPlane_90ft_LessDetailed.STEP',
    '2026-02-24T13:12:12',
    ( '' ),
    ( '' ),
    'SwSTEP 2.0',
    'SolidWorks 2022',
    '' );
FILE_SCHEMA (( 'AUTOMOTIVE_DESIGN' ));
ENDSEC;

DATA;
#1 = EDGE_LOOP ( 'NONE', ( #508, #436, #20, #1009 ) ) ;
#2 = ORIENTED_EDGE ( 'NONE', *, *, #676, .T. ) ;
#3 =( GEOMETRIC_REPRESENTATION_CONTEXT ( 3 ) GLOBAL_UNCERTAINTY_ASSIGNED_CONTEXT ( ( #238 ) ) GLOBAL_UNIT_ASSIGNED_CONTEXT ( ( #633, #220, #638 ) ) REPRESENTATION_CONTEXT ( 'NONE', 'WORKASPACE' ) );
#4 = CARTESIAN_POINT ( 'NONE',  ( -2.350000000000000089, 0.8000000000000000444, -0.9100000000000001421 ) ) ;
#5 = VECTOR ( 'NONE', #151, 1.000000000000000000 ) ;
#6 = ORIENTED_EDGE ( 'NONE', *, *, #1080, .F. ) ;
#7 = VERTEX_POINT ( 'NONE', #567 ) ;
#8 = DIRECTION ( 'NONE',  ( -1.000000000000000000, 2.662968806861045522E-16, 0.000000000000000000 ) ) ;
#9 = CARTESIAN_POINT ( 'NONE',  ( -14.37500000000000000, 0.8000000000000000444, -0.9100000000000001421 ) ) ;
#10 = VERTEX_POINT ( 'NONE', #416 ) ;
#11 = PLANE ( 'NONE',  #323 ) ;
#12 = CARTESIAN_POINT ( 'NONE',  ( -1.950000000000000178, 0.000000000000000000, 0.000000000000000000 ) ) ;
#13 = ORIENTED_EDGE ( 'NONE', *, *, #627, .T. ) ;
#14 = PLANE ( 'NONE',  #720 ) ;
#15 = VECTOR ( 'NONE', #209, 1.000000000000000000 ) ;
#16 = VERTEX_POINT ( 'NONE', #9 ) ;
#17 = DIRECTION ( 'NONE',  ( -9.329605248950915154E-17, 1.000000000000000000, -0.000000000000000000 ) ) ;
#18 = EDGE_CURVE ( 'NONE', #915, #652, #837, .T. ) ;
#19 = DIRECTION ( 'NONE',  ( -1.000000000000000000, -1.566452239330026778E-17, -0.000000000000000000 ) ) ;
#20 = ORIENTED_EDGE ( 'NONE', *, *, #988, .F. ) ;
#21 = DIRECTION ( 'NONE',  ( 0.000000000000000000, -1.000000000000000000, 0.000000000000000000 ) ) ;
#22 = CARTESIAN_POINT ( 'NONE',  ( -1.950000000000000178, -0.8000000000000000444, -0.9100000000000001421 ) ) ;
#23 = PLANE ( 'NONE',  #222 ) ;
#24 = EDGE_LOOP ( 'NONE', ( #917, #263, #712, #102 ) ) ;
#25 = LINE ( 'NONE', #708, #629 ) ;
#26 = EDGE_CURVE ( 'NONE', #92, #678, #498, .T. ) ;
#27 = LINE ( 'NONE', #1042, #83 ) ;
#28 = DIRECTION ( 'NONE',  ( -1.000000000000000000, 0.000000000000000000, 0.000000000000000000 ) ) ;
#29 = SURFACE_STYLE_FILL_AREA ( #781 ) ;
#30 = AXIS2_PLACEMENT_3D ( 'NONE', #911, #483, #228 ) ;
#31 = CARTESIAN_POINT ( 'NONE',  ( -26.00000000000000000, 0.8000000000000000444, -0.9100000000000001421 ) ) ;
#32 = AXIS2_PLACEMENT_3D ( 'NONE', #585, #410, #157 ) ;
#33 = VECTOR ( 'NONE', #469, 1.000000000000000000 ) ;
#34 = ORIENTED_EDGE ( 'NONE', *, *, #477, .F. ) ;
#35 = DIRECTION ( 'NONE',  ( 1.000000000000000000, 0.000000000000000000, 0.000000000000000000 ) ) ;
#36 = CARTESIAN_POINT ( 'NONE',  ( -1.950000000000000178, -0.8999999999999999112, -0.9100000000000001421 ) ) ;
#37 = LINE ( 'NONE', #371, #64 ) ;
#38 = VERTEX_POINT ( 'NONE', #171 ) ;
#39 = FACE_OUTER_BOUND ( 'NONE', #309, .T. ) ;
#40 = DIRECTION ( 'NONE',  ( 0.000000000000000000, 0.1402661271484180461, 0.9901138386947149206 ) ) ;
#41 = CARTESIAN_POINT ( 'NONE',  ( -28.35000000000000142, -1.189999999999997282, -1.160000000000000142 ) ) ;
#42 = LINE ( 'NONE', #1016, #809 ) ;
#43 = CARTESIAN_POINT ( 'NONE',  ( -26.40000000000000213, -0.2000000000000000111, -0.8250000000000000666 ) ) ;
#44 = EDGE_CURVE ( 'NONE', #935, #672, #507, .T. ) ;
#45 = ORIENTED_EDGE ( 'NONE', *, *, #388, .T. ) ;
#46 = LINE ( 'NONE', #130, #788 ) ;
#47 = CARTESIAN_POINT ( 'NONE',  ( -13.97500000000000142, 0.8000000000000000444, -0.9100000000000001421 ) ) ;
#48 = LINE ( 'NONE', #302, #985 ) ;
#49 = AXIS2_PLACEMENT_3D ( 'NONE', #826, #1079, #998 ) ;
#50 = VERTEX_POINT ( 'NONE', #828 ) ;
#51 = FACE_OUTER_BOUND ( 'NONE', #971, .T. ) ;
#52 = DIRECTION ( 'NONE',  ( 0.000000000000000000, -0.9901138386947148096, -0.1402661271484180183 ) ) ;
#53 = DIRECTION ( 'NONE',  ( 1.000000000000000000, 0.000000000000000000, -0.000000000000000000 ) ) ;
#54 = EDGE_CURVE ( 'NONE', #652, #259, #72, .T. ) ;
#55 = ORIENTED_EDGE ( 'NONE', *, *, #598, .F. ) ;
#56 = CARTESIAN_POINT ( 'NONE',  ( -26.00000000000000000, -0.8999999999999999112, -0.9100000000000001421 ) ) ;
#57 = EDGE_CURVE ( 'NONE', #921, #428, #465, .T. ) ;
#58 = CARTESIAN_POINT ( 'NONE',  ( -26.40000000000000213, 0.8000000000000000444, -0.9100000000000001421 ) ) ;
#59 = DIRECTION ( 'NONE',  ( -0.000000000000000000, 1.000000000000000000, -0.000000000000000000 ) ) ;
#60 = EDGE_LOOP ( 'NONE', ( #160, #158, #418, #561 ) ) ;
#61 = DIRECTION ( 'NONE',  ( 0.000000000000000000, 0.9854601157443477755, -0.1699069165076475818 ) ) ;
#62 = CARTESIAN_POINT ( 'NONE',  ( -1.950000000000000178, -0.8999999999999999112, -0.9100000000000001421 ) ) ;
#63 = ORIENTED_EDGE ( 'NONE', *, *, #924, .T. ) ;
#64 = VECTOR ( 'NONE', #441, 1.000000000000000000 ) ;
#65 = AXIS2_PLACEMENT_3D ( 'NONE', #360, #1037, #709 ) ;
#66 = LINE ( 'NONE', #405, #1017 ) ;
#67 = EDGE_CURVE ( 'NONE', #286, #193, #377, .T. ) ;
#68 = DIRECTION ( 'NONE',  ( 1.000000000000000000, 0.000000000000000000, 0.000000000000000000 ) ) ;
#69 = LINE ( 'NONE', #697, #534 ) ;
#70 = DIRECTION ( 'NONE',  ( 1.000000000000000000, -0.000000000000000000, -0.000000000000000000 ) ) ;
#71 = EDGE_CURVE ( 'NONE', #246, #634, #42, .T. ) ;
#72 = LINE ( 'NONE', #276, #1071 ) ;
#73 = ORIENTED_EDGE ( 'NONE', *, *, #1018, .T. ) ;
#74 = CARTESIAN_POINT ( 'NONE',  ( -13.97500000000000142, -0.8000000000000000444, -0.9100000000000001421 ) ) ;
#75 = ORIENTED_EDGE ( 'NONE', *, *, #18, .T. ) ;
#76 = ORIENTED_EDGE ( 'NONE', *, *, #460, .F. ) ;
#77 = VERTEX_POINT ( 'NONE', #549 ) ;
#78 = DIRECTION ( 'NONE',  ( 0.000000000000000000, 0.9901138386947149206, -0.1402661271484180461 ) ) ;
#79 = VERTEX_POINT ( 'NONE', #956 ) ;
#80 = ORIENTED_EDGE ( 'NONE', *, *, #838, .T. ) ;
#81 = STYLED_ITEM ( 'NONE', ( #461 ), #551 ) ;
#82 = DIRECTION ( 'NONE',  ( 0.000000000000000000, 0.9854601157443477755, 0.1699069165076474708 ) ) ;
#83 = VECTOR ( 'NONE', #1023, 1.000000000000000222 ) ;
#84 = ADVANCED_FACE ( 'NONE', ( #384 ), #1050, .T. ) ;
#85 = ORIENTED_EDGE ( 'NONE', *, *, #711, .T. ) ;
#86 = EDGE_LOOP ( 'NONE', ( #241, #929, #774, #798, #1000, #763, #181, #793 ) ) ;
#87 = EDGE_CURVE ( 'NONE', #748, #834, #527, .T. ) ;
#88 = DIRECTION ( 'NONE',  ( -1.000000000000000000, 0.000000000000000000, 0.000000000000000000 ) ) ;
#89 = ORIENTED_EDGE ( 'NONE', *, *, #493, .F. ) ;
#90 = ORIENTED_EDGE ( 'NONE', *, *, #354, .T. ) ;
#91 = FACE_OUTER_BOUND ( 'NONE', #778, .T. ) ;
#92 = VERTEX_POINT ( 'NONE', #115 ) ;
#93 = AXIS2_PLACEMENT_3D ( 'NONE', #576, #830, #68 ) ;
#94 = VERTEX_POINT ( 'NONE', #632 ) ;
#95 = DIRECTION ( 'NONE',  ( 1.000000000000000000, 0.000000000000000000, -0.000000000000000000 ) ) ;
#96 = EDGE_CURVE ( 'NONE', #805, #921, #363, .T. ) ;
#97 = VECTOR ( 'NONE', #609, 1.000000000000000000 ) ;
#98 = DIRECTION ( 'NONE',  ( 0.000000000000000000, 0.9901138386947148096, 0.1402661271484180183 ) ) ;
#99 = DIRECTION ( 'NONE',  ( 0.000000000000000000, -0.1699069165076474708, 0.9854601157443477755 ) ) ;
#100 = AXIS2_PLACEMENT_3D ( 'NONE', #369, #531, #98 ) ;
#101 = ADVANCED_FACE ( 'NONE', ( #705 ), #210, .F. ) ;
#102 = ORIENTED_EDGE ( 'NONE', *, *, #744, .F. ) ;
#103 = LINE ( 'NONE', #868, #97 ) ;
#104 = DIRECTION ( 'NONE',  ( 0.000000000000000000, 0.9854601157443477755, 0.1699069165076474708 ) ) ;
#105 = FACE_OUTER_BOUND ( 'NONE', #580, .T. ) ;
#106 = CARTESIAN_POINT ( 'NONE',  ( -14.17500000000000071, 1.189999999999997504, -1.160000000000000142 ) ) ;
#107 = ORIENTED_EDGE ( 'NONE', *, *, #756, .F. ) ;
#108 = LINE ( 'NONE', #941, #152 ) ;
#109 = LINE ( 'NONE', #208, #166 ) ;
#110 = CARTESIAN_POINT ( 'NONE',  ( -1.949999999999999289, -1.189999999999997726, -0.9600000000000001865 ) ) ;
#111 = ORIENTED_EDGE ( 'NONE', *, *, #379, .F. ) ;
#112 = DIRECTION ( 'NONE',  ( -0.000000000000000000, 0.000000000000000000, 1.000000000000000000 ) ) ;
#113 = CARTESIAN_POINT ( 'NONE',  ( -1.950000000000000178, 1.189999999999998392, -0.9600000000000001865 ) ) ;
#114 = FACE_OUTER_BOUND ( 'NONE', #833, .T. ) ;
#115 = CARTESIAN_POINT ( 'NONE',  ( -26.40000000000000213, 0.2000000000000000111, -0.8250000000000000666 ) ) ;
#116 = CARTESIAN_POINT ( 'NONE',  ( -26.00000000000000000, -1.189999999999998392, -0.9600000000000001865 ) ) ;
#117 = APPLICATION_CONTEXT ( 'automotive_design' ) ;
#118 = VECTOR ( 'NONE', #653, 1.000000000000000222 ) ;
#119 = ORIENTED_EDGE ( 'NONE', *, *, #924, .F. ) ;
#120 = DIRECTION ( 'NONE',  ( -1.000000000000000000, -0.000000000000000000, -0.000000000000000000 ) ) ;
#121 = DIRECTION ( 'NONE',  ( 9.329605248950915154E-17, 1.000000000000000000, 0.000000000000000000 ) ) ;
#122 = LINE ( 'NONE', #955, #972 ) ;
#123 = ADVANCED_FACE ( 'NONE', ( #802 ), #722, .F. ) ;
#124 = SURFACE_STYLE_USAGE ( .BOTH. , #291 ) ;
#125 = ORIENTED_EDGE ( 'NONE', *, *, #379, .T. ) ;
#126 = FACE_OUTER_BOUND ( 'NONE', #1019, .T. ) ;
#127 = LINE ( 'NONE', #383, #625 ) ;
#128 = DIRECTION ( 'NONE',  ( 0.000000000000000000, -0.9901138386947149206, 0.1402661271484180461 ) ) ;
#129 = ORIENTED_EDGE ( 'NONE', *, *, #26, .T. ) ;
#130 = CARTESIAN_POINT ( 'NONE',  ( -26.40000000000000213, -0.8999999999999999112, -0.9100000000000001421 ) ) ;
#131 = DIRECTION ( 'NONE',  ( -1.000000000000000000, 0.000000000000000000, 0.000000000000000000 ) ) ;
#132 = EDGE_CURVE ( 'NONE', #337, #1065, #729, .T. ) ;
#133 = CARTESIAN_POINT ( 'NONE',  ( -1.950000000000000178, -0.2000000000000000111, -0.8250000000000000666 ) ) ;
#134 = VECTOR ( 'NONE', #814, 1.000000000000000000 ) ;
#135 = DIRECTION ( 'NONE',  ( 9.329605248950915154E-17, 1.000000000000000000, 0.000000000000000000 ) ) ;
#136 = EDGE_CURVE ( 'NONE', #50, #672, #391, .T. ) ;
#137 = ORIENTED_EDGE ( 'NONE', *, *, #411, .T. ) ;
#138 = AXIS2_PLACEMENT_3D ( 'NONE', #544, #619, #761 ) ;
#139 = CARTESIAN_POINT ( 'NONE',  ( -26.40000000000000213, 1.189999999999998392, -0.9600000000000001865 ) ) ;
#140 = DIRECTION ( 'NONE',  ( 1.000000000000000000, -1.566452239330026778E-17, -0.000000000000000000 ) ) ;
#141 = CARTESIAN_POINT ( 'NONE',  ( -13.97500000000000142, 0.8999999999999999112, -0.9100000000000001421 ) ) ;
#142 = ORIENTED_EDGE ( 'NONE', *, *, #388, .F. ) ;
#143 = DIRECTION ( 'NONE',  ( -1.000000000000000000, 0.000000000000000000, -0.000000000000000000 ) ) ;
#144 = DIRECTION ( 'NONE',  ( -0.000000000000000000, -1.000000000000000000, -0.000000000000000000 ) ) ;
#145 = CARTESIAN_POINT ( 'NONE',  ( -1.950000000000000178, 0.8999999999999999112, -0.9100000000000001421 ) ) ;
#146 = EDGE_CURVE ( 'NONE', #734, #867, #109, .T. ) ;
#147 = EDGE_LOOP ( 'NONE', ( #322, #717, #76, #667 ) ) ;
#148 = DIRECTION ( 'NONE',  ( -0.000000000000000000, -1.000000000000000000, -0.000000000000000000 ) ) ;
#149 = DIRECTION ( 'NONE',  ( 0.000000000000000000, 0.1699069165076476096, 0.9854601157443477755 ) ) ;
#150 = AXIS2_PLACEMENT_3D ( 'NONE', #604, #99, #948 ) ;
#151 = DIRECTION ( 'NONE',  ( 0.000000000000000000, 0.9901138386947149206, 0.1402661271484180461 ) ) ;
#152 = VECTOR ( 'NONE', #458, 1.000000000000000000 ) ;
#153 = VECTOR ( 'NONE', #104, 1.000000000000000000 ) ;
#154 = ORIENTED_EDGE ( 'NONE', *, *, #711, .F. ) ;
#155 = VERTEX_POINT ( 'NONE', #260 ) ;
#156 = ORIENTED_EDGE ( 'NONE', *, *, #493, .T. ) ;
#157 = DIRECTION ( 'NONE',  ( 0.000000000000000000, 0.9854601157443477755, 0.1699069165076472210 ) ) ;
#158 = ORIENTED_EDGE ( 'NONE', *, *, #768, .F. ) ;
#159 = ORIENTED_EDGE ( 'NONE', *, *, #1038, .F. ) ;
#160 = ORIENTED_EDGE ( 'NONE', *, *, #988, .T. ) ;
#161 = CARTESIAN_POINT ( 'NONE',  ( -28.35000000000000142, -1.189999999999997282, -0.9600000000000001865 ) ) ;
#162 = ADVANCED_FACE ( 'NONE', ( #346 ), #451, .F. ) ;
#163 = ORIENTED_EDGE ( 'NONE', *, *, #591, .F. ) ;
#164 = ADVANCED_FACE ( 'NONE', ( #876 ), #265, .F. ) ;
#165 = ORIENTED_EDGE ( 'NONE', *, *, #1055, .F. ) ;
#166 = VECTOR ( 'NONE', #445, 1.000000000000000222 ) ;
#167 = ORIENTED_EDGE ( 'NONE', *, *, #273, .T. ) ;
#168 = VECTOR ( 'NONE', #622, 1.000000000000000000 ) ;
#169 = CARTESIAN_POINT ( 'NONE',  ( -14.37500000000000000, 0.2000000000000000111, -0.8250000000000000666 ) ) ;
#170 = AXIS2_PLACEMENT_3D ( 'NONE', #139, #1067, #658 ) ;
#171 = CARTESIAN_POINT ( 'NONE',  ( -2.350000000000000089, 0.8000000000000000444, -0.9100000000000001421 ) ) ;
#172 = APPLICATION_CONTEXT ( 'automotive_design' ) ;
#173 = ORIENTED_EDGE ( 'NONE', *, *, #44, .F. ) ;
#174 = LINE ( 'NONE', #74, #308 ) ;
#175 = EDGE_CURVE ( 'NONE', #7, #936, #27, .T. ) ;
#176 = ORIENTED_EDGE ( 'NONE', *, *, #838, .F. ) ;
#177 = VERTEX_POINT ( 'NONE', #358 ) ;
#178 = DIRECTION ( 'NONE',  ( -1.000000000000000000, 0.000000000000000000, -0.000000000000000000 ) ) ;
#179 = FACE_OUTER_BOUND ( 'NONE', #212, .T. ) ;
#180 = ADVANCED_FACE ( 'NONE', ( #182 ), #863, .T. ) ;
#181 = ORIENTED_EDGE ( 'NONE', *, *, #519, .T. ) ;
#182 = FACE_OUTER_BOUND ( 'NONE', #1, .T. ) ;
#183 = VECTOR ( 'NONE', #78, 1.000000000000000000 ) ;
#184 = DIRECTION ( 'NONE',  ( 0.000000000000000000, 0.9901138386947149206, -0.1402661271484180461 ) ) ;
#185 = EDGE_CURVE ( 'NONE', #915, #805, #701, .T. ) ;
#186 = CARTESIAN_POINT ( 'NONE',  ( 0.000000000000000000, 0.000000000000000000, -0.9600000000000001865 ) ) ;
#187 = VECTOR ( 'NONE', #283, 1.000000000000000000 ) ;
#188 = ORIENTED_EDGE ( 'NONE', *, *, #744, .T. ) ;
#189 = DIRECTION ( 'NONE',  ( 0.000000000000000000, -0.9901138386947148096, 0.1402661271484180183 ) ) ;
#190 = CARTESIAN_POINT ( 'NONE',  ( -2.220446049250313081E-16, 1.189999999999997726, -0.9600000000000001865 ) ) ;
#191 = CARTESIAN_POINT ( 'NONE',  ( -2.350000000000000089, 0.000000000000000000, 0.000000000000000000 ) ) ;
#192 = LINE ( 'NONE', #872, #843 ) ;
#193 = VERTEX_POINT ( 'NONE', #281 ) ;
#194 = FACE_OUTER_BOUND ( 'NONE', #930, .T. ) ;
#195 = CARTESIAN_POINT ( 'NONE',  ( -14.37500000000000000, -1.190000000000001057, -0.9600000000000001865 ) ) ;
#196 = EDGE_CURVE ( 'NONE', #79, #339, #374, .T. ) ;
#197 = CARTESIAN_POINT ( 'NONE',  ( -14.37500000000000000, 0.2000000000000000111, -0.8250000000000000666 ) ) ;
#198 = ORIENTED_EDGE ( 'NONE', *, *, #973, .F. ) ;
#199 = EDGE_CURVE ( 'NONE', #755, #1065, #272, .T. ) ;
#200 = CARTESIAN_POINT ( 'NONE',  ( -26.40000000000000213, 0.000000000000000000, 0.000000000000000000 ) ) ;
#201 = CARTESIAN_POINT ( 'NONE',  ( -14.37500000000000000, 0.8000000000000000444, -0.9100000000000001421 ) ) ;
#202 = LINE ( 'NONE', #884, #681 ) ;
#203 = DIRECTION ( 'NONE',  ( 0.000000000000000000, 0.000000000000000000, 1.000000000000000000 ) ) ;
#204 = VECTOR ( 'NONE', #120, 1.000000000000000000 ) ;
#205 = FILL_AREA_STYLE_COLOUR ( '', #822 ) ;
#206 = VECTOR ( 'NONE', #714, 1.000000000000000000 ) ;
#207 = ORIENTED_EDGE ( 'NONE', *, *, #440, .F. ) ;
#208 = CARTESIAN_POINT ( 'NONE',  ( -1.950000000000000178, -1.189999999999998392, -0.9600000000000001865 ) ) ;
#209 = DIRECTION ( 'NONE',  ( -0.000000000000000000, -0.9901138386947149206, -0.1402661271484180461 ) ) ;
#210 = PLANE ( 'NONE',  #138 ) ;
#211 = FACE_OUTER_BOUND ( 'NONE', #683, .T. ) ;
#212 = EDGE_LOOP ( 'NONE', ( #334, #462, #252, #279 ) ) ;
#213 = EDGE_CURVE ( 'NONE', #16, #155, #966, .T. ) ;
#214 = CARTESIAN_POINT ( 'NONE',  ( -26.00000000000000000, -0.2000000000000000111, -0.8250000000000000666 ) ) ;
#215 = DIRECTION ( 'NONE',  ( 0.000000000000000000, 0.000000000000000000, 1.000000000000000000 ) ) ;
#216 = EDGE_CURVE ( 'NONE', #748, #256, #882, .T. ) ;
#217 = DIRECTION ( 'NONE',  ( 0.000000000000000000, -0.000000000000000000, 1.000000000000000000 ) ) ;
#218 = VERTEX_POINT ( 'NONE', #1048 ) ;
#219 = DIRECTION ( 'NONE',  ( 0.000000000000000000, -0.1402661271484180461, 0.9901138386947149206 ) ) ;
#220 =( NAMED_UNIT ( * ) PLANE_ANGLE_UNIT ( ) SI_UNIT ( $, .RADIAN. ) );
#221 = ADVANCED_FACE ( 'NONE', ( #288 ), #630, .F. ) ;
#222 = AXIS2_PLACEMENT_3D ( 'NONE', #1039, #545, #892 ) ;
#223 = ORIENTED_EDGE ( 'NONE', *, *, #185, .F. ) ;
#224 = CARTESIAN_POINT ( 'NONE',  ( -1.950000000000000178, -0.2000000000000000111, -0.8250000000000000666 ) ) ;
#225 = LINE ( 'NONE', #62, #751 ) ;
#226 = DIRECTION ( 'NONE',  ( 0.000000000000000000, -0.9854601157443477755, 0.1699069165076472210 ) ) ;
#227 = ORIENTED_EDGE ( 'NONE', *, *, #749, .T. ) ;
#228 = DIRECTION ( 'NONE',  ( 0.000000000000000000, 0.9901138386947148096, -0.1402661271484180183 ) ) ;
#229 = FACE_OUTER_BOUND ( 'NONE', #86, .T. ) ;
#230 = LINE ( 'NONE', #560, #700 ) ;
#231 = ORIENTED_EDGE ( 'NONE', *, *, #257, .T. ) ;
#232 = ADVANCED_FACE ( 'NONE', ( #126 ), #463, .F. ) ;
#233 = LINE ( 'NONE', #320, #666 ) ;
#234 = VECTOR ( 'NONE', #131, 1.000000000000000000 ) ;
#235 = VERTEX_POINT ( 'NONE', #986 ) ;
#236 = AXIS2_PLACEMENT_3D ( 'NONE', #200, #535, #794 ) ;
#237 = AXIS2_PLACEMENT_3D ( 'NONE', #617, #869, #1043 ) ;
#238 = UNCERTAINTY_MEASURE_WITH_UNIT (LENGTH_MEASURE( 1.000000000000000082E-05 ), #633, 'distance_accuracy_value', 'NONE');
#239 = ORIENTED_EDGE ( 'NONE', *, *, #871, .F. ) ;
#240 = FACE_OUTER_BOUND ( 'NONE', #1040, .T. ) ;
#241 = ORIENTED_EDGE ( 'NONE', *, *, #175, .T. ) ;
#242 = ORIENTED_EDGE ( 'NONE', *, *, #146, .F. ) ;
#243 = EDGE_CURVE ( 'NONE', #678, #79, #563, .T. ) ;
#244 = CARTESIAN_POINT ( 'NONE',  ( -14.17500000000000071, -1.190000000000001057, -1.160000000000000142 ) ) ;
#245 = EDGE_CURVE ( 'NONE', #339, #816, #635, .T. ) ;
#246 = VERTEX_POINT ( 'NONE', #977 ) ;
#247 = ORIENTED_EDGE ( 'NONE', *, *, #376, .T. ) ;
#248 = CARTESIAN_POINT ( 'NONE',  ( -13.97500000000000142, -0.2000000000000000111, -0.8250000000000000666 ) ) ;
#249 = DIRECTION ( 'NONE',  ( 0.000000000000000000, -0.9854601157443477755, 0.1699069165076472210 ) ) ;
#250 = ORIENTED_EDGE ( 'NONE', *, *, #1066, .F. ) ;
#251 = AXIS2_PLACEMENT_3D ( 'NONE', #43, #698, #605 ) ;
#252 = ORIENTED_EDGE ( 'NONE', *, *, #804, .T. ) ;
#253 = PLANE ( 'NONE',  #32 ) ;
#254 = VECTOR ( 'NONE', #903, 1.000000000000000000 ) ;
#255 = ADVANCED_FACE ( 'NONE', ( #547 ), #894, .F. ) ;
#256 = VERTEX_POINT ( 'NONE', #813 ) ;
#257 = EDGE_CURVE ( 'NONE', #1081, #873, #799, .T. ) ;
#258 = CARTESIAN_POINT ( 'NONE',  ( -14.17500000000000071, -1.190000000000001057, -0.9600000000000001865 ) ) ;
#259 = VERTEX_POINT ( 'NONE', #1077 ) ;
#260 = CARTESIAN_POINT ( 'NONE',  ( -14.37500000000000000, 0.8999999999999999112, -0.9100000000000001421 ) ) ;
#261 = PLANE ( 'NONE',  #65 ) ;
#262 = PLANE ( 'NONE',  #251 ) ;
#263 = ORIENTED_EDGE ( 'NONE', *, *, #361, .F. ) ;
#264 = VECTOR ( 'NONE', #148, 1.000000000000000000 ) ;
#265 = PLANE ( 'NONE',  #827 ) ;
#266 = VECTOR ( 'NONE', #963, 1.000000000000000000 ) ;
#267 = DIRECTION ( 'NONE',  ( 0.000000000000000000, 0.000000000000000000, 1.000000000000000000 ) ) ;
#268 =( NAMED_UNIT ( * ) PLANE_ANGLE_UNIT ( ) SI_UNIT ( $, .RADIAN. ) );
#269 = PLANE ( 'NONE',  #590 ) ;
#270 = VECTOR ( 'NONE', #810, 1.000000000000000000 ) ;
#271 = ORIENTED_EDGE ( 'NONE', *, *, #370, .T. ) ;
#272 = LINE ( 'NONE', #795, #365 ) ;
#273 = EDGE_CURVE ( 'NONE', #246, #816, #46, .T. ) ;
#274 = CARTESIAN_POINT ( 'NONE',  ( -2.349999999999999645, -1.189999999999997948, -0.9600000000000001865 ) ) ;
#275 =( LENGTH_UNIT ( ) NAMED_UNIT ( * ) SI_UNIT ( $, .METRE. ) );
#276 = CARTESIAN_POINT ( 'NONE',  ( -1.950000000000000178, 0.8999999999999999112, -0.9100000000000001421 ) ) ;
#277 = DIRECTION ( 'NONE',  ( 1.000000000000000000, 2.662968806861045522E-16, 0.000000000000000000 ) ) ;
#278 = ADVANCED_FACE ( 'NONE', ( #51 ), #807, .F. ) ;
#279 = ORIENTED_EDGE ( 'NONE', *, *, #1030, .T. ) ;
#280 = CARTESIAN_POINT ( 'NONE',  ( -26.40000000000000213, -1.189999999999998392, -0.9600000000000001865 ) ) ;
#281 = CARTESIAN_POINT ( 'NONE',  ( -2.350000000000000089, -0.2000000000000000111, -0.8250000000000000666 ) ) ;
#282 = LINE ( 'NONE', #780, #1015 ) ;
#283 = DIRECTION ( 'NONE',  ( 0.000000000000000000, -1.000000000000000000, 0.000000000000000000 ) ) ;
#284 = CARTESIAN_POINT ( 'NONE',  ( -2.350000000000000089, 0.2000000000000000111, -0.8250000000000000666 ) ) ;
#285 = EDGE_CURVE ( 'NONE', #552, #10, #647, .T. ) ;
#286 = VERTEX_POINT ( 'NONE', #224 ) ;
#287 = DIRECTION ( 'NONE',  ( -1.000000000000000000, -0.000000000000000000, -0.000000000000000000 ) ) ;
#288 = FACE_OUTER_BOUND ( 'NONE', #849, .T. ) ;
#289 = CARTESIAN_POINT ( 'NONE',  ( -13.97500000000000142, 1.189999999999997504, -0.9600000000000001865 ) ) ;
#290 = DIRECTION ( 'NONE',  ( -1.000000000000000000, -0.000000000000000000, -0.000000000000000000 ) ) ;
#291 = SURFACE_SIDE_STYLE ('',( #1051 ) ) ;
#292 = EDGE_CURVE ( 'NONE', #867, #218, #66, .T. ) ;
#293 = ORIENTED_EDGE ( 'NONE', *, *, #257, .F. ) ;
#294 = CARTESIAN_POINT ( 'NONE',  ( -26.40000000000000213, 1.189999999999998392, -0.9600000000000001865 ) ) ;
#295 = EDGE_CURVE ( 'NONE', #77, #921, #817, .T. ) ;
#296 = PLANE ( 'NONE',  #340 ) ;
#297 = DIRECTION ( 'NONE',  ( 0.000000000000000000, 0.000000000000000000, 1.000000000000000000 ) ) ;
#298 = LINE ( 'NONE', #659, #970 ) ;
#299 = ORIENTED_EDGE ( 'NONE', *, *, #1075, .T. ) ;
#300 = CARTESIAN_POINT ( 'NONE',  ( -1.950000000000000178, 0.8999999999999999112, -0.9100000000000001421 ) ) ;
#301 = PLANE ( 'NONE',  #766 ) ;
#302 = CARTESIAN_POINT ( 'NONE',  ( -26.40000000000000213, -0.8999999999999999112, -0.9100000000000001421 ) ) ;
#303 = ORIENTED_EDGE ( 'NONE', *, *, #586, .F. ) ;
#304 = DIRECTION ( 'NONE',  ( 0.000000000000000000, -0.9901138386947149206, 0.1402661271484180461 ) ) ;
#305 = VECTOR ( 'NONE', #987, 1.000000000000000000 ) ;
#306 = CARTESIAN_POINT ( 'NONE',  ( -26.40000000000000213, -1.189999999999997726, -0.9600000000000001865 ) ) ;
#307 = VECTOR ( 'NONE', #121, 1.000000000000000000 ) ;
#308 = VECTOR ( 'NONE', #88, 1.000000000000000000 ) ;
#309 = EDGE_LOOP ( 'NONE', ( #55, #1076, #495, #398 ) ) ;
#310 = AXIS2_PLACEMENT_3D ( 'NONE', #300, #1056, #143 ) ;
#311 = DIRECTION ( 'NONE',  ( 1.000000000000000000, 2.662968806861045522E-16, 0.000000000000000000 ) ) ;
#312 = CARTESIAN_POINT ( 'NONE',  ( -26.00000000000000000, 0.8999999999999999112, -0.9100000000000001421 ) ) ;
#313 = DIRECTION ( 'NONE',  ( -0.000000000000000000, 1.000000000000000000, -0.000000000000000000 ) ) ;
#314 = ADVANCED_FACE ( 'NONE', ( #726 ), #1061, .F. ) ;
#315 = CARTESIAN_POINT ( 'NONE',  ( -14.37500000000000000, -0.8000000000000000444, -0.9100000000000001421 ) ) ;
#316 = LINE ( 'NONE', #1062, #587 ) ;
#317 = ORIENTED_EDGE ( 'NONE', *, *, #199, .T. ) ;
#318 = ORIENTED_EDGE ( 'NONE', *, *, #343, .T. ) ;
#319 = ORIENTED_EDGE ( 'NONE', *, *, #790, .T. ) ;
#320 = CARTESIAN_POINT ( 'NONE',  ( -13.97500000000000142, -1.189999999999997948, -0.9600000000000001865 ) ) ;
#321 = ADVANCED_FACE ( 'NONE', ( #345 ), #341, .F. ) ;
#322 = ORIENTED_EDGE ( 'NONE', *, *, #727, .F. ) ;
#323 = AXIS2_PLACEMENT_3D ( 'NONE', #335, #577, #685 ) ;
#324 = ORIENTED_EDGE ( 'NONE', *, *, #644, .T. ) ;
#325 = AXIS2_PLACEMENT_3D ( 'NONE', #191, #896, #203 ) ;
#326 = EDGE_CURVE ( 'NONE', #259, #38, #450, .T. ) ;
#327 = DIRECTION ( 'NONE',  ( 0.000000000000000000, -0.9901138386947149206, 0.1402661271484180461 ) ) ;
#328 = EDGE_LOOP ( 'NONE', ( #660, #770, #324, #319, #424, #959, #491, #2 ) ) ;
#329 = ORIENTED_EDGE ( 'NONE', *, *, #586, .T. ) ;
#330 = ORIENTED_EDGE ( 'NONE', *, *, #1055, .T. ) ;
#331 = ADVANCED_FACE ( 'NONE', ( #875 ), #1022, .F. ) ;
#332 = DIRECTION ( 'NONE',  ( -0.000000000000000000, -0.000000000000000000, -1.000000000000000000 ) ) ;
#333 = CARTESIAN_POINT ( 'NONE',  ( -1.950000000000000178, 1.189999999999998392, -0.9600000000000001865 ) ) ;
#334 = ORIENTED_EDGE ( 'NONE', *, *, #566, .F. ) ;
#335 = CARTESIAN_POINT ( 'NONE',  ( -1.950000000000000178, -0.8000000000000000444, -0.9100000000000001421 ) ) ;
#336 = STYLED_ITEM ( 'NONE', ( #704 ), #906 ) ;
#337 = VERTEX_POINT ( 'NONE', #694 ) ;
#338 = VECTOR ( 'NONE', #555, 1.000000000000000000 ) ;
#339 = VERTEX_POINT ( 'NONE', #600 ) ;
#340 = AXIS2_PLACEMENT_3D ( 'NONE', #390, #895, #823 ) ;
#341 = PLANE ( 'NONE',  #502 ) ;
#342 = CARTESIAN_POINT ( 'NONE',  ( -26.00000000000000000, 0.2000000000000000111, -0.8250000000000000666 ) ) ;
#343 = EDGE_CURVE ( 'NONE', #1081, #7, #690, .T. ) ;
#344 = ORIENTED_EDGE ( 'NONE', *, *, #285, .T. ) ;
#345 = FACE_OUTER_BOUND ( 'NONE', #380, .T. ) ;
#346 = FACE_OUTER_BOUND ( 'NONE', #328, .T. ) ;
#347 = CARTESIAN_POINT ( 'NONE',  ( -2.349999999999999645, 1.189999999999997726, -0.9600000000000001865 ) ) ;
#348 = DIRECTION ( 'NONE',  ( -1.000000000000000000, -0.000000000000000000, -0.000000000000000000 ) ) ;
#349 = EDGE_LOOP ( 'NONE', ( #657, #173, #107, #945 ) ) ;
#350 = CARTESIAN_POINT ( 'NONE',  ( 0.000000000000000000, 0.000000000000000000, -1.160000000000000142 ) ) ;
#351 = DIRECTION ( 'NONE',  ( -1.000000000000000000, 0.000000000000000000, 0.000000000000000000 ) ) ;
#352 = DIRECTION ( 'NONE',  ( 0.000000000000000000, 0.9901138386947149206, 0.1402661271484180461 ) ) ;
#353 = DIRECTION ( 'NONE',  ( 0.000000000000000000, -0.1699069165076472487, -0.9854601157443478865 ) ) ;
#354 = EDGE_CURVE ( 'NONE', #670, #38, #356, .T. ) ;
#355 = ORIENTED_EDGE ( 'NONE', *, *, #411, .F. ) ;
#356 = LINE ( 'NONE', #862, #204 ) ;
#357 = AXIS2_PLACEMENT_3D ( 'NONE', #719, #389, #731 ) ;
#358 = CARTESIAN_POINT ( 'NONE',  ( -13.97500000000000142, -0.8000000000000000444, -0.9100000000000001421 ) ) ;
#359 = VECTOR ( 'NONE', #878, 1.000000000000000000 ) ;
#360 = CARTESIAN_POINT ( 'NONE',  ( 0.000000000000000000, 0.000000000000000000, -0.9600000000000001865 ) ) ;
#361 = EDGE_CURVE ( 'NONE', #256, #1081, #103, .T. ) ;
#362 = SURFACE_STYLE_USAGE ( .BOTH. , #641 ) ;
#363 = LINE ( 'NONE', #870, #905 ) ;
#364 = LINE ( 'NONE', #448, #359 ) ;
#365 = VECTOR ( 'NONE', #616, 1.000000000000000000 ) ;
#366 = VERTEX_POINT ( 'NONE', #367 ) ;
#367 = CARTESIAN_POINT ( 'NONE',  ( -2.350000000000000089, -0.8000000000000000444, -0.9100000000000001421 ) ) ;
#368 = DIRECTION ( 'NONE',  ( -1.000000000000000000, -0.000000000000000000, -0.000000000000000000 ) ) ;
#369 = CARTESIAN_POINT ( 'NONE',  ( -26.40000000000000213, -0.8000000000000000444, -0.9100000000000001421 ) ) ;
#370 = EDGE_CURVE ( 'NONE', #921, #614, #25, .T. ) ;
#371 = CARTESIAN_POINT ( 'NONE',  ( -2.350000000000000089, -0.8999999999999999112, -0.9100000000000001421 ) ) ;
#372 = VERTEX_POINT ( 'NONE', #953 ) ;
#373 = PLANE ( 'NONE',  #767 ) ;
#374 = LINE ( 'NONE', #695, #702 ) ;
#375 = LINE ( 'NONE', #1024, #538 ) ;
#376 = EDGE_CURVE ( 'NONE', #634, #707, #524, .T. ) ;
#377 = LINE ( 'NONE', #133, #610 ) ;
#378 = LINE ( 'NONE', #31, #488 ) ;
#379 = EDGE_CURVE ( 'NONE', #652, #670, #108, .T. ) ;
#380 = EDGE_LOOP ( 'NONE', ( #456, #558, #900, #137 ) ) ;
#381 = CARTESIAN_POINT ( 'NONE',  ( -13.97500000000000142, 0.8999999999999999112, -0.9100000000000001421 ) ) ;
#382 = PRODUCT_DEFINITION_FORMATION_WITH_SPECIFIED_SOURCE ( 'TUTTO', '', #578, .NOT_KNOWN. ) ;
#383 = CARTESIAN_POINT ( 'NONE',  ( -14.37500000000000000, -0.8999999999999999112, -0.9100000000000001421 ) ) ;
#384 = FACE_OUTER_BOUND ( 'NONE', #893, .T. ) ;
#385 = VECTOR ( 'NONE', #287, 1.000000000000000000 ) ;
#386 = FACE_OUTER_BOUND ( 'NONE', #759, .T. ) ;
#387 = ORIENTED_EDGE ( 'NONE', *, *, #485, .F. ) ;
#388 = EDGE_CURVE ( 'NONE', #92, #552, #965, .T. ) ;
#389 = DIRECTION ( 'NONE',  ( 0.000000000000000000, -0.1402661271484180461, -0.9901138386947149206 ) ) ;
#390 = CARTESIAN_POINT ( 'NONE',  ( -14.17500000000000071, 1.189999999999997504, -0.9600000000000001865 ) ) ;
#391 = LINE ( 'NONE', #1063, #1033 ) ;
#392 = CARTESIAN_POINT ( 'NONE',  ( -26.40000000000000213, -0.2000000000000000111, -0.8250000000000000666 ) ) ;
#393 = ORIENTED_EDGE ( 'NONE', *, *, #519, .F. ) ;
#394 = DIRECTION ( 'NONE',  ( -1.000000000000000000, -0.000000000000000000, -0.000000000000000000 ) ) ;
#395 = DIRECTION ( 'NONE',  ( 1.000000000000000000, -0.000000000000000000, -0.000000000000000000 ) ) ;
#396 = CARTESIAN_POINT ( 'NONE',  ( -2.350000000000000089, -0.8000000000000000444, -0.9100000000000001421 ) ) ;
#397 = LINE ( 'NONE', #897, #902 ) ;
#398 = ORIENTED_EDGE ( 'NONE', *, *, #850, .T. ) ;
#399 = ADVANCED_FACE ( 'NONE', ( #513 ), #615, .T. ) ;
#400 = DIRECTION ( 'NONE',  ( -1.000000000000000000, -0.000000000000000000, -0.000000000000000000 ) ) ;
#401 = VECTOR ( 'NONE', #304, 1.000000000000000000 ) ;
#402 = ADVANCED_FACE ( 'NONE', ( #194 ), #530, .F. ) ;
#403 = AXIS2_PLACEMENT_3D ( 'NONE', #481, #217, #914 ) ;
#404 = ORIENTED_EDGE ( 'NONE', *, *, #804, .F. ) ;
#405 = CARTESIAN_POINT ( 'NONE',  ( -14.17500000000000071, -1.190000000000001057, -0.9600000000000001865 ) ) ;
#406 = PRODUCT_CONTEXT ( 'NONE', #117, 'mechanical' ) ;
#407 = LINE ( 'NONE', #648, #305 ) ;
#408 = ORIENTED_EDGE ( 'NONE', *, *, #753, .F. ) ;
#409 = ORIENTED_EDGE ( 'NONE', *, *, #663, .T. ) ;
#410 = DIRECTION ( 'NONE',  ( 0.000000000000000000, 0.1699069165076472487, -0.9854601157443478865 ) ) ;
#411 = EDGE_CURVE ( 'NONE', #699, #542, #434, .T. ) ;
#412 = ORIENTED_EDGE ( 'NONE', *, *, #603, .F. ) ;
#413 = ORIENTED_EDGE ( 'NONE', *, *, #326, .F. ) ;
#414 = ORIENTED_EDGE ( 'NONE', *, *, #640, .F. ) ;
#415 = CARTESIAN_POINT ( 'NONE',  ( -13.97500000000000142, 0.8000000000000000444, -0.9100000000000001421 ) ) ;
#416 = CARTESIAN_POINT ( 'NONE',  ( -26.40000000000000213, -0.8000000000000000444, -0.9100000000000001421 ) ) ;
#417 = VECTOR ( 'NONE', #327, 1.000000000000000000 ) ;
#418 = ORIENTED_EDGE ( 'NONE', *, *, #136, .F. ) ;
#419 = ADVANCED_FACE ( 'NONE', ( #39 ), #373, .F. ) ;
#420 = EDGE_LOOP ( 'NONE', ( #940, #505, #119, #983 ) ) ;
#421 = FACE_OUTER_BOUND ( 'NONE', #854, .T. ) ;
#422 = EDGE_LOOP ( 'NONE', ( #599, #621, #207, #85 ) ) ;
#423 = ORIENTED_EDGE ( 'NONE', *, *, #245, .F. ) ;
#424 = ORIENTED_EDGE ( 'NONE', *, *, #973, .T. ) ;
#425 = CARTESIAN_POINT ( 'NONE',  ( -14.37500000000000000, -0.8999999999999999112, -0.9100000000000001421 ) ) ;
#426 = ORIENTED_EDGE ( 'NONE', *, *, #354, .F. ) ;
#427 = ORIENTED_EDGE ( 'NONE', *, *, #1044, .T. ) ;
#428 = VERTEX_POINT ( 'NONE', #866 ) ;
#429 = EDGE_CURVE ( 'NONE', #235, #678, #378, .T. ) ;
#430 =( GEOMETRIC_REPRESENTATION_CONTEXT ( 3 ) GLOBAL_UNCERTAINTY_ASSIGNED_CONTEXT ( ( #662 ) ) GLOBAL_UNIT_ASSIGNED_CONTEXT ( ( #275, #515, #791 ) ) REPRESENTATION_CONTEXT ( 'NONE', 'WORKASPACE' ) );
#431 = EDGE_LOOP ( 'NONE', ( #512, #910, #1004, #1027, #937, #89, #63, #478, #188, #1012 ) ) ;
#432 = AXIS2_PLACEMENT_3D ( 'NONE', #186, #522, #624 ) ;
#433 = VECTOR ( 'NONE', #17, 1.000000000000000000 ) ;
#434 = LINE ( 'NONE', #1047, #385 ) ;
#435 = FACE_OUTER_BOUND ( 'NONE', #420, .T. ) ;
#436 = ORIENTED_EDGE ( 'NONE', *, *, #676, .F. ) ;
#437 = CARTESIAN_POINT ( 'NONE',  ( -13.97500000000000142, 0.2000000000000000111, -0.8250000000000000666 ) ) ;
#438 = CARTESIAN_POINT ( 'NONE',  ( -26.00000000000000000, -0.8999999999999999112, -0.9100000000000001421 ) ) ;
#439 = CARTESIAN_POINT ( 'NONE',  ( -26.40000000000000213, 1.189999999999998392, -0.9600000000000001865 ) ) ;
#440 = EDGE_CURVE ( 'NONE', #1006, #16, #364, .T. ) ;
#441 = DIRECTION ( 'NONE',  ( -0.000000000000000000, -1.000000000000000000, -0.000000000000000000 ) ) ;
#442 = EDGE_LOOP ( 'NONE', ( #75, #125, #73, #500, #886, #299, #939, #754 ) ) ;
#443 = EDGE_CURVE ( 'NONE', #707, #7, #792, .T. ) ;
#444 = CARTESIAN_POINT ( 'NONE',  ( -26.40000000000000213, -0.2000000000000000111, -0.8250000000000000666 ) ) ;
#445 = DIRECTION ( 'NONE',  ( -0.000000000000000000, -0.9854601157443477755, -0.1699069165076472210 ) ) ;
#446 = LINE ( 'NONE', #877, #571 ) ;
#447 = FILL_AREA_STYLE_COLOUR ( '', #486 ) ;
#448 = CARTESIAN_POINT ( 'NONE',  ( -13.97500000000000142, 0.8000000000000000444, -0.9100000000000001421 ) ) ;
#449 = ORIENTED_EDGE ( 'NONE', *, *, #54, .F. ) ;
#450 = LINE ( 'NONE', #772, #932 ) ;
#451 = PLANE ( 'NONE',  #556 ) ;
#452 = VECTOR ( 'NONE', #853, 1.000000000000000000 ) ;
#453 = CARTESIAN_POINT ( 'NONE',  ( -13.97500000000000142, 0.000000000000000000, 0.000000000000000000 ) ) ;
#454 =( LENGTH_UNIT ( ) NAMED_UNIT ( * ) SI_UNIT ( $, .METRE. ) );
#455 = DIRECTION ( 'NONE',  ( 0.000000000000000000, -0.9854601157443477755, -0.1699069165076472210 ) ) ;
#456 = ORIENTED_EDGE ( 'NONE', *, *, #958, .T. ) ;
#457 = ADVANCED_FACE ( 'NONE', ( #1025 ), #23, .T. ) ;
#458 = DIRECTION ( 'NONE',  ( 0.000000000000000000, -1.000000000000000000, 0.000000000000000000 ) ) ;
#459 = PLANE ( 'NONE',  #100 ) ;
#460 = EDGE_CURVE ( 'NONE', #1065, #94, #528, .T. ) ;
#461 = PRESENTATION_STYLE_ASSIGNMENT (( #124 ) ) ;
#462 = ORIENTED_EDGE ( 'NONE', *, *, #292, .T. ) ;
#463 = PLANE ( 'NONE',  #30 ) ;
#464 = LINE ( 'NONE', #818, #606 ) ;
#465 = LINE ( 'NONE', #797, #187 ) ;
#466 = CARTESIAN_POINT ( 'NONE',  ( -1.950000000000000178, -1.189999999999998392, -0.9600000000000001865 ) ) ;
#467 = ADVANCED_FACE ( 'NONE', ( #540 ), #262, .F. ) ;
#468 = ORIENTED_EDGE ( 'NONE', *, *, #243, .F. ) ;
#469 = DIRECTION ( 'NONE',  ( 0.000000000000000000, -1.000000000000000000, -0.000000000000000000 ) ) ;
#470 = PRESENTATION_LAYER_ASSIGNMENT (  '', '', ( #336 ) ) ;
#471 = LINE ( 'NONE', #1078, #916 ) ;
#472 = CARTESIAN_POINT ( 'NONE',  ( -2.220446049250313081E-16, 1.189999999999997726, -1.160000000000000142 ) ) ;
#473 = PRESENTATION_LAYER_ASSIGNMENT (  '', '', ( #81 ) ) ;
#474 = ORIENTED_EDGE ( 'NONE', *, *, #132, .T. ) ;
#475 = CARTESIAN_POINT ( 'NONE',  ( -14.17500000000000071, 1.189999999999997504, -0.9600000000000001865 ) ) ;
#476 = FACE_OUTER_BOUND ( 'NONE', #60, .T. ) ;
#477 = EDGE_CURVE ( 'NONE', #867, #812, #1031, .T. ) ;
#478 = ORIENTED_EDGE ( 'NONE', *, *, #376, .F. ) ;
#479 = ADVANCED_FACE ( 'NONE', ( #211 ), #949, .T. ) ;
#480 = CARTESIAN_POINT ( 'NONE',  ( -14.37500000000000000, -0.8000000000000000444, -0.9100000000000001421 ) ) ;
#481 = CARTESIAN_POINT ( 'NONE',  ( -13.97500000000000142, 0.8000000000000000444, -0.9100000000000001421 ) ) ;
#482 = ORIENTED_EDGE ( 'NONE', *, *, #724, .F. ) ;
#483 = DIRECTION ( 'NONE',  ( 0.000000000000000000, -0.1402661271484180461, -0.9901138386947149206 ) ) ;
#484 = LINE ( 'NONE', #728, #716 ) ;
#485 = EDGE_CURVE ( 'NONE', #366, #673, #37, .T. ) ;
#486 = COLOUR_RGB ( '',0.7921568627450980005, 0.8196078431372548767, 0.9333333333333333481 ) ;
#487 = DIRECTION ( 'NONE',  ( 0.000000000000000000, -1.000000000000000000, 0.000000000000000000 ) ) ;
#488 = VECTOR ( 'NONE', #128, 1.000000000000000000 ) ;
#489 = VECTOR ( 'NONE', #908, 1.000000000000000000 ) ;
#490 = ORIENTED_EDGE ( 'NONE', *, *, #942, .F. ) ;
#491 = ORIENTED_EDGE ( 'NONE', *, *, #768, .T. ) ;
#492 = ADVANCED_FACE ( 'NONE', ( #710 ), #269, .F. ) ;
#493 = EDGE_CURVE ( 'NONE', #852, #428, #192, .T. ) ;
#494 = CARTESIAN_POINT ( 'NONE',  ( -26.40000000000000213, 0.2000000000000000111, -0.8250000000000000666 ) ) ;
#495 = ORIENTED_EDGE ( 'NONE', *, *, #216, .T. ) ;
#496 = PRODUCT_DEFINITION_CONTEXT ( 'detailed design', #172, 'design' ) ;
#497 = CARTESIAN_POINT ( 'NONE',  ( -1.950000000000000178, 0.2000000000000000111, -0.8250000000000000666 ) ) ;
#498 = LINE ( 'NONE', #494, #668 ) ;
#499 = ORIENTED_EDGE ( 'NONE', *, *, #1080, .T. ) ;
#500 = ORIENTED_EDGE ( 'NONE', *, *, #1069, .T. ) ;
#501 = LINE ( 'NONE', #842, #649 ) ;
#502 = AXIS2_PLACEMENT_3D ( 'NONE', #881, #684, #178 ) ;
#503 = ORIENTED_EDGE ( 'NONE', *, *, #562, .T. ) ;
#504 = VECTOR ( 'NONE', #777, 1.000000000000000000 ) ;
#505 = ORIENTED_EDGE ( 'NONE', *, *, #443, .F. ) ;
#506 = DIRECTION ( 'NONE',  ( 0.000000000000000000, 1.000000000000000000, 0.000000000000000000 ) ) ;
#507 = LINE ( 'NONE', #315, #5 ) ;
#508 = ORIENTED_EDGE ( 'NONE', *, *, #440, .T. ) ;
#509 = EDGE_CURVE ( 'NONE', #552, #79, #706, .T. ) ;
#510 = LINE ( 'NONE', #679, #934 ) ;
#511 = VERTEX_POINT ( 'NONE', #197 ) ;
#512 = ORIENTED_EDGE ( 'NONE', *, *, #727, .T. ) ;
#513 = FACE_OUTER_BOUND ( 'NONE', #740, .T. ) ;
#514 = FACE_OUTER_BOUND ( 'NONE', #349, .T. ) ;
#515 =( NAMED_UNIT ( * ) PLANE_ANGLE_UNIT ( ) SI_UNIT ( $, .RADIAN. ) );
#516 = ORIENTED_EDGE ( 'NONE', *, *, #196, .F. ) ;
#517 = AXIS2_PLACEMENT_3D ( 'NONE', #141, #149, #655 ) ;
#518 = CARTESIAN_POINT ( 'NONE',  ( -26.40000000000000213, 0.8999999999999999112, -0.9100000000000001421 ) ) ;
#519 = EDGE_CURVE ( 'NONE', #816, #707, #532, .T. ) ;
#520 = CLOSED_SHELL ( 'NONE', ( #479, #101, #656, #954, #891, #331, #492, #221, #278, #321, #689, #801, #314, #123, #84, #612, #180, #557, #922, #399, #1082, #554, #874, #836, #419, #457, #255, #164, #232, #467, #858, #784, #686, #402, #969, #162 ) ) ;
#521 = PLANE ( 'NONE',  #237 ) ;
#522 = DIRECTION ( 'NONE',  ( -0.000000000000000000, 0.000000000000000000, 1.000000000000000000 ) ) ;
#523 = EDGE_LOOP ( 'NONE', ( #468, #579, #45, #1034 ) ) ;
#524 = LINE ( 'NONE', #280, #608 ) ;
#525 = CARTESIAN_POINT ( 'NONE',  ( -13.97500000000000142, 0.2000000000000000111, -0.8250000000000000666 ) ) ;
#526 = APPLICATION_PROTOCOL_DEFINITION ( 'draft international standard', 'automotive_design', 1998, #117 ) ;
#527 = LINE ( 'NONE', #890, #951 ) ;
#528 = LINE ( 'NONE', #106, #918 ) ;
#529 = ORIENTED_EDGE ( 'NONE', *, *, #361, .T. ) ;
#530 = PLANE ( 'NONE',  #236 ) ;
#531 = DIRECTION ( 'NONE',  ( 0.000000000000000000, 0.1402661271484180461, -0.9901138386947149206 ) ) ;
#532 = LINE ( 'NONE', #116, #1001 ) ;
#533 = ORIENTED_EDGE ( 'NONE', *, *, #825, .F. ) ;
#534 = VECTOR ( 'NONE', #901, 1.000000000000000000 ) ;
#535 = DIRECTION ( 'NONE',  ( 1.000000000000000000, 0.000000000000000000, -0.000000000000000000 ) ) ;
#536 = AXIS2_PLACEMENT_3D ( 'NONE', #960, #855, #95 ) ;
#537 = CARTESIAN_POINT ( 'NONE',  ( -28.35000000000000142, 1.189999999999997726, -0.9600000000000001865 ) ) ;
#538 = VECTOR ( 'NONE', #352, 1.000000000000000000 ) ;
#539 = CARTESIAN_POINT ( 'NONE',  ( -26.40000000000000213, 1.189999999999998392, -0.9600000000000001865 ) ) ;
#540 = FACE_OUTER_BOUND ( 'NONE', #523, .T. ) ;
#541 = VECTOR ( 'NONE', #61, 1.000000000000000000 ) ;
#542 = VERTEX_POINT ( 'NONE', #284 ) ;
#543 = LINE ( 'NONE', #889, #234 ) ;
#544 = CARTESIAN_POINT ( 'NONE',  ( -14.17500000000000071, -1.190000000000001057, -0.9600000000000001865 ) ) ;
#545 = DIRECTION ( 'NONE',  ( 0.000000000000000000, 0.000000000000000000, 1.000000000000000000 ) ) ;
#546 = ORIENTED_EDGE ( 'NONE', *, *, #18, .F. ) ;
#547 = FACE_OUTER_BOUND ( 'NONE', #693, .T. ) ;
#548 = CARTESIAN_POINT ( 'NONE',  ( -14.17500000000000071, -1.190000000000001057, -0.9600000000000001865 ) ) ;
#549 = CARTESIAN_POINT ( 'NONE',  ( -13.97500000000000142, 0.8999999999999999112, -0.9100000000000001421 ) ) ;
#550 = DIRECTION ( 'NONE',  ( 0.000000000000000000, 0.9854601157443477755, -0.1699069165076475818 ) ) ;
#551 = MANIFOLD_SOLID_BREP ( 'Specchia2', #520 ) ;
#552 = VERTEX_POINT ( 'NONE', #392 ) ;
#553 = LINE ( 'NONE', #1057, #782 ) ;
#554 = ADVANCED_FACE ( 'NONE', ( #386 ), #968, .T. ) ;
#555 = DIRECTION ( 'NONE',  ( 0.000000000000000000, 1.000000000000000000, 0.000000000000000000 ) ) ;
#556 = AXIS2_PLACEMENT_3D ( 'NONE', #779, #787, #601 ) ;
#557 = ADVANCED_FACE ( 'NONE', ( #476 ), #1059, .T. ) ;
#558 = ORIENTED_EDGE ( 'NONE', *, *, #67, .F. ) ;
#559 = FACE_OUTER_BOUND ( 'NONE', #1070, .T. ) ;
#560 = CARTESIAN_POINT ( 'NONE',  ( -14.37500000000000000, 1.189999999999997726, -0.9600000000000001865 ) ) ;
#561 = ORIENTED_EDGE ( 'NONE', *, *, #753, .T. ) ;
#562 = EDGE_CURVE ( 'NONE', #879, #177, #1074, .T. ) ;
#563 = LINE ( 'NONE', #214, #33 ) ;
#564 = CARTESIAN_POINT ( 'NONE',  ( -26.40000000000000213, -0.8000000000000000444, -0.9100000000000001421 ) ) ;
#565 = PLANE ( 'NONE',  #49 ) ;
#566 = EDGE_CURVE ( 'NONE', #867, #915, #397, .T. ) ;
#567 = CARTESIAN_POINT ( 'NONE',  ( -26.00000000000000000, 1.189999999999997726, -0.9600000000000001865 ) ) ;
#568 = UNCERTAINTY_MEASURE_WITH_UNIT (LENGTH_MEASURE( 1.000000000000000082E-05 ), #454, 'distance_accuracy_value', 'NONE');
#569 = VECTOR ( 'NONE', #394, 1.000000000000000000 ) ;
#570 = VECTOR ( 'NONE', #135, 1.000000000000000000 ) ;
#571 = VECTOR ( 'NONE', #775, 1.000000000000000000 ) ;
#572 = ORIENTED_EDGE ( 'NONE', *, *, #67, .T. ) ;
#573 = AXIS2_PLACEMENT_3D ( 'NONE', #437, #40, #189 ) ;
#574 = ORIENTED_EDGE ( 'NONE', *, *, #663, .F. ) ;
#575 = ORIENTED_EDGE ( 'NONE', *, *, #1030, .F. ) ;
#576 = CARTESIAN_POINT ( 'NONE',  ( 0.000000000000000000, 0.000000000000000000, 0.000000000000000000 ) ) ;
#577 = DIRECTION ( 'NONE',  ( 0.000000000000000000, 0.1402661271484180461, -0.9901138386947149206 ) ) ;
#578 = PRODUCT ( 'WagonPlane_90ft_LessDetailed', 'WagonPlane_90ft_LessDetailed', '', ( #406 ) ) ;
#579 = ORIENTED_EDGE ( 'NONE', *, *, #26, .F. ) ;
#580 = EDGE_LOOP ( 'NONE', ( #976, #840, #156, #409 ) ) ;
#581 = CARTESIAN_POINT ( 'NONE',  ( -1.950000000000000178, -0.8999999999999999112, -0.9100000000000001421 ) ) ;
#582 = ORIENTED_EDGE ( 'NONE', *, *, #460, .T. ) ;
#583 = ORIENTED_EDGE ( 'NONE', *, *, #285, .F. ) ;
#584 = ORIENTED_EDGE ( 'NONE', *, *, #1002, .T. ) ;
#585 = CARTESIAN_POINT ( 'NONE',  ( -26.40000000000000213, -1.189999999999998392, -0.9600000000000001865 ) ) ;
#586 = EDGE_CURVE ( 'NONE', #10, #246, #48, .T. ) ;
#587 = VECTOR ( 'NONE', #140, 1.000000000000000000 ) ;
#588 = AXIS2_PLACEMENT_3D ( 'NONE', #350, #112, #35 ) ;
#589 = EDGE_LOOP ( 'NONE', ( #746, #34, #242, #330 ) ) ;
#590 = AXIS2_PLACEMENT_3D ( 'NONE', #613, #353, #957 ) ;
#591 = EDGE_CURVE ( 'NONE', #873, #936, #919, .T. ) ;
#592 = EDGE_LOOP ( 'NONE', ( #154, #533, #408, #239, #1005, #574, #1053, #999 ) ) ;
#593 = CARTESIAN_POINT ( 'NONE',  ( -14.37500000000000000, -0.2000000000000000111, -0.8250000000000000666 ) ) ;
#594 = DIRECTION ( 'NONE',  ( 0.000000000000000000, -0.9854601157443477755, -0.1699069165076472210 ) ) ;
#595 = ORIENTED_EDGE ( 'NONE', *, *, #175, .F. ) ;
#596 = DIRECTION ( 'NONE',  ( 1.000000000000000000, -0.000000000000000000, -0.000000000000000000 ) ) ;
#597 = LINE ( 'NONE', #169, #183 ) ;
#598 = EDGE_CURVE ( 'NONE', #834, #94, #723, .T. ) ;
#599 = ORIENTED_EDGE ( 'NONE', *, *, #887, .T. ) ;
#600 = CARTESIAN_POINT ( 'NONE',  ( -26.00000000000000000, -0.8000000000000000444, -0.9100000000000001421 ) ) ;
#601 = DIRECTION ( 'NONE',  ( 0.000000000000000000, 0.000000000000000000, 1.000000000000000000 ) ) ;
#602 = LINE ( 'NONE', #864, #153 ) ;
#603 = EDGE_CURVE ( 'NONE', #155, #614, #298, .T. ) ;
#604 = CARTESIAN_POINT ( 'NONE',  ( -13.97500000000000142, -1.189999999999997948, -0.9600000000000001865 ) ) ;
#605 = DIRECTION ( 'NONE',  ( 1.000000000000000000, 0.000000000000000000, 0.000000000000000000 ) ) ;
#606 = VECTOR ( 'NONE', #1068, 1.000000000000000000 ) ;
#607 = ORIENTED_EDGE ( 'NONE', *, *, #273, .F. ) ;
#608 = VECTOR ( 'NONE', #596, 1.000000000000000000 ) ;
#609 = DIRECTION ( 'NONE',  ( 1.000000000000000000, -1.566452239330026778E-17, -0.000000000000000000 ) ) ;
#610 = VECTOR ( 'NONE', #290, 1.000000000000000000 ) ;
#611 = DIRECTION ( 'NONE',  ( -1.000000000000000000, 0.000000000000000000, -0.000000000000000000 ) ) ;
#612 = ADVANCED_FACE ( 'NONE', ( #1064 ), #979, .T. ) ;
#613 = CARTESIAN_POINT ( 'NONE',  ( -1.950000000000000178, 1.189999999999998392, -0.9600000000000001865 ) ) ;
#614 = VERTEX_POINT ( 'NONE', #645 ) ;
#615 = PLANE ( 'NONE',  #536 ) ;
#616 = DIRECTION ( 'NONE',  ( -0.000000000000000000, -0.000000000000000000, -1.000000000000000000 ) ) ;
#617 = CARTESIAN_POINT ( 'NONE',  ( -28.35000000000000142, 0.000000000000000000, -0.9600000000000001865 ) ) ;
#618 = LINE ( 'NONE', #865, #569 ) ;
#619 = DIRECTION ( 'NONE',  ( -2.662968806861045522E-16, 1.000000000000000000, 0.000000000000000000 ) ) ;
#620 = CARTESIAN_POINT ( 'NONE',  ( -26.40000000000000213, -0.2000000000000000111, -0.8250000000000000666 ) ) ;
#621 = ORIENTED_EDGE ( 'NONE', *, *, #213, .F. ) ;
#622 = DIRECTION ( 'NONE',  ( 1.000000000000000000, -0.000000000000000000, -0.000000000000000000 ) ) ;
#623 = PLANE ( 'NONE',  #769 ) ;
#624 = DIRECTION ( 'NONE',  ( 1.000000000000000000, 0.000000000000000000, 0.000000000000000000 ) ) ;
#625 = VECTOR ( 'NONE', #721, 1.000000000000000000 ) ;
#626 = ORIENTED_EDGE ( 'NONE', *, *, #1066, .T. ) ;
#627 = EDGE_CURVE ( 'NONE', #812, #805, #815, .T. ) ;
#628 = DIRECTION ( 'NONE',  ( 1.000000000000000000, -9.329605248950916386E-17, 0.000000000000000000 ) ) ;
#629 = VECTOR ( 'NONE', #1041, 1.000000000000000000 ) ;
#630 = PLANE ( 'NONE',  #310 ) ;
#631 = CARTESIAN_POINT ( 'NONE',  ( -13.97500000000000142, -0.8999999999999999112, -0.9100000000000001421 ) ) ;
#632 = CARTESIAN_POINT ( 'NONE',  ( -28.35000000000000142, 1.189999999999997726, -1.160000000000000142 ) ) ;
#633 =( LENGTH_UNIT ( ) NAMED_UNIT ( * ) SI_UNIT ( $, .METRE. ) );
#634 = VERTEX_POINT ( 'NONE', #306 ) ;
#635 = LINE ( 'NONE', #56, #254 ) ;
#636 = LINE ( 'NONE', #548, #489 ) ;
#637 = DIRECTION ( 'NONE',  ( -1.000000000000000000, -0.000000000000000000, -0.000000000000000000 ) ) ;
#638 =( NAMED_UNIT ( * ) SI_UNIT ( $, .STERADIAN. ) SOLID_ANGLE_UNIT ( ) );
#639 = ORIENTED_EDGE ( 'NONE', *, *, #57, .T. ) ;
#640 = EDGE_CURVE ( 'NONE', #805, #259, #650, .T. ) ;
#641 = SURFACE_SIDE_STYLE ('',( #29 ) ) ;
#642 = CARTESIAN_POINT ( 'NONE',  ( -26.40000000000000213, -0.8000000000000000444, -0.9100000000000001421 ) ) ;
#643 = CARTESIAN_POINT ( 'NONE',  ( -26.00000000000000000, 0.000000000000000000, 0.000000000000000000 ) ) ;
#644 = EDGE_CURVE ( 'NONE', #614, #852, #230, .T. ) ;
#645 = CARTESIAN_POINT ( 'NONE',  ( -14.37500000000000000, 1.189999999999997504, -0.9600000000000001865 ) ) ;
#646 = EDGE_LOOP ( 'NONE', ( #1021, #449, #546, #1008 ) ) ;
#647 = LINE ( 'NONE', #642, #883 ) ;
#648 = CARTESIAN_POINT ( 'NONE',  ( -14.17500000000000071, -1.190000000000001057, -0.9600000000000001865 ) ) ;
#649 = VECTOR ( 'NONE', #332, 1.000000000000000000 ) ;
#650 = LINE ( 'NONE', #990, #680 ) ;
#651 = AXIS2_PLACEMENT_3D ( 'NONE', #12, #1058, #297 ) ;
#652 = VERTEX_POINT ( 'NONE', #145 ) ;
#653 = DIRECTION ( 'NONE',  ( 0.000000000000000000, -0.9854601157443477755, 0.1699069165076472210 ) ) ;
#654 = LINE ( 'NONE', #58, #401 ) ;
#655 = DIRECTION ( 'NONE',  ( 0.000000000000000000, -0.9854601157443477755, 0.1699069165076476096 ) ) ;
#656 = ADVANCED_FACE ( 'NONE', ( #819 ), #565, .F. ) ;
#657 = ORIENTED_EDGE ( 'NONE', *, *, #136, .T. ) ;
#658 = DIRECTION ( 'NONE',  ( 0.000000000000000000, 0.9854601157443477755, -0.1699069165076472210 ) ) ;
#659 = CARTESIAN_POINT ( 'NONE',  ( -14.37500000000000000, 0.8999999999999999112, -0.9100000000000001421 ) ) ;
#660 = ORIENTED_EDGE ( 'NONE', *, *, #213, .T. ) ;
#661 = ORIENTED_EDGE ( 'NONE', *, *, #1026, .T. ) ;
#662 = UNCERTAINTY_MEASURE_WITH_UNIT (LENGTH_MEASURE( 1.000000000000000082E-05 ), #275, 'distance_accuracy_value', 'NONE');
#663 = EDGE_CURVE ( 'NONE', #428, #879, #233, .T. ) ;
#664 = ORIENTED_EDGE ( 'NONE', *, *, #96, .T. ) ;
#665 = CARTESIAN_POINT ( 'NONE',  ( -2.350000000000000089, -1.189999999999998392, -0.9600000000000001865 ) ) ;
#666 = VECTOR ( 'NONE', #82, 1.000000000000000000 ) ;
#667 = ORIENTED_EDGE ( 'NONE', *, *, #132, .F. ) ;
#668 = VECTOR ( 'NONE', #832, 1.000000000000000000 ) ;
#669 = EDGE_LOOP ( 'NONE', ( #996, #163, #80, #584 ) ) ;
#670 = VERTEX_POINT ( 'NONE', #923 ) ;
#671 = LINE ( 'NONE', #244, #1072 ) ;
#672 = VERTEX_POINT ( 'NONE', #747 ) ;
#673 = VERTEX_POINT ( 'NONE', #1007 ) ;
#674 = EDGE_CURVE ( 'NONE', #673, #812, #760, .T. ) ;
#675 = LINE ( 'NONE', #248, #786 ) ;
#676 = EDGE_CURVE ( 'NONE', #511, #16, #597, .T. ) ;
#677 = ORIENTED_EDGE ( 'NONE', *, *, #1018, .F. ) ;
#678 = VERTEX_POINT ( 'NONE', #342 ) ;
#679 = CARTESIAN_POINT ( 'NONE',  ( -26.00000000000000000, 0.8999999999999999112, -0.9100000000000001421 ) ) ;
#680 = VECTOR ( 'NONE', #226, 1.000000000000000222 ) ;
#681 = VECTOR ( 'NONE', #773, 1.000000000000000000 ) ;
#682 = ORIENTED_EDGE ( 'NONE', *, *, #1038, .T. ) ;
#683 = EDGE_LOOP ( 'NONE', ( #664, #639, #427, #13 ) ) ;
#684 = DIRECTION ( 'NONE',  ( 0.000000000000000000, 0.000000000000000000, -1.000000000000000000 ) ) ;
#685 = DIRECTION ( 'NONE',  ( 0.000000000000000000, 0.9901138386947148096, 0.1402661271484180183 ) ) ;
#686 = ADVANCED_FACE ( 'NONE', ( #240 ), #253, .F. ) ;
#687 = PRODUCT_DEFINITION_SHAPE ( 'NONE', 'NONE',  #846 ) ;
#688 = ORIENTED_EDGE ( 'NONE', *, *, #674, .F. ) ;
#689 = ADVANCED_FACE ( 'NONE', ( #421 ), #11, .F. ) ;
#690 = LINE ( 'NONE', #1028, #168 ) ;
#691 = LINE ( 'NONE', #190, #433 ) ;
#692 = CARTESIAN_POINT ( 'NONE',  ( -26.00000000000000000, 1.189999999999998392, -0.9600000000000001865 ) ) ;
#693 = EDGE_LOOP ( 'NONE', ( #595, #758, #231, #725 ) ) ;
#694 = CARTESIAN_POINT ( 'NONE',  ( 0.000000000000000000, -1.189999999999997282, -1.160000000000000142 ) ) ;
#695 = CARTESIAN_POINT ( 'NONE',  ( -26.00000000000000000, -0.8000000000000000444, -0.9100000000000001421 ) ) ;
#696 = FACE_OUTER_BOUND ( 'NONE', #592, .T. ) ;
#697 = CARTESIAN_POINT ( 'NONE',  ( -1.950000000000000178, -0.8999999999999999112, -0.9100000000000001421 ) ) ;
#698 = DIRECTION ( 'NONE',  ( 0.000000000000000000, 0.000000000000000000, -1.000000000000000000 ) ) ;
#699 = VERTEX_POINT ( 'NONE', #497 ) ;
#700 = VECTOR ( 'NONE', #487, 1.000000000000000000 ) ;
#701 = LINE ( 'NONE', #113, #783 ) ;
#702 = VECTOR ( 'NONE', #1036, 1.000000000000000000 ) ;
#703 = DIRECTION ( 'NONE',  ( 0.000000000000000000, -1.000000000000000000, 0.000000000000000000 ) ) ;
#704 = PRESENTATION_STYLE_ASSIGNMENT (( #362 ) ) ;
#705 = FACE_OUTER_BOUND ( 'NONE', #431, .T. ) ;
#706 = LINE ( 'NONE', #620, #266 ) ;
#707 = VERTEX_POINT ( 'NONE', #835 ) ;
#708 = CARTESIAN_POINT ( 'NONE',  ( -13.97500000000000142, 1.189999999999997726, -0.9600000000000001865 ) ) ;
#709 = DIRECTION ( 'NONE',  ( 1.000000000000000000, 0.000000000000000000, 0.000000000000000000 ) ) ;
#710 = FACE_OUTER_BOUND ( 'NONE', #646, .T. ) ;
#711 = EDGE_CURVE ( 'NONE', #1006, #77, #1084, .T. ) ;
#712 = ORIENTED_EDGE ( 'NONE', *, *, #216, .F. ) ;
#713 = CARTESIAN_POINT ( 'NONE',  ( -28.35000000000000142, 1.189999999999997726, -0.9600000000000001865 ) ) ;
#714 = DIRECTION ( 'NONE',  ( 0.000000000000000000, 1.000000000000000000, 0.000000000000000000 ) ) ;
#715 = DIRECTION ( 'NONE',  ( 0.000000000000000000, -0.000000000000000000, -1.000000000000000000 ) ) ;
#716 = VECTOR ( 'NONE', #981, 1.000000000000000000 ) ;
#717 = ORIENTED_EDGE ( 'NONE', *, *, #598, .T. ) ;
#718 = VECTOR ( 'NONE', #59, 1.000000000000000000 ) ;
#719 = CARTESIAN_POINT ( 'NONE',  ( -1.950000000000000178, 0.8000000000000000444, -0.9100000000000001421 ) ) ;
#720 = AXIS2_PLACEMENT_3D ( 'NONE', #1020, #943, #831 ) ;
#721 = DIRECTION ( 'NONE',  ( 0.000000000000000000, 1.000000000000000000, 0.000000000000000000 ) ) ;
#722 = PLANE ( 'NONE',  #651 ) ;
#723 = LINE ( 'NONE', #995, #570 ) ;
#724 = EDGE_CURVE ( 'NONE', #38, #542, #752, .T. ) ;
#725 = ORIENTED_EDGE ( 'NONE', *, *, #591, .T. ) ;
#726 = FACE_OUTER_BOUND ( 'NONE', #589, .T. ) ;
#727 = EDGE_CURVE ( 'NONE', #834, #337, #671, .T. ) ;
#728 = CARTESIAN_POINT ( 'NONE',  ( -13.97500000000000142, 0.2000000000000000111, -0.8250000000000000666 ) ) ;
#729 = LINE ( 'NONE', #472, #270 ) ;
#730 = VERTEX_POINT ( 'NONE', #938 ) ;
#731 = DIRECTION ( 'NONE',  ( 0.000000000000000000, 0.9901138386947148096, -0.1402661271484180183 ) ) ;
#732 = DIRECTION ( 'NONE',  ( 1.000000000000000000, 0.000000000000000000, -0.000000000000000000 ) ) ;
#733 = DIRECTION ( 'NONE',  ( 0.000000000000000000, -0.000000000000000000, 1.000000000000000000 ) ) ;
#734 = VERTEX_POINT ( 'NONE', #581 ) ;
#735 = CARTESIAN_POINT ( 'NONE',  ( -1.950000000000000178, -1.189999999999998392, -0.9600000000000001865 ) ) ;
#736 = APPLICATION_PROTOCOL_DEFINITION ( 'draft international standard', 'automotive_design', 1998, #172 ) ;
#737 = VECTOR ( 'NONE', #70, 1.000000000000000000 ) ;
#738 = DIRECTION ( 'NONE',  ( 1.000000000000000000, -0.000000000000000000, -0.000000000000000000 ) ) ;
#739 = MECHANICAL_DESIGN_GEOMETRIC_PRESENTATION_REPRESENTATION (  '', ( #81 ), #3 ) ;
#740 = EDGE_LOOP ( 'NONE', ( #1060, #198, #907, #503 ) ) ;
#741 = SHAPE_DEFINITION_REPRESENTATION ( #687, #906 ) ;
#742 = CARTESIAN_POINT ( 'NONE',  ( -13.97500000000000142, -0.8000000000000000444, -0.9100000000000001421 ) ) ;
#743 = CARTESIAN_POINT ( 'NONE',  ( -26.40000000000000213, 0.8999999999999999112, -0.9100000000000001421 ) ) ;
#744 = EDGE_CURVE ( 'NONE', #634, #748, #927, .T. ) ;
#745 = EDGE_LOOP ( 'NONE', ( #474, #926, #404, #227 ) ) ;
#746 = ORIENTED_EDGE ( 'NONE', *, *, #674, .T. ) ;
#747 = CARTESIAN_POINT ( 'NONE',  ( -14.37500000000000000, -0.2000000000000000111, -0.8250000000000000666 ) ) ;
#748 = VERTEX_POINT ( 'NONE', #161 ) ;
#749 = EDGE_CURVE ( 'NONE', #218, #337, #501, .T. ) ;
#750 = ORIENTED_EDGE ( 'NONE', *, *, #627, .F. ) ;
#751 = VECTOR ( 'NONE', #400, 1.000000000000000000 ) ;
#752 = LINE ( 'NONE', #4, #417 ) ;
#753 = EDGE_CURVE ( 'NONE', #50, #372, #675, .T. ) ;
#754 = ORIENTED_EDGE ( 'NONE', *, *, #566, .T. ) ;
#755 = VERTEX_POINT ( 'NONE', #848 ) ;
#756 = EDGE_CURVE ( 'NONE', #177, #935, #174, .T. ) ;
#757 = DIRECTION ( 'NONE',  ( 0.000000000000000000, 1.000000000000000000, 0.000000000000000000 ) ) ;
#758 = ORIENTED_EDGE ( 'NONE', *, *, #343, .F. ) ;
#759 = EDGE_LOOP ( 'NONE', ( #271, #412, #829, #847 ) ) ;
#760 = LINE ( 'NONE', #665, #1013 ) ;
#761 = DIRECTION ( 'NONE',  ( -1.000000000000000000, -2.662968806861045522E-16, 0.000000000000000000 ) ) ;
#762 = VERTEX_POINT ( 'NONE', #425 ) ;
#763 = ORIENTED_EDGE ( 'NONE', *, *, #245, .T. ) ;
#764 = EDGE_CURVE ( 'NONE', #936, #235, #510, .T. ) ;
#765 = LINE ( 'NONE', #593, #452 ) ;
#766 = AXIS2_PLACEMENT_3D ( 'NONE', #643, #732, #215 ) ;
#767 = AXIS2_PLACEMENT_3D ( 'NONE', #713, #628, #1045 ) ;
#768 = EDGE_CURVE ( 'NONE', #672, #511, #765, .T. ) ;
#769 = AXIS2_PLACEMENT_3D ( 'NONE', #36, #856, #611 ) ;
#770 = ORIENTED_EDGE ( 'NONE', *, *, #603, .T. ) ;
#771 = ORIENTED_EDGE ( 'NONE', *, *, #71, .F. ) ;
#772 = CARTESIAN_POINT ( 'NONE',  ( -2.350000000000000089, 0.8999999999999999112, -0.9100000000000001421 ) ) ;
#773 = DIRECTION ( 'NONE',  ( -0.000000000000000000, -0.9901138386947149206, -0.1402661271484180461 ) ) ;
#774 = ORIENTED_EDGE ( 'NONE', *, *, #429, .T. ) ;
#775 = DIRECTION ( 'NONE',  ( 0.000000000000000000, -0.000000000000000000, -1.000000000000000000 ) ) ;
#776 =( NAMED_UNIT ( * ) SI_UNIT ( $, .STERADIAN. ) SOLID_ANGLE_UNIT ( ) );
#777 = DIRECTION ( 'NONE',  ( 0.000000000000000000, 1.000000000000000000, 0.000000000000000000 ) ) ;
#778 = EDGE_LOOP ( 'NONE', ( #423, #250, #329, #167 ) ) ;
#779 = CARTESIAN_POINT ( 'NONE',  ( -14.37500000000000000, 0.000000000000000000, 0.000000000000000000 ) ) ;
#780 = CARTESIAN_POINT ( 'NONE',  ( -13.97500000000000142, 0.8999999999999999112, -0.9100000000000001421 ) ) ;
#781 = FILL_AREA_STYLE ('',( #447 ) ) ;
#782 = VECTOR ( 'NONE', #144, 1.000000000000000000 ) ;
#783 = VECTOR ( 'NONE', #368, 1.000000000000000000 ) ;
#784 = ADVANCED_FACE ( 'NONE', ( #91 ), #14, .F. ) ;
#785 = ORIENTED_EDGE ( 'NONE', *, *, #54, .T. ) ;
#786 = VECTOR ( 'NONE', #506, 1.000000000000000000 ) ;
#787 = DIRECTION ( 'NONE',  ( 1.000000000000000000, 0.000000000000000000, -0.000000000000000000 ) ) ;
#788 = VECTOR ( 'NONE', #395, 1.000000000000000000 ) ;
#789 = FACE_OUTER_BOUND ( 'NONE', #844, .T. ) ;
#790 = EDGE_CURVE ( 'NONE', #852, #762, #602, .T. ) ;
#791 =( NAMED_UNIT ( * ) SI_UNIT ( $, .STERADIAN. ) SOLID_ANGLE_UNIT ( ) );
#792 = LINE ( 'NONE', #692, #504 ) ;
#793 = ORIENTED_EDGE ( 'NONE', *, *, #443, .T. ) ;
#794 = DIRECTION ( 'NONE',  ( 0.000000000000000000, 0.000000000000000000, 1.000000000000000000 ) ) ;
#795 = CARTESIAN_POINT ( 'NONE',  ( -2.220446049250313081E-16, 1.189999999999997726, -0.9600000000000001865 ) ) ;
#796 = LINE ( 'NONE', #539, #206 ) ;
#797 = CARTESIAN_POINT ( 'NONE',  ( -13.97500000000000142, 1.189999999999997726, -0.9600000000000001865 ) ) ;
#798 = ORIENTED_EDGE ( 'NONE', *, *, #243, .T. ) ;
#799 = LINE ( 'NONE', #294, #118 ) ;
#800 = LINE ( 'NONE', #396, #15 ) ;
#801 = ADVANCED_FACE ( 'NONE', ( #114 ), #623, .F. ) ;
#802 = FACE_OUTER_BOUND ( 'NONE', #442, .T. ) ;
#803 = CARTESIAN_POINT ( 'NONE',  ( -13.97500000000000142, -0.2000000000000000111, -0.8250000000000000666 ) ) ;
#804 = EDGE_CURVE ( 'NONE', #218, #755, #691, .T. ) ;
#805 = VERTEX_POINT ( 'NONE', #347 ) ;
#806 = VECTOR ( 'NONE', #348, 1.000000000000000000 ) ;
#807 = PLANE ( 'NONE',  #357 ) ;
#808 = LINE ( 'NONE', #475, #134 ) ;
#809 = VECTOR ( 'NONE', #594, 1.000000000000000222 ) ;
#810 = DIRECTION ( 'NONE',  ( -9.329605248950915154E-17, 1.000000000000000000, -0.000000000000000000 ) ) ;
#811 = CARTESIAN_POINT ( 'NONE',  ( -13.97500000000000142, -0.8999999999999999112, -0.9100000000000001421 ) ) ;
#812 = VERTEX_POINT ( 'NONE', #274 ) ;
#813 = CARTESIAN_POINT ( 'NONE',  ( -28.35000000000000142, 1.189999999999997726, -0.9600000000000001865 ) ) ;
#814 = DIRECTION ( 'NONE',  ( -1.000000000000000000, -1.566452239330026778E-17, -0.000000000000000000 ) ) ;
#815 = LINE ( 'NONE', #982, #718 ) ;
#816 = VERTEX_POINT ( 'NONE', #438 ) ;
#817 = LINE ( 'NONE', #381, #541 ) ;
#818 = CARTESIAN_POINT ( 'NONE',  ( -1.950000000000000178, 0.8000000000000000444, -0.9100000000000001421 ) ) ;
#819 = FACE_OUTER_BOUND ( 'NONE', #745, .T. ) ;
#820 = ORIENTED_EDGE ( 'NONE', *, *, #71, .T. ) ;
#821 = DIRECTION ( 'NONE',  ( 0.000000000000000000, 0.9854601157443477755, 0.1699069165076472210 ) ) ;
#822 = COLOUR_RGB ( '',0.7921568627450980005, 0.8196078431372548767, 0.9333333333333333481 ) ;
#823 = DIRECTION ( 'NONE',  ( 1.000000000000000000, 1.566452239330026778E-17, 0.000000000000000000 ) ) ;
#824 = AXIS2_PLACEMENT_3D ( 'NONE', #742, #219, #52 ) ;
#825 = EDGE_CURVE ( 'NONE', #372, #1006, #947, .T. ) ;
#826 = CARTESIAN_POINT ( 'NONE',  ( -2.220446049250313081E-16, 1.189999999999997726, -0.9600000000000001865 ) ) ;
#827 = AXIS2_PLACEMENT_3D ( 'NONE', #518, #946, #888 ) ;
#828 = CARTESIAN_POINT ( 'NONE',  ( -13.97500000000000142, -0.2000000000000000111, -0.8250000000000000666 ) ) ;
#829 = ORIENTED_EDGE ( 'NONE', *, *, #887, .F. ) ;
#830 = DIRECTION ( 'NONE',  ( 0.000000000000000000, 0.000000000000000000, 1.000000000000000000 ) ) ;
#831 = DIRECTION ( 'NONE',  ( 1.000000000000000000, 0.000000000000000000, 0.000000000000000000 ) ) ;
#832 = DIRECTION ( 'NONE',  ( 1.000000000000000000, -0.000000000000000000, -0.000000000000000000 ) ) ;
#833 = EDGE_LOOP ( 'NONE', ( #931, #165, #1046, #499 ) ) ;
#834 = VERTEX_POINT ( 'NONE', #41 ) ;
#835 = CARTESIAN_POINT ( 'NONE',  ( -26.00000000000000000, -1.189999999999997948, -0.9600000000000001865 ) ) ;
#836 = ADVANCED_FACE ( 'NONE', ( #435 ), #521, .T. ) ;
#837 = LINE ( 'NONE', #333, #860 ) ;
#838 = EDGE_CURVE ( 'NONE', #873, #730, #122, .T. ) ;
#839 = ORIENTED_EDGE ( 'NONE', *, *, #429, .F. ) ;
#840 = ORIENTED_EDGE ( 'NONE', *, *, #790, .F. ) ;
#841 =( GEOMETRIC_REPRESENTATION_CONTEXT ( 3 ) GLOBAL_UNCERTAINTY_ASSIGNED_CONTEXT ( ( #568 ) ) GLOBAL_UNIT_ASSIGNED_CONTEXT ( ( #454, #268, #776 ) ) REPRESENTATION_CONTEXT ( 'NONE', 'WORKASPACE' ) );
#842 = CARTESIAN_POINT ( 'NONE',  ( 0.000000000000000000, -1.189999999999997282, -0.9600000000000001865 ) ) ;
#843 = VECTOR ( 'NONE', #277, 1.000000000000000000 ) ;
#844 = EDGE_LOOP ( 'NONE', ( #516, #964, #344, #626 ) ) ;
#845 = ORIENTED_EDGE ( 'NONE', *, *, #326, .T. ) ;
#846 = PRODUCT_DEFINITION ( 'NON CONOSCIUTO', '', #382, #496 ) ;
#847 = ORIENTED_EDGE ( 'NONE', *, *, #295, .T. ) ;
#848 = CARTESIAN_POINT ( 'NONE',  ( -2.220446049250313081E-16, 1.189999999999997726, -0.9600000000000001865 ) ) ;
#849 = EDGE_LOOP ( 'NONE', ( #845, #426, #111, #785 ) ) ;
#850 = EDGE_CURVE ( 'NONE', #256, #94, #446, .T. ) ;
#851 = VERTEX_POINT ( 'NONE', #22 ) ;
#852 = VERTEX_POINT ( 'NONE', #195 ) ;
#853 = DIRECTION ( 'NONE',  ( 0.000000000000000000, 1.000000000000000000, 0.000000000000000000 ) ) ;
#854 = EDGE_LOOP ( 'NONE', ( #992, #6, #1010, #572 ) ) ;
#855 = DIRECTION ( 'NONE',  ( 0.000000000000000000, -0.000000000000000000, 1.000000000000000000 ) ) ;
#856 = DIRECTION ( 'NONE',  ( 0.000000000000000000, 0.000000000000000000, -1.000000000000000000 ) ) ;
#857 = VECTOR ( 'NONE', #738, 1.000000000000000000 ) ;
#858 = ADVANCED_FACE ( 'NONE', ( #789 ), #459, .F. ) ;
#859 = VECTOR ( 'NONE', #1035, 1.000000000000000000 ) ;
#860 = VECTOR ( 'NONE', #249, 1.000000000000000222 ) ;
#861 = ORIENTED_EDGE ( 'NONE', *, *, #850, .F. ) ;
#862 = CARTESIAN_POINT ( 'NONE',  ( -1.950000000000000178, 0.8000000000000000444, -0.9100000000000001421 ) ) ;
#863 = PLANE ( 'NONE',  #573 ) ;
#864 = CARTESIAN_POINT ( 'NONE',  ( -14.37500000000000000, -1.189999999999997948, -0.9600000000000001865 ) ) ;
#865 = CARTESIAN_POINT ( 'NONE',  ( -1.950000000000000178, -0.8000000000000000444, -0.9100000000000001421 ) ) ;
#866 = CARTESIAN_POINT ( 'NONE',  ( -13.97500000000000142, -1.190000000000001057, -0.9600000000000001865 ) ) ;
#867 = VERTEX_POINT ( 'NONE', #110 ) ;
#868 = CARTESIAN_POINT ( 'NONE',  ( -14.17500000000000071, 1.189999999999997504, -0.9600000000000001865 ) ) ;
#869 = DIRECTION ( 'NONE',  ( 0.000000000000000000, 0.000000000000000000, 1.000000000000000000 ) ) ;
#870 = CARTESIAN_POINT ( 'NONE',  ( -14.17500000000000071, 1.189999999999997504, -0.9600000000000001865 ) ) ;
#871 = EDGE_CURVE ( 'NONE', #177, #50, #375, .T. ) ;
#872 = CARTESIAN_POINT ( 'NONE',  ( -14.17500000000000071, -1.190000000000001057, -0.9600000000000001865 ) ) ;
#873 = VERTEX_POINT ( 'NONE', #962 ) ;
#874 = ADVANCED_FACE ( 'NONE', ( #696 ), #967, .F. ) ;
#875 = FACE_OUTER_BOUND ( 'NONE', #147, .T. ) ;
#876 = FACE_OUTER_BOUND ( 'NONE', #669, .T. ) ;
#877 = CARTESIAN_POINT ( 'NONE',  ( -28.35000000000000142, 1.189999999999997726, -0.9600000000000001865 ) ) ;
#878 = DIRECTION ( 'NONE',  ( -1.000000000000000000, 0.000000000000000000, 0.000000000000000000 ) ) ;
#879 = VERTEX_POINT ( 'NONE', #631 ) ;
#880 = AXIS2_PLACEMENT_3D ( 'NONE', #453, #1029, #267 ) ;
#881 = CARTESIAN_POINT ( 'NONE',  ( -1.950000000000000178, -0.2000000000000000111, -0.8250000000000000666 ) ) ;
#882 = LINE ( 'NONE', #537, #307 ) ;
#883 = VECTOR ( 'NONE', #997, 1.000000000000000000 ) ;
#884 = CARTESIAN_POINT ( 'NONE',  ( -1.950000000000000178, -0.8000000000000000444, -0.9100000000000001421 ) ) ;
#885 = FILL_AREA_STYLE ('',( #205 ) ) ;
#886 = ORIENTED_EDGE ( 'NONE', *, *, #898, .T. ) ;
#887 = EDGE_CURVE ( 'NONE', #77, #155, #282, .T. ) ;
#888 = DIRECTION ( 'NONE',  ( 1.000000000000000000, 0.000000000000000000, 0.000000000000000000 ) ) ;
#889 = CARTESIAN_POINT ( 'NONE',  ( -13.97500000000000142, -0.8999999999999999112, -0.9100000000000001421 ) ) ;
#890 = CARTESIAN_POINT ( 'NONE',  ( -28.35000000000000142, -1.189999999999997282, -0.9600000000000001865 ) ) ;
#891 = ADVANCED_FACE ( 'NONE', ( #179 ), #261, .T. ) ;
#892 = DIRECTION ( 'NONE',  ( -1.000000000000000000, 0.000000000000000000, 0.000000000000000000 ) ) ;
#893 = EDGE_LOOP ( 'NONE', ( #414, #750, #688, #387, #490, #952, #482, #413 ) ) ;
#894 = PLANE ( 'NONE',  #170 ) ;
#895 = DIRECTION ( 'NONE',  ( 1.566452239330026778E-17, -1.000000000000000000, 0.000000000000000000 ) ) ;
#896 = DIRECTION ( 'NONE',  ( -1.000000000000000000, 0.000000000000000000, 0.000000000000000000 ) ) ;
#897 = CARTESIAN_POINT ( 'NONE',  ( -1.950000000000000178, 1.189999999999998392, -0.9600000000000001865 ) ) ;
#898 = EDGE_CURVE ( 'NONE', #286, #851, #202, .T. ) ;
#899 = MECHANICAL_DESIGN_GEOMETRIC_PRESENTATION_REPRESENTATION (  '', ( #336 ), #430 ) ;
#900 = ORIENTED_EDGE ( 'NONE', *, *, #1069, .F. ) ;
#901 = DIRECTION ( 'NONE',  ( -0.000000000000000000, -1.000000000000000000, -0.000000000000000000 ) ) ;
#902 = VECTOR ( 'NONE', #313, 1.000000000000000000 ) ;
#903 = DIRECTION ( 'NONE',  ( 0.000000000000000000, -1.000000000000000000, -0.000000000000000000 ) ) ;
#904 = DIRECTION ( 'NONE',  ( 1.000000000000000000, -0.000000000000000000, -0.000000000000000000 ) ) ;
#905 = VECTOR ( 'NONE', #975, 1.000000000000000000 ) ;
#906 = ADVANCED_BREP_SHAPE_REPRESENTATION ( 'WagonPlane_90ft_LessDetailed', ( #551, #93 ), #841 ) ;
#907 = ORIENTED_EDGE ( 'NONE', *, *, #991, .F. ) ;
#908 = DIRECTION ( 'NONE',  ( -1.000000000000000000, 2.662968806861045522E-16, 0.000000000000000000 ) ) ;
#909 = DIRECTION ( 'NONE',  ( 0.000000000000000000, -1.000000000000000000, -0.000000000000000000 ) ) ;
#910 = ORIENTED_EDGE ( 'NONE', *, *, #749, .F. ) ;
#911 = CARTESIAN_POINT ( 'NONE',  ( -26.40000000000000213, 0.8000000000000000444, -0.9100000000000001421 ) ) ;
#912 = EDGE_CURVE ( 'NONE', #634, #1081, #796, .T. ) ;
#913 = CARTESIAN_POINT ( 'NONE',  ( -2.220446049250313081E-16, 1.189999999999997726, -1.160000000000000142 ) ) ;
#914 = DIRECTION ( 'NONE',  ( 1.000000000000000000, 0.000000000000000000, -0.000000000000000000 ) ) ;
#915 = VERTEX_POINT ( 'NONE', #1049 ) ;
#916 = VECTOR ( 'NONE', #904, 1.000000000000000000 ) ;
#917 = ORIENTED_EDGE ( 'NONE', *, *, #912, .T. ) ;
#918 = VECTOR ( 'NONE', #19, 1.000000000000000000 ) ;
#919 = LINE ( 'NONE', #743, #737 ) ;
#920 = ORIENTED_EDGE ( 'NONE', *, *, #1002, .F. ) ;
#921 = VERTEX_POINT ( 'NONE', #289 ) ;
#922 = ADVANCED_FACE ( 'NONE', ( #514 ), #978, .T. ) ;
#923 = CARTESIAN_POINT ( 'NONE',  ( -1.950000000000000178, 0.8000000000000000444, -0.9100000000000001421 ) ) ;
#924 = EDGE_CURVE ( 'NONE', #852, #707, #636, .T. ) ;
#925 = ORIENTED_EDGE ( 'NONE', *, *, #96, .F. ) ;
#926 = ORIENTED_EDGE ( 'NONE', *, *, #199, .F. ) ;
#927 = LINE ( 'NONE', #258, #1032 ) ;
#928 = PRODUCT_RELATED_PRODUCT_CATEGORY ( 'part', '', ( #578 ) ) ;
#929 = ORIENTED_EDGE ( 'NONE', *, *, #764, .T. ) ;
#930 = EDGE_LOOP ( 'NONE', ( #293, #980, #771, #303, #583, #142, #159, #176 ) ) ;
#931 = ORIENTED_EDGE ( 'NONE', *, *, #485, .T. ) ;
#932 = VECTOR ( 'NONE', #21, 1.000000000000000000 ) ;
#933 = DIRECTION ( 'NONE',  ( 1.000000000000000000, 2.662968806861045522E-16, 0.000000000000000000 ) ) ;
#934 = VECTOR ( 'NONE', #1014, 1.000000000000000000 ) ;
#935 = VERTEX_POINT ( 'NONE', #480 ) ;
#936 = VERTEX_POINT ( 'NONE', #312 ) ;
#937 = ORIENTED_EDGE ( 'NONE', *, *, #1044, .F. ) ;
#938 = CARTESIAN_POINT ( 'NONE',  ( -26.40000000000000213, 0.8000000000000000444, -0.9100000000000001421 ) ) ;
#939 = ORIENTED_EDGE ( 'NONE', *, *, #146, .T. ) ;
#940 = ORIENTED_EDGE ( 'NONE', *, *, #1026, .F. ) ;
#941 = CARTESIAN_POINT ( 'NONE',  ( -1.950000000000000178, 0.8999999999999999112, -0.9100000000000001421 ) ) ;
#942 = EDGE_CURVE ( 'NONE', #193, #366, #800, .T. ) ;
#943 = DIRECTION ( 'NONE',  ( 0.000000000000000000, 0.000000000000000000, -1.000000000000000000 ) ) ;
#944 = PLANE ( 'NONE',  #150 ) ;
#945 = ORIENTED_EDGE ( 'NONE', *, *, #871, .T. ) ;
#946 = DIRECTION ( 'NONE',  ( 0.000000000000000000, 0.000000000000000000, -1.000000000000000000 ) ) ;
#947 = LINE ( 'NONE', #525, #1054 ) ;
#948 = DIRECTION ( 'NONE',  ( 0.000000000000000000, -0.9854601157443477755, -0.1699069165076474708 ) ) ;
#949 = PLANE ( 'NONE',  #432 ) ;
#950 = VECTOR ( 'NONE', #757, 1.000000000000000000 ) ;
#951 = VECTOR ( 'NONE', #715, 1.000000000000000000 ) ;
#952 = ORIENTED_EDGE ( 'NONE', *, *, #958, .F. ) ;
#953 = CARTESIAN_POINT ( 'NONE',  ( -13.97500000000000142, 0.2000000000000000111, -0.8250000000000000666 ) ) ;
#954 = ADVANCED_FACE ( 'NONE', ( #559 ), #296, .F. ) ;
#955 = CARTESIAN_POINT ( 'NONE',  ( -26.40000000000000213, 0.8999999999999999112, -0.9100000000000001421 ) ) ;
#956 = CARTESIAN_POINT ( 'NONE',  ( -26.00000000000000000, -0.2000000000000000111, -0.8250000000000000666 ) ) ;
#957 = DIRECTION ( 'NONE',  ( 0.000000000000000000, 0.9854601157443477755, -0.1699069165076472210 ) ) ;
#958 = EDGE_CURVE ( 'NONE', #542, #193, #553, .T. ) ;
#959 = ORIENTED_EDGE ( 'NONE', *, *, #44, .T. ) ;
#960 = CARTESIAN_POINT ( 'NONE',  ( -13.97500000000000142, -0.8999999999999999112, -0.9100000000000001421 ) ) ;
#961 = DIRECTION ( 'NONE',  ( 0.000000000000000000, 1.000000000000000000, 0.000000000000000000 ) ) ;
#962 = CARTESIAN_POINT ( 'NONE',  ( -26.40000000000000213, 0.8999999999999999112, -0.9100000000000001421 ) ) ;
#963 = DIRECTION ( 'NONE',  ( 1.000000000000000000, -0.000000000000000000, -0.000000000000000000 ) ) ;
#964 = ORIENTED_EDGE ( 'NONE', *, *, #509, .F. ) ;
#965 = LINE ( 'NONE', #444, #859 ) ;
#966 = LINE ( 'NONE', #201, #989 ) ;
#967 = PLANE ( 'NONE',  #880 ) ;
#968 = PLANE ( 'NONE',  #517 ) ;
#969 = ADVANCED_FACE ( 'NONE', ( #229 ), #301, .T. ) ;
#970 = VECTOR ( 'NONE', #550, 1.000000000000000000 ) ;
#971 = EDGE_LOOP ( 'NONE', ( #1083, #355, #677, #90 ) ) ;
#972 = VECTOR ( 'NONE', #703, 1.000000000000000000 ) ;
#973 = EDGE_CURVE ( 'NONE', #762, #935, #127, .T. ) ;
#974 = LINE ( 'NONE', #564, #857 ) ;
#975 = DIRECTION ( 'NONE',  ( -1.000000000000000000, -1.566452239330026778E-17, -0.000000000000000000 ) ) ;
#976 = ORIENTED_EDGE ( 'NONE', *, *, #991, .T. ) ;
#977 = CARTESIAN_POINT ( 'NONE',  ( -26.40000000000000213, -0.8999999999999999112, -0.9100000000000001421 ) ) ;
#978 = PLANE ( 'NONE',  #824 ) ;
#979 = PLANE ( 'NONE',  #403 ) ;
#980 = ORIENTED_EDGE ( 'NONE', *, *, #912, .F. ) ;
#981 = DIRECTION ( 'NONE',  ( -1.000000000000000000, 0.000000000000000000, 0.000000000000000000 ) ) ;
#982 = CARTESIAN_POINT ( 'NONE',  ( -2.350000000000000089, 1.189999999999998392, -0.9600000000000001865 ) ) ;
#983 = ORIENTED_EDGE ( 'NONE', *, *, #644, .F. ) ;
#984 = AXIS2_PLACEMENT_3D ( 'NONE', #735, #993, #821 ) ;
#985 = VECTOR ( 'NONE', #909, 1.000000000000000000 ) ;
#986 = CARTESIAN_POINT ( 'NONE',  ( -26.00000000000000000, 0.8000000000000000444, -0.9100000000000001421 ) ) ;
#987 = DIRECTION ( 'NONE',  ( 1.000000000000000000, 2.662968806861045522E-16, 0.000000000000000000 ) ) ;
#988 = EDGE_CURVE ( 'NONE', #372, #511, #484, .T. ) ;
#989 = VECTOR ( 'NONE', #961, 1.000000000000000000 ) ;
#990 = CARTESIAN_POINT ( 'NONE',  ( -2.350000000000000089, 1.189999999999998392, -0.9600000000000001865 ) ) ;
#991 = EDGE_CURVE ( 'NONE', #879, #762, #543, .T. ) ;
#992 = ORIENTED_EDGE ( 'NONE', *, *, #942, .T. ) ;
#993 = DIRECTION ( 'NONE',  ( 0.000000000000000000, 0.1699069165076472487, -0.9854601157443478865 ) ) ;
#994 = CARTESIAN_POINT ( 'NONE',  ( -1.950000000000000178, -0.2000000000000000111, -0.8250000000000000666 ) ) ;
#995 = CARTESIAN_POINT ( 'NONE',  ( -28.35000000000000142, 1.189999999999997726, -1.160000000000000142 ) ) ;
#996 = ORIENTED_EDGE ( 'NONE', *, *, #764, .F. ) ;
#997 = DIRECTION ( 'NONE',  ( 0.000000000000000000, -0.9901138386947149206, -0.1402661271484180461 ) ) ;
#998 = DIRECTION ( 'NONE',  ( 9.329605248950916386E-17, -1.000000000000000000, 0.000000000000000000 ) ) ;
#999 = ORIENTED_EDGE ( 'NONE', *, *, #295, .F. ) ;
#1000 = ORIENTED_EDGE ( 'NONE', *, *, #196, .T. ) ;
#1001 = VECTOR ( 'NONE', #455, 1.000000000000000222 ) ;
#1002 = EDGE_CURVE ( 'NONE', #730, #235, #471, .T. ) ;
#1003 = DIRECTION ( 'NONE',  ( -0.000000000000000000, -0.9854601157443477755, -0.1699069165076472210 ) ) ;
#1004 = ORIENTED_EDGE ( 'NONE', *, *, #292, .F. ) ;
#1005 = ORIENTED_EDGE ( 'NONE', *, *, #562, .F. ) ;
#1006 = VERTEX_POINT ( 'NONE', #47 ) ;
#1007 = CARTESIAN_POINT ( 'NONE',  ( -2.350000000000000089, -0.8999999999999999112, -0.9100000000000001421 ) ) ;
#1008 = ORIENTED_EDGE ( 'NONE', *, *, #185, .T. ) ;
#1009 = ORIENTED_EDGE ( 'NONE', *, *, #825, .T. ) ;
#1010 = ORIENTED_EDGE ( 'NONE', *, *, #898, .F. ) ;
#1011 = ORIENTED_EDGE ( 'NONE', *, *, #370, .F. ) ;
#1012 = ORIENTED_EDGE ( 'NONE', *, *, #87, .T. ) ;
#1013 = VECTOR ( 'NONE', #1003, 1.000000000000000222 ) ;
#1014 = DIRECTION ( 'NONE',  ( 0.000000000000000000, -1.000000000000000000, 0.000000000000000000 ) ) ;
#1015 = VECTOR ( 'NONE', #28, 1.000000000000000000 ) ;
#1016 = CARTESIAN_POINT ( 'NONE',  ( -26.40000000000000213, -1.189999999999998392, -0.9600000000000001865 ) ) ;
#1017 = VECTOR ( 'NONE', #311, 1.000000000000000000 ) ;
#1018 = EDGE_CURVE ( 'NONE', #670, #699, #464, .T. ) ;
#1019 = EDGE_LOOP ( 'NONE', ( #839, #920, #682, #129 ) ) ;
#1020 = CARTESIAN_POINT ( 'NONE',  ( -26.40000000000000213, -0.8999999999999999112, -0.9100000000000001421 ) ) ;
#1021 = ORIENTED_EDGE ( 'NONE', *, *, #640, .T. ) ;
#1022 = PLANE ( 'NONE',  #588 ) ;
#1023 = DIRECTION ( 'NONE',  ( 0.000000000000000000, -0.9854601157443477755, 0.1699069165076472210 ) ) ;
#1024 = CARTESIAN_POINT ( 'NONE',  ( -13.97500000000000142, -0.8000000000000000444, -0.9100000000000001421 ) ) ;
#1025 = FACE_OUTER_BOUND ( 'NONE', #24, .T. ) ;
#1026 = EDGE_CURVE ( 'NONE', #7, #614, #316, .T. ) ;
#1027 = ORIENTED_EDGE ( 'NONE', *, *, #477, .T. ) ;
#1028 = CARTESIAN_POINT ( 'NONE',  ( -26.40000000000000213, 1.189999999999998392, -0.9600000000000001865 ) ) ;
#1029 = DIRECTION ( 'NONE',  ( -1.000000000000000000, 0.000000000000000000, 0.000000000000000000 ) ) ;
#1030 = EDGE_CURVE ( 'NONE', #755, #915, #808, .T. ) ;
#1031 = LINE ( 'NONE', #466, #806 ) ;
#1032 = VECTOR ( 'NONE', #8, 1.000000000000000000 ) ;
#1033 = VECTOR ( 'NONE', #351, 1.000000000000000000 ) ;
#1034 = ORIENTED_EDGE ( 'NONE', *, *, #509, .T. ) ;
#1035 = DIRECTION ( 'NONE',  ( 0.000000000000000000, -1.000000000000000000, -0.000000000000000000 ) ) ;
#1036 = DIRECTION ( 'NONE',  ( 0.000000000000000000, -0.9901138386947149206, -0.1402661271484180461 ) ) ;
#1037 = DIRECTION ( 'NONE',  ( -0.000000000000000000, 0.000000000000000000, 1.000000000000000000 ) ) ;
#1038 = EDGE_CURVE ( 'NONE', #730, #92, #654, .T. ) ;
#1039 = CARTESIAN_POINT ( 'NONE',  ( -28.35000000000000142, 0.000000000000000000, -0.9600000000000001865 ) ) ;
#1040 = EDGE_LOOP ( 'NONE', ( #393, #607, #820, #247 ) ) ;
#1041 = DIRECTION ( 'NONE',  ( -1.000000000000000000, 0.000000000000000000, 0.000000000000000000 ) ) ;
#1042 = CARTESIAN_POINT ( 'NONE',  ( -26.00000000000000000, 1.189999999999998392, -0.9600000000000001865 ) ) ;
#1043 = DIRECTION ( 'NONE',  ( -1.000000000000000000, 0.000000000000000000, 0.000000000000000000 ) ) ;
#1044 = EDGE_CURVE ( 'NONE', #428, #812, #407, .T. ) ;
#1045 = DIRECTION ( 'NONE',  ( -9.329605248950916386E-17, -1.000000000000000000, 0.000000000000000000 ) ) ;
#1046 = ORIENTED_EDGE ( 'NONE', *, *, #1075, .F. ) ;
#1047 = CARTESIAN_POINT ( 'NONE',  ( -1.950000000000000178, 0.2000000000000000111, -0.8250000000000000666 ) ) ;
#1048 = CARTESIAN_POINT ( 'NONE',  ( 0.000000000000000000, -1.189999999999997282, -0.9600000000000001865 ) ) ;
#1049 = CARTESIAN_POINT ( 'NONE',  ( -1.950000000000000178, 1.189999999999998392, -0.9600000000000001865 ) ) ;
#1050 = PLANE ( 'NONE',  #325 ) ;
#1051 = SURFACE_STYLE_FILL_AREA ( #885 ) ;
#1052 = AXIS2_PLACEMENT_3D ( 'NONE', #803, #733, #53 ) ;
#1053 = ORIENTED_EDGE ( 'NONE', *, *, #57, .F. ) ;
#1054 = VECTOR ( 'NONE', #184, 1.000000000000000000 ) ;
#1055 = EDGE_CURVE ( 'NONE', #734, #673, #225, .T. ) ;
#1056 = DIRECTION ( 'NONE',  ( 0.000000000000000000, 0.000000000000000000, -1.000000000000000000 ) ) ;
#1057 = CARTESIAN_POINT ( 'NONE',  ( -2.350000000000000089, -0.2000000000000000111, -0.8250000000000000666 ) ) ;
#1058 = DIRECTION ( 'NONE',  ( -1.000000000000000000, 0.000000000000000000, 0.000000000000000000 ) ) ;
#1059 = PLANE ( 'NONE',  #1052 ) ;
#1060 = ORIENTED_EDGE ( 'NONE', *, *, #756, .T. ) ;
#1061 = PLANE ( 'NONE',  #984 ) ;
#1062 = CARTESIAN_POINT ( 'NONE',  ( -14.17500000000000071, 1.189999999999997504, -0.9600000000000001865 ) ) ;
#1063 = CARTESIAN_POINT ( 'NONE',  ( -13.97500000000000142, -0.2000000000000000111, -0.8250000000000000666 ) ) ;
#1064 = FACE_OUTER_BOUND ( 'NONE', #422, .T. ) ;
#1065 = VERTEX_POINT ( 'NONE', #913 ) ;
#1066 = EDGE_CURVE ( 'NONE', #10, #339, #974, .T. ) ;
#1067 = DIRECTION ( 'NONE',  ( 0.000000000000000000, -0.1699069165076472487, -0.9854601157443478865 ) ) ;
#1068 = DIRECTION ( 'NONE',  ( 0.000000000000000000, -0.9901138386947149206, 0.1402661271484180461 ) ) ;
#1069 = EDGE_CURVE ( 'NONE', #699, #286, #1073, .T. ) ;
#1070 = EDGE_LOOP ( 'NONE', ( #582, #861, #529, #318, #661, #1011, #925, #223, #575, #317 ) ) ;
#1071 = VECTOR ( 'NONE', #637, 1.000000000000000000 ) ;
#1072 = VECTOR ( 'NONE', #933, 1.000000000000000000 ) ;
#1073 = LINE ( 'NONE', #994, #264 ) ;
#1074 = LINE ( 'NONE', #811, #338 ) ;
#1075 = EDGE_CURVE ( 'NONE', #851, #734, #69, .T. ) ;
#1076 = ORIENTED_EDGE ( 'NONE', *, *, #87, .F. ) ;
#1077 = CARTESIAN_POINT ( 'NONE',  ( -2.350000000000000089, 0.8999999999999999112, -0.9100000000000001421 ) ) ;
#1078 = CARTESIAN_POINT ( 'NONE',  ( -26.40000000000000213, 0.8000000000000000444, -0.9100000000000001421 ) ) ;
#1079 = DIRECTION ( 'NONE',  ( -1.000000000000000000, -9.329605248950916386E-17, 0.000000000000000000 ) ) ;
#1080 = EDGE_CURVE ( 'NONE', #851, #366, #618, .T. ) ;
#1081 = VERTEX_POINT ( 'NONE', #439 ) ;
#1082 = ADVANCED_FACE ( 'NONE', ( #105 ), #944, .T. ) ;
#1083 = ORIENTED_EDGE ( 'NONE', *, *, #724, .T. ) ;
#1084 = LINE ( 'NONE', #415, #950 ) ;
ENDSEC;
END-ISO-10303-21;
